<?xml version="1.0" encoding="UTF-8"?><svg xmlns="http://www.w3.org/2000/svg" viewBox="0 0 1000 550" width="1000" height="550">
  <rect width="1000" height="550" fill="white"/>
  <style>
    .title { font-family: sans-serif; font-size: 16px; font-weight: bold; fill: #333333; }
    .subtitle { font-family: sans-serif; font-size: 12px; fill: #666666; }
    .axis-label { font-family: sans-serif; font-size: 11px; fill: #666666; }
    .tick-label { font-family: sans-serif; font-size: 10px; fill: #333333; }
    .tick-label-minor { font-family: sans-serif; font-size: 9px; fill: #999999; }
    .test-label { font-family: sans-serif; font-size: 11px; fill: #333333; }
    .bar-label-value { font-family: sans-serif; font-size: 8px; fill: #333333; }
    .bar-label-pct { font-family: sans-serif; font-size: 8px; fill: white; }
    .legend-text { font-family: sans-serif; font-size: 10px; fill: #333333; }
    .metadata { font-family: sans-serif; font-size: 9px; fill: #666666; }
    .key-text { font-family: sans-serif; font-size: 9px; font-style: italic; fill: #666666; }
    .grid-line-major { stroke: #cccccc; stroke-width: 1; }
    .grid-line-minor { stroke: #e0e0e0; stroke-width: 0.5; stroke-dasharray: 4,3; }
  </style>
  <text x="500.0" y="30" class="title" text-anchor="middle">Multi-Threaded Performance by Test</text>
  <text x="500.0" y="48" class="subtitle" text-anchor="middle">(Time vs baseline, lower is better, linear scale)</text>
  <text x="20" y="245.0" class="axis-label" text-anchor="middle" transform="rotate(-90 20 245.0)">Time vs Baseline (%, linear scale)</text>
  <line x1="80" y1="410.0" x2="820" y2="410.0" class="grid-line-major"/>
  <text x="72" y="413.0" class="tick-label" text-anchor="end">0%</text>
  <line x1="80" y1="355.0" x2="820" y2="355.0" class="grid-line-major"/>
  <text x="72" y="358.0" class="tick-label" text-anchor="end">50%</text>
  <line x1="80" y1="300.0" x2="820" y2="300.0" class="grid-line-major"/>
  <text x="72" y="303.0" class="tick-label" text-anchor="end">100%</text>
  <line x1="80" y1="245.0" x2="820" y2="245.0" class="grid-line-major"/>
  <text x="72" y="248.0" class="tick-label" text-anchor="end">150%</text>
  <line x1="80" y1="190.0" x2="820" y2="190.0" class="grid-line-major"/>
  <text x="72" y="193.0" class="tick-label" text-anchor="end">200%</text>
  <line x1="80" y1="135.0" x2="820" y2="135.0" class="grid-line-major"/>
  <text x="72" y="138.0" class="tick-label" text-anchor="end">250%</text>
  <line x1="80" y1="80.0" x2="820" y2="80.0" class="grid-line-major"/>
  <text x="72" y="83.0" class="tick-label" text-anchor="end">300%</text>
  <line x1="80" y1="300.0" x2="820" y2="300.0" class="grid-line-line"/>
  <line x1="80" y1="410" x2="820" y2="410" stroke="#333333" stroke-width="1"/>
  <path d="M 104.66666666666667 410.0 L 136.55555555555557 410.0 L 136.55555555555557 303.0 A 3 3 0 0 0 133.55555555555557 300.0 L 107.66666666666667 300.0 A 3 3 0 0 0 104.66666666666667 303.0 Z" fill="#78909c"/>
  <text x="120.61111111111111" y="295.0" class="bar-label-value" text-anchor="middle">982ns</text>
  <path d="M 137.55555555555557 410.0 L 169.44444444444446 410.0 L 169.44444444444446 299.0682281059063 A 3 3 0 0 0 166.44444444444446 296.0682281059063 L 140.55555555555557 296.0682281059063 A 3 3 0 0 0 137.55555555555557 299.0682281059063 Z" fill="#66bb6a"/>
  <text x="153.50000000000003" y="291.0682281059063" class="bar-label-value" text-anchor="middle">1μs</text>
  <text x="153.50000000000003" y="310.0682281059063" class="bar-label-pct" text-anchor="middle">+4%</text>
  <path d="M 170.44444444444446 410.0 L 202.33333333333334 410.0 L 202.33333333333334 321.10183299389 A 3 3 0 0 0 199.33333333333334 318.10183299389 L 173.44444444444446 318.10183299389 A 3 3 0 0 0 170.44444444444446 321.10183299389 Z" fill="#ab47bc"/>
  <text x="186.3888888888889" y="313.10183299389" class="bar-label-value" text-anchor="middle">820ns</text>
  <text x="186.3888888888889" y="332.10183299389" class="bar-label-pct" text-anchor="middle">-16%</text>
  <path d="M 203.33333333333337 410.0 L 235.22222222222226 410.0 L 235.22222222222226 321.6843177189409 A 3 3 0 0 0 232.22222222222226 318.6843177189409 L 206.33333333333337 318.6843177189409 A 3 3 0 0 0 203.33333333333337 321.6843177189409 Z" fill="#ffca28"/>
  <text x="219.27777777777783" y="313.6843177189409" class="bar-label-value" text-anchor="middle">815ns</text>
  <text x="219.27777777777783" y="332.6843177189409" class="bar-label-pct" text-anchor="middle">-17%</text>
  <path d="M 236.22222222222223 410.0 L 268.11111111111114 410.0 L 268.11111111111114 338.6771894093686 A 3 3 0 0 0 265.11111111111114 335.6771894093686 L 239.22222222222223 335.6771894093686 A 3 3 0 0 0 236.22222222222223 338.6771894093686 Z" fill="#ff7043"/>
  <text x="252.16666666666669" y="330.6771894093686" class="bar-label-value" text-anchor="middle">663ns</text>
  <text x="252.16666666666669" y="349.6771894093686" class="bar-label-pct" text-anchor="middle">-32%</text>
  <path d="M 269.11111111111114 410.0 L 301.00000000000006 410.0 L 301.00000000000006 345.3085539714868 A 3 3 0 0 0 298.00000000000006 342.3085539714868 L 272.11111111111114 342.3085539714868 A 3 3 0 0 0 269.11111111111114 345.3085539714868 Z" fill="#42a5f5"/>
  <text x="285.0555555555556" y="337.3085539714868" class="bar-label-value" text-anchor="middle">604ns</text>
  <text x="285.0555555555556" y="356.3085539714868" class="bar-label-pct" text-anchor="middle">-38%</text>
  <text x="203.33333333333337" y="430" class="test-label" text-anchor="middle">adrww-64</text>
  <path d="M 351.3333333333333 410.0 L 383.22222222222223 410.0 L 383.22222222222223 303.0 A 3 3 0 0 0 380.22222222222223 300.0 L 354.3333333333333 300.0 A 3 3 0 0 0 351.3333333333333 303.0 Z" fill="#78909c"/>
  <text x="367.27777777777777" y="295.0" class="bar-label-value" text-anchor="middle">623ns</text>
  <path d="M 384.22222222222223 410.0 L 416.11111111111114 410.0 L 416.11111111111114 318.3311948676825 A 3 3 0 0 0 413.11111111111114 315.3311948676825 L 387.22222222222223 315.3311948676825 A 3 3 0 0 0 384.22222222222223 318.3311948676825 Z" fill="#66bb6a"/>
  <text x="400.1666666666667" y="310.3311948676825" class="bar-label-value" text-anchor="middle">536ns</text>
  <text x="400.1666666666667" y="329.3311948676825" class="bar-label-pct" text-anchor="middle">-14%</text>
  <path d="M 417.1111111111111 410.0 L 449.0 410.0 L 449.0 301.3063352044908 A 3 3 0 0 0 446.0 298.3063352044908 L 420.1111111111111 298.3063352044908 A 3 3 0 0 0 417.1111111111111 301.3063352044908 Z" fill="#ab47bc"/>
  <text x="433.05555555555554" y="293.3063352044908" class="bar-label-value" text-anchor="middle">633ns</text>
  <text x="433.05555555555554" y="312.3063352044908" class="bar-label-pct" text-anchor="middle">+2%</text>
  <path d="M 450.0 410.0 L 481.8888888888889 410.0 L 481.8888888888889 311.38011226944667 A 3 3 0 0 0 478.8888888888889 308.38011226944667 L 453.0 308.38011226944667 A 3 3 0 0 0 450.0 311.38011226944667 Z" fill="#ffca28"/>
  <text x="465.94444444444446" y="303.38011226944667" class="bar-label-value" text-anchor="middle">576ns</text>
  <text x="465.94444444444446" y="322.38011226944667" class="bar-label-pct" text-anchor="middle">-8%</text>
  <path d="M 482.8888888888889 410.0 L 514.7777777777778 410.0 L 514.7777777777778 318.82518043303935 A 3 3 0 0 0 511.7777777777778 315.82518043303935 L 485.8888888888889 315.82518043303935 A 3 3 0 0 0 482.8888888888889 318.82518043303935 Z" fill="#ff7043"/>
  <text x="498.83333333333337" y="310.82518043303935" class="bar-label-value" text-anchor="middle">533ns</text>
  <text x="498.83333333333337" y="329.82518043303935" class="bar-label-pct" text-anchor="middle">-14%</text>
  <path d="M 515.7777777777778 410.0 L 547.6666666666667 410.0 L 547.6666666666667 327.0112269446672 A 3 3 0 0 0 544.6666666666667 324.0112269446672 L 518.7777777777778 324.0112269446672 A 3 3 0 0 0 515.7777777777778 327.0112269446672 Z" fill="#42a5f5"/>
  <text x="531.7222222222223" y="319.0112269446672" class="bar-label-value" text-anchor="middle">487ns</text>
  <text x="531.7222222222223" y="338.0112269446672" class="bar-label-pct" text-anchor="middle">-22%</text>
  <text x="450.0" y="430" class="test-label" text-anchor="middle">adww-64</text>
  <path d="M 597.9999999999999 410.0 L 629.8888888888888 410.0 L 629.8888888888888 303.0 A 3 3 0 0 0 626.8888888888888 300.0 L 600.9999999999999 300.0 A 3 3 0 0 0 597.9999999999999 303.0 Z" fill="#78909c"/>
  <text x="613.9444444444443" y="295.0" class="bar-label-value" text-anchor="middle">7μs</text>
  <path d="M 630.8888888888888 410.0 L 662.7777777777777 410.0 L 662.7777777777777 280.2954571298613 A 3 3 0 0 0 659.7777777777777 277.2954571298613 L 633.8888888888888 277.2954571298613 A 3 3 0 0 0 630.8888888888888 280.2954571298613 Z" fill="#66bb6a"/>
  <text x="646.8333333333333" y="272.2954571298613" class="bar-label-value" text-anchor="middle">8μs</text>
  <text x="646.8333333333333" y="291.2954571298613" class="bar-label-pct" text-anchor="middle">+21%</text>
  <path d="M 663.7777777777777 410.0 L 695.6666666666666 410.0 L 695.6666666666666 358.917813281783 A 3 3 0 0 0 692.6666666666666 355.917813281783 L 666.7777777777777 355.917813281783 A 3 3 0 0 0 663.7777777777777 358.917813281783 Z" fill="#ab47bc"/>
  <text x="679.7222222222222" y="350.917813281783" class="bar-label-value" text-anchor="middle">3μs</text>
  <text x="679.7222222222222" y="369.917813281783" class="bar-label-pct" text-anchor="middle">-51%</text>
  <path d="M 696.6666666666665 410.0 L 728.5555555555554 410.0 L 728.5555555555554 317.3191380486695 A 3 3 0 0 0 725.5555555555554 314.3191380486695 L 699.6666666666665 314.3191380486695 A 3 3 0 0 0 696.6666666666665 317.3191380486695 Z" fill="#ffca28"/>
  <text x="712.611111111111" y="309.3191380486695" class="bar-label-value" text-anchor="middle">6μs</text>
  <text x="712.611111111111" y="328.3191380486695" class="bar-label-pct" text-anchor="middle">-13%</text>
  <path d="M 729.5555555555554 410.0 L 761.4444444444443 410.0 L 761.4444444444443 157.49766886513532 A 3 3 0 0 0 758.4444444444443 154.49766886513532 L 732.5555555555554 154.49766886513532 A 3 3 0 0 0 729.5555555555554 157.49766886513532 Z" fill="#ff7043"/>
  <text x="745.4999999999999" y="149.49766886513532" class="bar-label-value" text-anchor="middle">16μs</text>
  <text x="745.4999999999999" y="168.49766886513532" class="bar-label-pct" text-anchor="middle">+132%</text>
  <path d="M 762.4444444444443 410.0 L 794.3333333333333 410.0 L 794.3333333333333 384.59625881282693 A 3 3 0 0 0 791.3333333333333 381.59625881282693 L 765.4444444444443 381.59625881282693 A 3 3 0 0 0 762.4444444444443 384.59625881282693 Z" fill="#42a5f5"/>
  <text x="778.3888888888888" y="376.59625881282693" class="bar-label-value" text-anchor="middle">1μs</text>
  <text x="778.3888888888888" y="395.59625881282693" class="bar-label-pct" text-anchor="middle">-74%</text>
  <text x="696.6666666666665" y="430" class="test-label" text-anchor="middle">aww-64</text>
  <rect x="840" y="90" width="12" height="12" fill="#78909c" rx="2"/>
  <text x="858" y="100" class="legend-text">default</text>
  <rect x="840" y="110" width="12" height="12" fill="#66bb6a" rx="2"/>
  <text x="858" y="120" class="legend-text">jemalloc</text>
  <rect x="840" y="130" width="12" height="12" fill="#ab47bc" rx="2"/>
  <text x="858" y="140" class="legend-text">snmalloc</text>
  <rect x="840" y="150" width="12" height="12" fill="#ffca28" rx="2"/>
  <text x="858" y="160" class="legend-text">mimalloc</text>
  <rect x="840" y="170" width="12" height="12" fill="#ff7043" rx="2"/>
  <text x="858" y="180" class="legend-text">rpmalloc</text>
  <rect x="840" y="190" width="12" height="12" fill="#42a5f5" rx="2"/>
  <text x="858" y="200" class="legend-text">smalloc</text>
  <text x="500.0" y="475" class="key-text" text-anchor="middle">Tests: adrww=alloc/dealloc/realloc and write, adww=alloc/dealloc and write, aww=alloc and write</text>
  <text x="500.0" y="500" class="metadata" text-anchor="middle">Timestamp: 2026-03-06 07:50:20 UTC</text>
  <text x="500.0" y="514" class="metadata" text-anchor="middle">Source: https://github.com/zooko/smalloc · Commit: 48a4d035b402e23b5d62ecfde8ef257be64e414f · Tag: v7.6.5</text>
  <text x="500.0" y="528" class="metadata" text-anchor="middle">Git Clean Status: Clean</text>
  <text x="500.0" y="542" class="metadata" text-anchor="middle">CPU: CortexA76 · OS: linux-gnu · CPU count: 4</text>
</svg>
