<?xml version="1.0" encoding="UTF-8"?><svg xmlns="http://www.w3.org/2000/svg" viewBox="0 0 750 500">
  <rect width="750" height="500" fill="#fafafa"/>
  <style>
    .bar { stroke: #fff; stroke-width: 1; }
    .axis { stroke: #333; stroke-width: 1; }
    .grid { stroke: #e0e0e0; stroke-width: 0.5; }
    .label { font-family: Arial, Helvetica, sans-serif; font-size: 11px; fill: #333; }
    .value { font-family: monospace; font-size: 11px; fill: #555; }
    .title { font-family: Arial, Helvetica, sans-serif; font-size: 16px; font-weight: 600; fill: #333; }
    .metadata { font-family: monospace; font-size: 9px; fill: #888; }
  </style>
  <text x="375.0" y="35" class="title" text-anchor="middle">Lines of code (excluding assertions)—lower is better</text>
  <line x1="80" y1="60" x2="80" y2="380" class="axis"/>
  <line x1="80" y1="380" x2="710" y2="380" class="axis"/>
  <line x1="80" y1="380.0" x2="710" y2="380.0" class="grid"/>
  <text x="70" y="384.0" class="label" text-anchor="end">0</text>
  <line x1="80" y1="316.0" x2="710" y2="316.0" class="grid"/>
  <text x="70" y="320.0" class="label" text-anchor="end">6,000</text>
  <line x1="80" y1="252.0" x2="710" y2="252.0" class="grid"/>
  <text x="70" y="256.0" class="label" text-anchor="end">12,000</text>
  <line x1="80" y1="188.0" x2="710" y2="188.0" class="grid"/>
  <text x="70" y="192.0" class="label" text-anchor="end">18,000</text>
  <line x1="80" y1="124.0" x2="710" y2="124.0" class="grid"/>
  <text x="70" y="128.0" class="label" text-anchor="end">24,000</text>
  <line x1="80" y1="60.0" x2="710" y2="60.0" class="grid"/>
  <text x="70" y="64.0" class="label" text-anchor="end">30,000</text>
  <rect x="90.5" y="375.6693333333333" width="84.0" height="4.330666666666667" rx="3" ry="3" class="bar" fill="#42a5f5"/>
  <text x="132.5" y="367.6693333333333" class="value" text-anchor="middle">406</text>
  <text x="132.5" y="400" class="label" text-anchor="middle">smalloc</text>
  <rect x="195.5" y="353.19466666666665" width="84.0" height="26.805333333333333" rx="3" ry="3" class="bar" fill="#d98567"/>
  <text x="237.5" y="345.19466666666665" class="value" text-anchor="middle">2,513</text>
  <text x="237.5" y="400" class="label" text-anchor="middle">rpmalloc</text>
  <rect x="300.5" y="267.97866666666664" width="84.0" height="112.02133333333335" rx="3" ry="3" class="bar" fill="#e0bd5e"/>
  <text x="342.5" y="259.97866666666664" class="value" text-anchor="middle">10,502</text>
  <text x="342.5" y="400" class="label" text-anchor="middle">mimalloc</text>
  <rect x="405.5" y="240.04266666666666" width="84.0" height="139.95733333333334" rx="3" ry="3" class="bar" fill="#a06bab"/>
  <text x="447.5" y="232.04266666666666" class="value" text-anchor="middle">13,121</text>
  <text x="447.5" y="400" class="label" text-anchor="middle">snmalloc</text>
  <rect x="510.5" y="100.91733333333332" width="84.0" height="279.0826666666667" rx="3" ry="3" class="bar" fill="#7faa82"/>
  <text x="552.5" y="92.91733333333332" class="value" text-anchor="middle">26,164</text>
  <text x="552.5" y="400" class="label" text-anchor="middle">jemalloc</text>
  <rect x="615.5" y="302.26133333333337" width="84.0" height="77.73866666666666" rx="3" ry="3" class="bar" fill="#6f76a3"/>
  <text x="657.5" y="294.26133333333337" class="value" text-anchor="middle">7,288</text>
  <text x="657.5" y="400" class="label" text-anchor="middle">glibc</text>
  <text x="375.0" y="420" class="metadata" text-anchor="middle">Timestamp: 2026-05-31 23:53:44 UTC</text>
  <text x="375.0" y="434" class="metadata" text-anchor="middle">Source: https://github.com/zooko/bench-allocators · Commit: d05b9b318e00b7573d40206e20071de1f7f9e291</text>
  <text x="375.0" y="448" class="metadata" text-anchor="middle">Git Clean Status: dirty</text>
  <text x="375.0" y="462" class="metadata" text-anchor="middle">CPU: AppleM4Max · OS: darwin25 · CPU count: 16</text>
  <text x="375.0" y="476" class="metadata" text-anchor="middle">smalloc version: 7.6.9+b140dc6f0bfa37c175e5e7b315e8c59e1712808b</text>
</svg>