<?xml version="1.0" encoding="UTF-8"?>
<svg xmlns="http://www.w3.org/2000/svg" viewBox="0 0 800 450" width="800" height="450">
  <rect width="800" height="450" fill="white"/>
  <style>
    .title { font-family: Arial, Helvetica, sans-serif; font-size: 18px; font-weight: bold; fill: #333333; }
    .axis-label { font-family: Arial, Helvetica, sans-serif; font-size: 12px; fill: #666666; }
    .tick-label { font-family: Arial, Helvetica, sans-serif; font-size: 11px; fill: #666666; }
    .bar-label-name { font-family: Arial, Helvetica, sans-serif; font-size: 12px; fill: #333333; }
    .bar-label-value { font-family: monospace; font-size: 11px; fill: #555555; }
    .bar-label-pct { font-family: Arial, Helvetica, sans-serif; font-size: 12px; font-weight: bold; fill: white; }
    .metadata { font-family: monospace; font-size: 10px; fill: #666666; }
    .grid-line { stroke: #cccccc; stroke-width: 0.5; }
  </style>
  <text x="400.0" y="35" class="title" text-anchor="middle">Performance of rust/regex compilation with different allocators—time (lower is better)</text>
  <text x="20" y="205.0" class="axis-label" text-anchor="middle" transform="rotate(-90 20 205.0)">Time vs Baseline (%, baseline = 14.0s)</text>
  <line x1="80" y1="350.0" x2="760" y2="350.0" class="grid-line"/>
  <text x="70" y="354.0" class="tick-label" text-anchor="end">0%</text>
  <line x1="80" y1="299.5652173913044" x2="760" y2="299.5652173913044" class="grid-line"/>
  <text x="70" y="303.5652173913044" class="tick-label" text-anchor="end">20%</text>
  <line x1="80" y1="249.1304347826087" x2="760" y2="249.1304347826087" class="grid-line"/>
  <text x="70" y="253.1304347826087" class="tick-label" text-anchor="end">40%</text>
  <line x1="80" y1="198.69565217391306" x2="760" y2="198.69565217391306" class="grid-line"/>
  <text x="70" y="202.69565217391306" class="tick-label" text-anchor="end">60%</text>
  <line x1="80" y1="148.2608695652174" x2="760" y2="148.2608695652174" class="grid-line"/>
  <text x="70" y="152.2608695652174" class="tick-label" text-anchor="end">80%</text>
  <line x1="80" y1="97.82608695652175" x2="760" y2="97.82608695652175" class="grid-line"/>
  <text x="70" y="101.82608695652175" class="tick-label" text-anchor="end">100%</text>
  <line x1="80" y1="97.82608695652175" x2="760" y2="97.82608695652175" class="grid-line"/>
  <text x="70" y="101.82608695652175" class="tick-label" text-anchor="end">100%</text>
  <path d="M 97.0 350.0 L 176.33333333333331 350.0 L 176.33333333333331 162.70309266420765 A 8 8 0 0 0 168.33333333333331 154.70309266420765 L 105.0 154.70309266420765 A 8 8 0 0 0 97.0 162.70309266420765 Z" fill="#42a5f5"/>
  <text x="136.66666666666666" y="370" class="bar-label-name" text-anchor="middle">smalloc</text>
  <text x="136.66666666666666" y="146.70309266420765" class="bar-label-value" text-anchor="middle">10.8s</text>
  <text x="136.66666666666666" y="172.70309266420765" class="bar-label-pct" text-anchor="middle">-23%</text>
  <path d="M 210.33333333333331 350.0 L 289.66666666666663 350.0 L 289.66666666666663 156.20992783177928 A 8 8 0 0 0 281.66666666666663 148.20992783177928 L 218.33333333333331 148.20992783177928 A 8 8 0 0 0 210.33333333333331 156.20992783177928 Z" fill="#d98567"/>
  <text x="249.99999999999997" y="370" class="bar-label-name" text-anchor="middle">rpmalloc</text>
  <text x="249.99999999999997" y="140.20992783177928" class="bar-label-value" text-anchor="middle">11.2s</text>
  <text x="249.99999999999997" y="166.20992783177928" class="bar-label-pct" text-anchor="middle">-20%</text>
  <path d="M 323.66666666666663 350.0 L 402.99999999999994 350.0 L 402.99999999999994 149.1417866838686 A 8 8 0 0 0 394.99999999999994 141.1417866838686 L 331.66666666666663 141.1417866838686 A 8 8 0 0 0 323.66666666666663 149.1417866838686 Z" fill="#e0bd5e"/>
  <text x="363.3333333333333" y="370" class="bar-label-name" text-anchor="middle">mimalloc</text>
  <text x="363.3333333333333" y="133.1417866838686" class="bar-label-value" text-anchor="middle">11.6s</text>
  <text x="363.3333333333333" y="159.1417866838686" class="bar-label-pct" text-anchor="middle">-17%</text>
  <path d="M 437.0 350.0 L 516.3333333333334 350.0 L 516.3333333333334 162.91726191655374 A 8 8 0 0 0 508.33333333333337 154.91726191655374 L 445.0 154.91726191655374 A 8 8 0 0 0 437.0 162.91726191655374 Z" fill="#a06bab"/>
  <text x="476.6666666666667" y="370" class="bar-label-name" text-anchor="middle">snmalloc</text>
  <text x="476.6666666666667" y="146.91726191655374" class="bar-label-value" text-anchor="middle">10.8s</text>
  <text x="476.6666666666667" y="172.91726191655374" class="bar-label-pct" text-anchor="middle">-23%</text>
  <path d="M 550.3333333333333 350.0 L 629.6666666666666 350.0 L 629.6666666666666 120.42095257096699 A 8 8 0 0 0 621.6666666666666 112.42095257096699 L 558.3333333333333 112.42095257096699 A 8 8 0 0 0 550.3333333333333 120.42095257096699 Z" fill="#7faa82"/>
  <text x="589.9999999999999" y="370" class="bar-label-name" text-anchor="middle">jemalloc</text>
  <text x="589.9999999999999" y="104.42095257096699" class="bar-label-value" text-anchor="middle">13.2s</text>
  <text x="589.9999999999999" y="130.420952570967" class="bar-label-pct" text-anchor="middle">-6%</text>
  <path d="M 663.6666666666666 350.0 L 743.0 350.0 L 743.0 105.82608695652175 A 8 8 0 0 0 735.0 97.82608695652175 L 671.6666666666666 97.82608695652175 A 8 8 0 0 0 663.6666666666666 105.82608695652175 Z" fill="#8a969e"/>
  <text x="703.3333333333333" y="370" class="bar-label-name" text-anchor="middle">default</text>
  <text x="703.3333333333333" y="89.82608695652175" class="bar-label-value" text-anchor="middle">14.0s</text>
  <text x="703.3333333333333" y="115.82608695652175" class="bar-label-pct" text-anchor="middle">baseline</text>
  <text x="400.0" y="386" class="metadata" text-anchor="middle">Timestamp: 2026-06-01 00:43:54 UTC</text>

  <text x="400.0" y="400" class="metadata" text-anchor="middle">Source: https://github.com/zooko/rebar · Commit: c838a47f8cf6375071b48f7f6b295b16a2bc520d</text>

  <text x="400.0" y="414" class="metadata" text-anchor="middle">Git Clean Status: dirty</text>

  <text x="400.0" y="428" class="metadata" text-anchor="middle">CPU: AppleM4Max · OS: darwin25 · CPU count: 16</text>

  <text x="400.0" y="442" class="metadata" text-anchor="middle">smalloc version: 7.6.9+b140dc6f0bfa37c175e5e7b315e8c59e1712808b</text>

</svg>