<svg xmlns="http://www.w3.org/2000/svg" viewBox="0 0 800 500">
  <style>
    .bar { stroke: none; }
    .axis { stroke: #333; stroke-width: 1; }
    .grid { stroke: #ddd; stroke-width: 0.5; }
    .label { font-family: -apple-system, BlinkMacSystemFont, "Segoe UI", Arial, sans-serif; font-size: 12px; fill: #333; }
    .value { font-family: monospace; font-size: 11px; fill: #999; }
    .title { font-family: -apple-system, BlinkMacSystemFont, "Segoe UI", Arial, sans-serif; font-size: 16px; font-weight: 600; fill: #333; }
    .metadata { font-family: monospace; font-size: 10px; fill: #666; }
  </style>
  <text x="400.0" y="30" class="title" text-anchor="middle">Performance of rust/regex with different allocators—time (lower is better)</text>
  <line x1="80" y1="60" x2="80" y2="400" class="axis"/>
  <line x1="80" y1="400" x2="760" y2="400" class="axis"/>
  <line x1="80" y1="400.0" x2="760" y2="400.0" class="grid"/>
  <text x="70" y="404.0" class="label" text-anchor="end">0%</text>
  <line x1="80" y1="343.33333333333337" x2="760" y2="343.33333333333337" class="grid"/>
  <text x="70" y="347.33333333333337" class="label" text-anchor="end">20%</text>
  <line x1="80" y1="286.6666666666667" x2="760" y2="286.6666666666667" class="grid"/>
  <text x="70" y="290.6666666666667" class="label" text-anchor="end">40%</text>
  <line x1="80" y1="230.0" x2="760" y2="230.0" class="grid"/>
  <text x="70" y="234.0" class="label" text-anchor="end">60%</text>
  <line x1="80" y1="173.33333333333334" x2="760" y2="173.33333333333334" class="grid"/>
  <text x="70" y="177.33333333333334" class="label" text-anchor="end">80%</text>
  <line x1="80" y1="116.66666666666666" x2="760" y2="116.66666666666666" class="grid"/>
  <text x="70" y="120.66666666666666" class="label" text-anchor="end">100%</text>
  <line x1="80" y1="60.0" x2="760" y2="60.0" class="grid"/>
  <text x="70" y="64.0" class="label" text-anchor="end">120%</text>
  <rect x="91.33333333333333" y="116.66666666666663" width="90.66666666666666" height="283.33333333333337" class="bar" fill="#ab47bc"/>
  <text x="136.66666666666666" y="111.66666666666663" class="value" text-anchor="middle">100% (baseline)</text>
  <text x="136.66666666666666" y="420" class="label" text-anchor="middle">default</text>
  <rect x="204.66666666666666" y="122.83828091835346" width="90.66666666666666" height="277.16171908164654" class="bar" fill="#42a5f5"/>
  <text x="250.0" y="117.83828091835346" class="value" text-anchor="middle">-2%</text>
  <text x="250.0" y="420" class="label" text-anchor="middle">jemalloc</text>
  <rect x="317.99999999999994" y="135.32606376632464" width="90.66666666666666" height="264.67393623367536" class="bar" fill="#26a69a"/>
  <text x="363.33333333333326" y="130.32606376632464" class="value" text-anchor="middle">-7%</text>
  <text x="363.33333333333326" y="420" class="label" text-anchor="middle">snmalloc</text>
  <rect x="431.3333333333333" y="130.99216876965215" width="90.66666666666666" height="269.00783123034785" class="bar" fill="#ffca28"/>
  <text x="476.66666666666663" y="125.99216876965215" class="value" text-anchor="middle">-5%</text>
  <text x="476.66666666666663" y="420" class="label" text-anchor="middle">mimalloc</text>
  <rect x="544.6666666666666" y="132.69081034971157" width="90.66666666666666" height="267.30918965028843" class="bar" fill="#ff7043"/>
  <text x="590.0" y="127.69081034971157" class="value" text-anchor="middle">-6%</text>
  <text x="590.0" y="420" class="label" text-anchor="middle">rpmalloc</text>
  <rect x="658.0" y="133.1600254778009" width="90.66666666666666" height="266.8399745221991" class="bar" fill="#66bb6a"/>
  <text x="703.3333333333334" y="128.1600254778009" class="value" text-anchor="middle">-6%</text>
  <text x="703.3333333333334" y="420" class="label" text-anchor="middle">smalloc</text>
  <text x="400.0" y="450" class="metadata" text-anchor="middle">Source: https://github.com/zooko/rebar · Commit: 907c4d09d2b1 · Git status: "Clean"</text>
  <text x="400.0" y="464" class="metadata" text-anchor="middle">CPU: Apple M4 Max · OS: darwin25</text>
</svg>