<?xml version="1.0" encoding="UTF-8"?><svg xmlns="http://www.w3.org/2000/svg" viewBox="0 0 1000 550" width="1000" height="550">
  <rect width="1000" height="550" fill="white"/>
  <style>
    .title { font-family: sans-serif; font-size: 16px; font-weight: bold; fill: #333333; }
    .subtitle { font-family: sans-serif; font-size: 12px; fill: #666666; }
    .axis-label { font-family: sans-serif; font-size: 11px; fill: #666666; }
    .tick-label { font-family: sans-serif; font-size: 10px; fill: #333333; }
    .tick-label-minor { font-family: sans-serif; font-size: 9px; fill: #999999; }
    .test-label { font-family: sans-serif; font-size: 11px; fill: #333333; }
    .bar-label-value { font-family: sans-serif; font-size: 8px; fill: #333333; }
    .bar-label-pct { font-family: sans-serif; font-size: 8px; fill: white; }
    .legend-text { font-family: sans-serif; font-size: 10px; fill: #333333; }
    .metadata { font-family: sans-serif; font-size: 9px; fill: #666666; }
    .key-text { font-family: sans-serif; font-size: 9px; font-style: italic; fill: #666666; }
    .grid-line-major { stroke: #cccccc; stroke-width: 1; }
    .grid-line-minor { stroke: #e0e0e0; stroke-width: 0.5; stroke-dasharray: 4,3; }
  </style>
  <text x="500.0" y="30" class="title" text-anchor="middle">Multi-Threaded Performance by Test</text>
  <text x="500.0" y="48" class="subtitle" text-anchor="middle">(Time vs baseline, lower is better, log scale)</text>
  <text x="20" y="245.0" class="axis-label" text-anchor="middle" transform="rotate(-90 20 245.0)">Time vs Baseline (%, log scale)</text>
  <line x1="80" y1="340.5956644540037" x2="820" y2="340.5956644540037" class="grid-line-minor"/>
  <text x="72" y="343.5956644540037" class="tick-label-minor" text-anchor="end">20%</text>
  <line x1="80" y1="293.83373137894256" x2="820" y2="293.83373137894256" class="grid-line-minor"/>
  <text x="72" y="296.83373137894256" class="tick-label-minor" text-anchor="end">50%</text>
  <line x1="80" y1="223.08565777960555" x2="820" y2="223.08565777960555" class="grid-line-minor"/>
  <text x="72" y="226.08565777960555" class="tick-label-minor" text-anchor="end">200%</text>
  <line x1="80" y1="176.3237247045444" x2="820" y2="176.3237247045444" class="grid-line-minor"/>
  <text x="72" y="179.3237247045444" class="tick-label-minor" text-anchor="end">500%</text>
  <line x1="80" y1="105.57565110520741" x2="820" y2="105.57565110520741" class="grid-line-minor"/>
  <text x="72" y="108.57565110520741" class="tick-label-minor" text-anchor="end">2k%</text>
  <line x1="80" y1="80.00364887917432" x2="820" y2="80.00364887917432" class="grid-line-minor"/>
  <text x="72" y="83.00364887917432" class="tick-label-minor" text-anchor="end">3.3k%</text>
  <line x1="80" y1="375.9697012536722" x2="820" y2="375.9697012536722" class="grid-line-major"/>
  <text x="72" y="378.9697012536722" class="tick-label" text-anchor="end">10%</text>
  <line x1="80" y1="258.459694579274" x2="820" y2="258.459694579274" class="grid-line-major"/>
  <text x="72" y="261.459694579274" class="tick-label" text-anchor="end">100%</text>
  <line x1="80" y1="140.9496879048759" x2="820" y2="140.9496879048759" class="grid-line-major"/>
  <text x="72" y="143.9496879048759" class="tick-label" text-anchor="end">1k%</text>
  <line x1="80" y1="258.459694579274" x2="820" y2="258.459694579274" class="grid-line-line"/>
  <line x1="80" y1="410" x2="820" y2="410" stroke="#333333" stroke-width="1"/>
  <path d="M 104.66666666666667 410.0 L 136.55555555555557 410.0 L 136.55555555555557 261.459694579274 A 3 3 0 0 0 133.55555555555557 258.459694579274 L 107.66666666666667 258.459694579274 A 3 3 0 0 0 104.66666666666667 261.459694579274 Z" fill="#78909c"/>
  <text x="120.61111111111111" y="253.45969457927401" class="bar-label-value" text-anchor="middle">700ns</text>
  <path d="M 137.55555555555557 410.0 L 169.44444444444446 410.0 L 169.44444444444446 363.1291370412529 A 3 3 0 0 0 166.44444444444446 360.1291370412529 L 140.55555555555557 360.1291370412529 A 3 3 0 0 0 137.55555555555557 363.1291370412529 Z" fill="#66bb6a"/>
  <text x="153.50000000000003" y="355.1291370412529" class="bar-label-value" text-anchor="middle">95ns</text>
  <text x="153.50000000000003" y="374.1291370412529" class="bar-label-pct" text-anchor="middle">-86%</text>
  <path d="M 170.44444444444446 410.0 L 202.33333333333334 410.0 L 202.33333333333334 330.89240596557164 A 3 3 0 0 0 199.33333333333334 327.89240596557164 L 173.44444444444446 327.89240596557164 A 3 3 0 0 0 170.44444444444446 330.89240596557164 Z" fill="#ab47bc"/>
  <text x="186.3888888888889" y="322.89240596557164" class="bar-label-value" text-anchor="middle">179ns</text>
  <text x="186.3888888888889" y="341.89240596557164" class="bar-label-pct" text-anchor="middle">-74%</text>
  <path d="M 203.33333333333337 410.0 L 235.22222222222226 410.0 L 235.22222222222226 334.69189822424516 A 3 3 0 0 0 232.22222222222226 331.69189822424516 L 206.33333333333337 331.69189822424516 A 3 3 0 0 0 203.33333333333337 334.69189822424516 Z" fill="#ffca28"/>
  <text x="219.27777777777783" y="326.69189822424516" class="bar-label-value" text-anchor="middle">166ns</text>
  <text x="219.27777777777783" y="345.69189822424516" class="bar-label-pct" text-anchor="middle">-76%</text>
  <path d="M 236.22222222222223 410.0 L 268.11111111111114 410.0 L 268.11111111111114 385.9750426446292 A 3 3 0 0 0 265.11111111111114 382.9750426446292 L 239.22222222222223 382.9750426446292 A 3 3 0 0 0 236.22222222222223 385.9750426446292 Z" fill="#ff7043"/>
  <text x="252.16666666666669" y="377.9750426446292" class="bar-label-value" text-anchor="middle">61ns</text>
  <text x="252.16666666666669" y="396.9750426446292" class="bar-label-pct" text-anchor="middle">-91%</text>
  <path d="M 269.11111111111114 410.0 L 301.00000000000006 410.0 L 301.00000000000006 394.797469648198 A 3 3 0 0 0 298.00000000000006 391.797469648198 L 272.11111111111114 391.797469648198 A 3 3 0 0 0 269.11111111111114 394.797469648198 Z" fill="#42a5f5"/>
  <text x="285.0555555555556" y="386.797469648198" class="bar-label-value" text-anchor="middle">51ns</text>
  <text x="203.33333333333337" y="430" class="test-label" text-anchor="middle">adrww-64</text>
  <path d="M 351.3333333333333 410.0 L 383.22222222222223 410.0 L 383.22222222222223 261.459694579274 A 3 3 0 0 0 380.22222222222223 258.459694579274 L 354.3333333333333 258.459694579274 A 3 3 0 0 0 351.3333333333333 261.459694579274 Z" fill="#78909c"/>
  <text x="367.27777777777777" y="253.45969457927401" class="bar-label-value" text-anchor="middle">448ns</text>
  <path d="M 384.22222222222223 410.0 L 416.11111111111114 410.0 L 416.11111111111114 336.2471279821457 A 3 3 0 0 0 413.11111111111114 333.2471279821457 L 387.22222222222223 333.2471279821457 A 3 3 0 0 0 384.22222222222223 336.2471279821457 Z" fill="#66bb6a"/>
  <text x="400.1666666666667" y="328.2471279821457" class="bar-label-value" text-anchor="middle">103ns</text>
  <text x="400.1666666666667" y="347.2471279821457" class="bar-label-pct" text-anchor="middle">-77%</text>
  <path d="M 417.1111111111111 410.0 L 449.0 410.0 L 449.0 272.78783379317866 A 3 3 0 0 0 446.0 269.78783379317866 L 420.1111111111111 269.78783379317866 A 3 3 0 0 0 417.1111111111111 272.78783379317866 Z" fill="#ab47bc"/>
  <text x="433.05555555555554" y="264.78783379317866" class="bar-label-value" text-anchor="middle">358ns</text>
  <text x="433.05555555555554" y="283.78783379317866" class="bar-label-pct" text-anchor="middle">-20%</text>
  <path d="M 450.0 410.0 L 481.8888888888889 410.0 L 481.8888888888889 314.8851750775232 A 3 3 0 0 0 478.8888888888889 311.8851750775232 L 453.0 311.8851750775232 A 3 3 0 0 0 450.0 314.8851750775232 Z" fill="#ffca28"/>
  <text x="465.94444444444446" y="306.8851750775232" class="bar-label-value" text-anchor="middle">157ns</text>
  <text x="465.94444444444446" y="325.8851750775232" class="bar-label-pct" text-anchor="middle">-65%</text>
  <path d="M 482.8888888888889 410.0 L 514.7777777777778 410.0 L 514.7777777777778 359.2081619249421 A 3 3 0 0 0 511.7777777777778 356.2081619249421 L 485.8888888888889 356.2081619249421 A 3 3 0 0 0 482.8888888888889 359.2081619249421 Z" fill="#ff7043"/>
  <text x="498.83333333333337" y="351.2081619249421" class="bar-label-value" text-anchor="middle">66ns</text>
  <text x="498.83333333333337" y="370.2081619249421" class="bar-label-pct" text-anchor="middle">-85%</text>
  <path d="M 515.7777777777778 410.0 L 547.6666666666667 410.0 L 547.6666666666667 364.929950227388 A 3 3 0 0 0 544.6666666666667 361.929950227388 L 518.7777777777778 361.929950227388 A 3 3 0 0 0 515.7777777777778 364.929950227388 Z" fill="#42a5f5"/>
  <text x="531.7222222222223" y="356.929950227388" class="bar-label-value" text-anchor="middle">59ns</text>
  <text x="531.7222222222223" y="375.929950227388" class="bar-label-pct" text-anchor="middle">-87%</text>
  <text x="450.0" y="430" class="test-label" text-anchor="middle">adww-64</text>
  <path d="M 597.9999999999999 410.0 L 629.8888888888888 410.0 L 629.8888888888888 261.459694579274 A 3 3 0 0 0 626.8888888888888 258.459694579274 L 600.9999999999999 258.459694579274 A 3 3 0 0 0 597.9999999999999 261.459694579274 Z" fill="#78909c"/>
  <text x="613.9444444444443" y="253.45969457927401" class="bar-label-value" text-anchor="middle">626ns</text>
  <path d="M 630.8888888888888 410.0 L 662.7777777777777 410.0 L 662.7777777777777 96.38948409007966 A 3 3 0 0 0 659.7777777777777 93.38948409007966 L 633.8888888888888 93.38948409007966 A 3 3 0 0 0 630.8888888888888 96.38948409007966 Z" fill="#66bb6a"/>
  <text x="646.8333333333333" y="88.38948409007966" class="bar-label-value" text-anchor="middle">15μs</text>
  <text x="646.8333333333333" y="107.38948409007966" class="bar-label-pct" text-anchor="middle">+2439%</text>
  <path d="M 663.7777777777777 410.0 L 695.6666666666666 410.0 L 695.6666666666666 221.5725065186145 A 3 3 0 0 0 692.6666666666666 218.5725065186145 L 666.7777777777777 218.5725065186145 A 3 3 0 0 0 663.7777777777777 221.5725065186145 Z" fill="#ab47bc"/>
  <text x="679.7222222222222" y="213.5725065186145" class="bar-label-value" text-anchor="middle">1μs</text>
  <text x="679.7222222222222" y="232.5725065186145" class="bar-label-pct" text-anchor="middle">+118%</text>
  <path d="M 696.6666666666665 410.0 L 728.5555555555554 410.0 L 728.5555555555554 251.82610236069146 A 3 3 0 0 0 725.5555555555554 248.82610236069146 L 699.6666666666665 248.82610236069146 A 3 3 0 0 0 696.6666666666665 251.82610236069146 Z" fill="#ffca28"/>
  <text x="712.611111111111" y="243.82610236069146" class="bar-label-value" text-anchor="middle">756ns</text>
  <text x="712.611111111111" y="262.8261023606915" class="bar-label-pct" text-anchor="middle">+21%</text>
  <path d="M 729.5555555555554 410.0 L 761.4444444444443 410.0 L 761.4444444444443 193.74622860306016 A 3 3 0 0 0 758.4444444444443 190.74622860306016 L 732.5555555555554 190.74622860306016 A 3 3 0 0 0 729.5555555555554 193.74622860306016 Z" fill="#ff7043"/>
  <text x="745.4999999999999" y="185.74622860306016" class="bar-label-value" text-anchor="middle">2μs</text>
  <text x="745.4999999999999" y="204.74622860306016" class="bar-label-pct" text-anchor="middle">+277%</text>
  <path d="M 762.4444444444443 410.0 L 794.3333333333333 410.0 L 794.3333333333333 363.2554956462313 A 3 3 0 0 0 791.3333333333333 360.2554956462313 L 765.4444444444443 360.2554956462313 A 3 3 0 0 0 762.4444444444443 363.2554956462313 Z" fill="#42a5f5"/>
  <text x="778.3888888888888" y="355.2554956462313" class="bar-label-value" text-anchor="middle">85ns</text>
  <text x="778.3888888888888" y="374.2554956462313" class="bar-label-pct" text-anchor="middle">-86%</text>
  <text x="696.6666666666665" y="430" class="test-label" text-anchor="middle">aww-64</text>
  <rect x="840" y="90" width="12" height="12" fill="#78909c" rx="2"/>
  <text x="858" y="100" class="legend-text">default</text>
  <rect x="840" y="110" width="12" height="12" fill="#66bb6a" rx="2"/>
  <text x="858" y="120" class="legend-text">jemalloc</text>
  <rect x="840" y="130" width="12" height="12" fill="#ab47bc" rx="2"/>
  <text x="858" y="140" class="legend-text">snmalloc</text>
  <rect x="840" y="150" width="12" height="12" fill="#ffca28" rx="2"/>
  <text x="858" y="160" class="legend-text">mimalloc</text>
  <rect x="840" y="170" width="12" height="12" fill="#ff7043" rx="2"/>
  <text x="858" y="180" class="legend-text">rpmalloc</text>
  <rect x="840" y="190" width="12" height="12" fill="#42a5f5" rx="2"/>
  <text x="858" y="200" class="legend-text">smalloc</text>
  <text x="500.0" y="475" class="key-text" text-anchor="middle">Tests: adrww=alloc/dealloc/realloc and write, adww=alloc/dealloc and write, aww=alloc and write</text>
  <text x="500.0" y="500" class="metadata" text-anchor="middle">Timestamp: 2026-03-06 05:32:45 UTC</text>
  <text x="500.0" y="514" class="metadata" text-anchor="middle">Source: https://github.com/zooko/smalloc · Commit: 48a4d035b402e23b5d62ecfde8ef257be64e414f · Tag: v7.6.5</text>
  <text x="500.0" y="528" class="metadata" text-anchor="middle">Git Clean Status: Clean</text>
  <text x="500.0" y="542" class="metadata" text-anchor="middle">CPU: AppleM4Max · OS: darwin25 · CPU count: 16</text>
</svg>
