<?xml version="1.0" encoding="UTF-8"?><svg xmlns="http://www.w3.org/2000/svg" viewBox="0 0 1000 550" width="1000" height="550">
  <rect width="1000" height="550" fill="white"/>
  <style>
    .title { font-family: sans-serif; font-size: 16px; font-weight: bold; fill: #333333; }
    .subtitle { font-family: sans-serif; font-size: 12px; fill: #666666; }
    .axis-label { font-family: sans-serif; font-size: 11px; fill: #666666; }
    .tick-label { font-family: sans-serif; font-size: 10px; fill: #333333; }
    .tick-label-minor { font-family: sans-serif; font-size: 9px; fill: #999999; }
    .test-label { font-family: sans-serif; font-size: 11px; fill: #333333; }
    .bar-label-value { font-family: sans-serif; font-size: 8px; fill: #333333; }
    .bar-label-pct { font-family: sans-serif; font-size: 8px; fill: white; }
    .legend-text { font-family: sans-serif; font-size: 10px; fill: #333333; }
    .metadata { font-family: sans-serif; font-size: 9px; fill: #666666; }
    .key-text { font-family: sans-serif; font-size: 9px; font-style: italic; fill: #666666; }
    .grid-line-major { stroke: #cccccc; stroke-width: 1; }
    .grid-line-minor { stroke: #e0e0e0; stroke-width: 0.5; stroke-dasharray: 4,3; }
  </style>
  <text x="500.0" y="30" class="title" text-anchor="middle">Single-Threaded Performance by Test</text>
  <text x="500.0" y="48" class="subtitle" text-anchor="middle">(Time vs baseline, lower is better, linear scale)</text>
  <text x="20" y="245.0" class="axis-label" text-anchor="middle" transform="rotate(-90 20 245.0)">Time vs Baseline (%, linear scale)</text>
  <line x1="80" y1="410.0" x2="820" y2="410.0" class="grid-line-major"/>
  <text x="72" y="413.0" class="tick-label" text-anchor="end">0%</text>
  <line x1="80" y1="315.7142857142857" x2="820" y2="315.7142857142857" class="grid-line-major"/>
  <text x="72" y="318.7142857142857" class="tick-label" text-anchor="end">100%</text>
  <line x1="80" y1="221.42857142857144" x2="820" y2="221.42857142857144" class="grid-line-major"/>
  <text x="72" y="224.42857142857144" class="tick-label" text-anchor="end">200%</text>
  <line x1="80" y1="127.14285714285717" x2="820" y2="127.14285714285717" class="grid-line-major"/>
  <text x="72" y="130.14285714285717" class="tick-label" text-anchor="end">300%</text>
  <line x1="80" y1="315.7142857142857" x2="820" y2="315.7142857142857" class="grid-line-line"/>
  <line x1="80" y1="410" x2="820" y2="410" stroke="#333333" stroke-width="1"/>
  <path d="M 104.66666666666667 410.0 L 136.55555555555557 410.0 L 136.55555555555557 318.7142857142857 A 3 3 0 0 0 133.55555555555557 315.7142857142857 L 107.66666666666667 315.7142857142857 A 3 3 0 0 0 104.66666666666667 318.7142857142857 Z" fill="#78909c"/>
  <text x="120.61111111111111" y="310.7142857142857" class="bar-label-value" text-anchor="middle">21ns</text>
  <path d="M 137.55555555555557 410.0 L 169.44444444444446 410.0 L 169.44444444444446 344.18483412322274 A 3 3 0 0 0 166.44444444444446 341.18483412322274 L 140.55555555555557 341.18483412322274 A 3 3 0 0 0 137.55555555555557 344.18483412322274 Z" fill="#66bb6a"/>
  <text x="153.50000000000003" y="336.18483412322274" class="bar-label-value" text-anchor="middle">15ns</text>
  <text x="153.50000000000003" y="355.18483412322274" class="bar-label-pct" text-anchor="middle">-27%</text>
  <path d="M 170.44444444444446 410.0 L 202.33333333333334 410.0 L 202.33333333333334 364.7400135409614 A 3 3 0 0 0 199.33333333333334 361.7400135409614 L 173.44444444444446 361.7400135409614 A 3 3 0 0 0 170.44444444444446 364.7400135409614 Z" fill="#ab47bc"/>
  <text x="186.3888888888889" y="356.7400135409614" class="bar-label-value" text-anchor="middle">10ns</text>
  <text x="186.3888888888889" y="375.7400135409614" class="bar-label-pct" text-anchor="middle">-49%</text>
  <path d="M 203.33333333333337 410.0 L 235.22222222222226 410.0 L 235.22222222222226 352.2281651997292 A 3 3 0 0 0 232.22222222222226 349.2281651997292 L 206.33333333333337 349.2281651997292 A 3 3 0 0 0 203.33333333333337 352.2281651997292 Z" fill="#ffca28"/>
  <text x="219.27777777777783" y="344.2281651997292" class="bar-label-value" text-anchor="middle">13ns</text>
  <text x="219.27777777777783" y="363.2281651997292" class="bar-label-pct" text-anchor="middle">-36%</text>
  <path d="M 236.22222222222223 410.0 L 268.11111111111114 410.0 L 268.11111111111114 364.7400135409614 A 3 3 0 0 0 265.11111111111114 361.7400135409614 L 239.22222222222223 361.7400135409614 A 3 3 0 0 0 236.22222222222223 364.7400135409614 Z" fill="#ff7043"/>
  <text x="252.16666666666669" y="356.7400135409614" class="bar-label-value" text-anchor="middle">10ns</text>
  <text x="252.16666666666669" y="375.7400135409614" class="bar-label-pct" text-anchor="middle">-49%</text>
  <path d="M 269.11111111111114 410.0 L 301.00000000000006 410.0 L 301.00000000000006 373.2301963439404 A 3 3 0 0 0 298.00000000000006 370.2301963439404 L 272.11111111111114 370.2301963439404 A 3 3 0 0 0 269.11111111111114 373.2301963439404 Z" fill="#42a5f5"/>
  <text x="285.0555555555556" y="365.2301963439404" class="bar-label-value" text-anchor="middle">8ns</text>
  <text x="285.0555555555556" y="384.2301963439404" class="bar-label-pct" text-anchor="middle">-58%</text>
  <text x="203.33333333333337" y="430" class="test-label" text-anchor="middle">adrww-1</text>
  <path d="M 351.3333333333333 410.0 L 383.22222222222223 410.0 L 383.22222222222223 318.7142857142857 A 3 3 0 0 0 380.22222222222223 315.7142857142857 L 354.3333333333333 315.7142857142857 A 3 3 0 0 0 351.3333333333333 318.7142857142857 Z" fill="#78909c"/>
  <text x="367.27777777777777" y="310.7142857142857" class="bar-label-value" text-anchor="middle">19ns</text>
  <path d="M 384.22222222222223 410.0 L 416.11111111111114 410.0 L 416.11111111111114 342.7767857142857 A 3 3 0 0 0 413.11111111111114 339.7767857142857 L 387.22222222222223 339.7767857142857 A 3 3 0 0 0 384.22222222222223 342.7767857142857 Z" fill="#66bb6a"/>
  <text x="400.1666666666667" y="334.7767857142857" class="bar-label-value" text-anchor="middle">14ns</text>
  <text x="400.1666666666667" y="353.7767857142857" class="bar-label-pct" text-anchor="middle">-26%</text>
  <path d="M 417.1111111111111 410.0 L 449.0 410.0 L 449.0 337.375 A 3 3 0 0 0 446.0 334.375 L 420.1111111111111 334.375 A 3 3 0 0 0 417.1111111111111 337.375 Z" fill="#ab47bc"/>
  <text x="433.05555555555554" y="329.375" class="bar-label-value" text-anchor="middle">15ns</text>
  <text x="433.05555555555554" y="348.375" class="bar-label-pct" text-anchor="middle">-20%</text>
  <path d="M 450.0 410.0 L 481.8888888888889 410.0 L 481.8888888888889 333.9375 A 3 3 0 0 0 478.8888888888889 330.9375 L 453.0 330.9375 A 3 3 0 0 0 450.0 333.9375 Z" fill="#ffca28"/>
  <text x="465.94444444444446" y="325.9375" class="bar-label-value" text-anchor="middle">16ns</text>
  <text x="465.94444444444446" y="344.9375" class="bar-label-pct" text-anchor="middle">-16%</text>
  <path d="M 482.8888888888889 410.0 L 514.7777777777778 410.0 L 514.7777777777778 357.5089285714286 A 3 3 0 0 0 511.7777777777778 354.5089285714286 L 485.8888888888889 354.5089285714286 A 3 3 0 0 0 482.8888888888889 357.5089285714286 Z" fill="#ff7043"/>
  <text x="498.83333333333337" y="349.5089285714286" class="bar-label-value" text-anchor="middle">11ns</text>
  <text x="498.83333333333337" y="368.5089285714286" class="bar-label-pct" text-anchor="middle">-41%</text>
  <path d="M 515.7777777777778 410.0 L 547.6666666666667 410.0 L 547.6666666666667 362.41964285714283 A 3 3 0 0 0 544.6666666666667 359.41964285714283 L 518.7777777777778 359.41964285714283 A 3 3 0 0 0 515.7777777777778 362.41964285714283 Z" fill="#42a5f5"/>
  <text x="531.7222222222223" y="354.41964285714283" class="bar-label-value" text-anchor="middle">10ns</text>
  <text x="531.7222222222223" y="373.41964285714283" class="bar-label-pct" text-anchor="middle">-46%</text>
  <text x="450.0" y="430" class="test-label" text-anchor="middle">adww-1</text>
  <path d="M 597.9999999999999 410.0 L 629.8888888888888 410.0 L 629.8888888888888 318.7142857142857 A 3 3 0 0 0 626.8888888888888 315.7142857142857 L 600.9999999999999 315.7142857142857 A 3 3 0 0 0 597.9999999999999 318.7142857142857 Z" fill="#78909c"/>
  <text x="613.9444444444443" y="310.7142857142857" class="bar-label-value" text-anchor="middle">11ns</text>
  <path d="M 630.8888888888888 410.0 L 662.7777777777777 410.0 L 662.7777777777777 332.0644753476612 A 3 3 0 0 0 659.7777777777777 329.0644753476612 L 633.8888888888888 329.0644753476612 A 3 3 0 0 0 630.8888888888888 332.0644753476612 Z" fill="#66bb6a"/>
  <text x="646.8333333333333" y="324.0644753476612" class="bar-label-value" text-anchor="middle">9ns</text>
  <text x="646.8333333333333" y="343.0644753476612" class="bar-label-pct" text-anchor="middle">-14%</text>
  <path d="M 663.7777777777777 410.0 L 695.6666666666666 410.0 L 695.6666666666666 163.51833122629586 A 3 3 0 0 0 692.6666666666666 160.51833122629586 L 666.7777777777777 160.51833122629586 A 3 3 0 0 0 663.7777777777777 163.51833122629586 Z" fill="#ab47bc"/>
  <text x="679.7222222222222" y="155.51833122629586" class="bar-label-value" text-anchor="middle">29ns</text>
  <text x="679.7222222222222" y="174.51833122629586" class="bar-label-pct" text-anchor="middle">+165%</text>
  <path d="M 696.6666666666665 410.0 L 728.5555555555554 410.0 L 728.5555555555554 323.72060682680154 A 3 3 0 0 0 725.5555555555554 320.72060682680154 L 699.6666666666665 320.72060682680154 A 3 3 0 0 0 696.6666666666665 323.72060682680154 Z" fill="#ffca28"/>
  <text x="712.611111111111" y="315.72060682680154" class="bar-label-value" text-anchor="middle">10ns</text>
  <text x="712.611111111111" y="334.72060682680154" class="bar-label-pct" text-anchor="middle">-5%</text>
  <path d="M 729.5555555555554 410.0 L 761.4444444444443 410.0 L 761.4444444444443 372.9494310998736 A 3 3 0 0 0 758.4444444444443 369.9494310998736 L 732.5555555555554 369.9494310998736 A 3 3 0 0 0 729.5555555555554 372.9494310998736 Z" fill="#ff7043"/>
  <text x="745.4999999999999" y="364.9494310998736" class="bar-label-value" text-anchor="middle">4ns</text>
  <text x="745.4999999999999" y="383.9494310998736" class="bar-label-pct" text-anchor="middle">-58%</text>
  <path d="M 762.4444444444443 410.0 L 794.3333333333333 410.0 L 794.3333333333333 369.61188369152967 A 3 3 0 0 0 791.3333333333333 366.61188369152967 L 765.4444444444443 366.61188369152967 A 3 3 0 0 0 762.4444444444443 369.61188369152967 Z" fill="#42a5f5"/>
  <text x="778.3888888888888" y="361.61188369152967" class="bar-label-value" text-anchor="middle">5ns</text>
  <text x="778.3888888888888" y="380.61188369152967" class="bar-label-pct" text-anchor="middle">-54%</text>
  <text x="696.6666666666665" y="430" class="test-label" text-anchor="middle">aww-1</text>
  <rect x="840" y="90" width="12" height="12" fill="#78909c" rx="2"/>
  <text x="858" y="100" class="legend-text">default</text>
  <rect x="840" y="110" width="12" height="12" fill="#66bb6a" rx="2"/>
  <text x="858" y="120" class="legend-text">jemalloc</text>
  <rect x="840" y="130" width="12" height="12" fill="#ab47bc" rx="2"/>
  <text x="858" y="140" class="legend-text">snmalloc</text>
  <rect x="840" y="150" width="12" height="12" fill="#ffca28" rx="2"/>
  <text x="858" y="160" class="legend-text">mimalloc</text>
  <rect x="840" y="170" width="12" height="12" fill="#ff7043" rx="2"/>
  <text x="858" y="180" class="legend-text">rpmalloc</text>
  <rect x="840" y="190" width="12" height="12" fill="#42a5f5" rx="2"/>
  <text x="858" y="200" class="legend-text">smalloc</text>
  <text x="500.0" y="475" class="key-text" text-anchor="middle">Tests: adrww=alloc/dealloc/realloc and write, adww=alloc/dealloc and write, aww=alloc and write</text>
  <text x="500.0" y="500" class="metadata" text-anchor="middle">Timestamp: 2026-03-06 05:32:45 UTC</text>
  <text x="500.0" y="514" class="metadata" text-anchor="middle">Source: https://github.com/zooko/smalloc · Commit: 48a4d035b402e23b5d62ecfde8ef257be64e414f · Tag: v7.6.5</text>
  <text x="500.0" y="528" class="metadata" text-anchor="middle">Git Clean Status: Clean</text>
  <text x="500.0" y="542" class="metadata" text-anchor="middle">CPU: AppleM4Max · OS: darwin25 · CPU count: 16</text>
</svg>
