<?xml version="1.0" encoding="UTF-8"?><svg xmlns="http://www.w3.org/2000/svg" viewBox="0 0 1000 550" width="1000" height="550">
  <rect width="1000" height="550" fill="white"/>
  <style>
    .title { font-family: sans-serif; font-size: 16px; font-weight: bold; fill: #333333; }
    .subtitle { font-family: sans-serif; font-size: 12px; fill: #666666; }
    .axis-label { font-family: sans-serif; font-size: 11px; fill: #666666; }
    .tick-label { font-family: sans-serif; font-size: 10px; fill: #333333; }
    .tick-label-minor { font-family: sans-serif; font-size: 9px; fill: #999999; }
    .test-label { font-family: sans-serif; font-size: 11px; fill: #333333; }
    .bar-label-value { font-family: sans-serif; font-size: 8px; fill: #333333; }
    .bar-label-pct { font-family: sans-serif; font-size: 8px; fill: white; }
    .legend-text { font-family: sans-serif; font-size: 10px; fill: #333333; }
    .metadata { font-family: sans-serif; font-size: 9px; fill: #666666; }
    .key-text { font-family: sans-serif; font-size: 9px; font-style: italic; fill: #666666; }
    .grid-line-major { stroke: #cccccc; stroke-width: 1; }
    .grid-line-minor { stroke: #e0e0e0; stroke-width: 0.5; stroke-dasharray: 4,3; }
  </style>
  <text x="500.0" y="30" class="title" text-anchor="middle">Multi-Threaded Performance by Test</text>
  <text x="500.0" y="48" class="subtitle" text-anchor="middle">(Time vs baseline, lower is better, log scale)</text>
  <text x="20" y="245.0" class="axis-label" text-anchor="middle" transform="rotate(-90 20 245.0)">Time vs Baseline (%, log scale)</text>
  <line x1="80" y1="334.80614350438964" x2="820" y2="334.80614350438964" class="grid-line-minor"/>
  <text x="72" y="337.80614350438964" class="tick-label-minor" text-anchor="end">20%</text>
  <line x1="80" y1="284.06221676778955" x2="820" y2="284.06221676778955" class="grid-line-minor"/>
  <text x="72" y="287.06221676778955" class="tick-label-minor" text-anchor="end">50%</text>
  <line x1="80" y1="207.28961932795096" x2="820" y2="207.28961932795096" class="grid-line-minor"/>
  <text x="72" y="210.28961932795096" class="tick-label-minor" text-anchor="end">200%</text>
  <line x1="80" y1="156.54569259135087" x2="820" y2="156.54569259135087" class="grid-line-minor"/>
  <text x="72" y="159.54569259135087" class="tick-label-minor" text-anchor="end">500%</text>
  <line x1="80" y1="373.19244222430893" x2="820" y2="373.19244222430893" class="grid-line-major"/>
  <text x="72" y="376.19244222430893" class="tick-label" text-anchor="end">10%</text>
  <line x1="80" y1="245.67591804787028" x2="820" y2="245.67591804787028" class="grid-line-major"/>
  <text x="72" y="248.67591804787028" class="tick-label" text-anchor="end">100%</text>
  <line x1="80" y1="118.15939387143152" x2="820" y2="118.15939387143152" class="grid-line-major"/>
  <text x="72" y="121.15939387143152" class="tick-label" text-anchor="end">1k%</text>
  <line x1="80" y1="245.67591804787028" x2="820" y2="245.67591804787028" class="grid-line-line"/>
  <line x1="80" y1="410" x2="820" y2="410" stroke="#333333" stroke-width="1"/>
  <path d="M 104.66666666666667 410.0 L 136.55555555555557 410.0 L 136.55555555555557 248.67591804787028 A 3 3 0 0 0 133.55555555555557 245.67591804787028 L 107.66666666666667 245.67591804787028 A 3 3 0 0 0 104.66666666666667 248.67591804787028 Z" fill="#78909c"/>
  <text x="120.61111111111111" y="240.67591804787028" class="bar-label-value" text-anchor="middle">791ns</text>
  <path d="M 137.55555555555557 410.0 L 169.44444444444446 410.0 L 169.44444444444446 326.65746534108257 A 3 3 0 0 0 166.44444444444446 323.65746534108257 L 140.55555555555557 323.65746534108257 A 3 3 0 0 0 137.55555555555557 326.65746534108257 Z" fill="#66bb6a"/>
  <text x="153.50000000000003" y="318.65746534108257" class="bar-label-value" text-anchor="middle">193ns</text>
  <text x="153.50000000000003" y="337.65746534108257" class="bar-label-pct" text-anchor="middle">-76%</text>
  <path d="M 170.44444444444446 410.0 L 202.33333333333334 410.0 L 202.33333333333334 382.23825493489016 A 3 3 0 0 0 199.33333333333334 379.23825493489016 L 173.44444444444446 379.23825493489016 A 3 3 0 0 0 170.44444444444446 382.23825493489016 Z" fill="#ab47bc"/>
  <text x="186.3888888888889" y="374.23825493489016" class="bar-label-value" text-anchor="middle">71ns</text>
  <text x="186.3888888888889" y="393.23825493489016" class="bar-label-pct" text-anchor="middle">-91%</text>
  <path d="M 203.33333333333337 410.0 L 235.22222222222226 410.0 L 235.22222222222226 315.04242775978287 A 3 3 0 0 0 232.22222222222226 312.04242775978287 L 206.33333333333337 312.04242775978287 A 3 3 0 0 0 203.33333333333337 315.04242775978287 Z" fill="#ffca28"/>
  <text x="219.27777777777783" y="307.04242775978287" class="bar-label-value" text-anchor="middle">238ns</text>
  <text x="219.27777777777783" y="326.04242775978287" class="bar-label-pct" text-anchor="middle">-70%</text>
  <path d="M 236.22222222222223 410.0 L 268.11111111111114 410.0 L 268.11111111111114 384.54773690096465 A 3 3 0 0 0 265.11111111111114 381.54773690096465 L 239.22222222222223 381.54773690096465 A 3 3 0 0 0 236.22222222222223 384.54773690096465 Z" fill="#ff7043"/>
  <text x="252.16666666666669" y="376.54773690096465" class="bar-label-value" text-anchor="middle">68ns</text>
  <text x="252.16666666666669" y="395.54773690096465" class="bar-label-pct" text-anchor="middle">-91%</text>
  <path d="M 269.11111111111114 410.0 L 301.00000000000006 410.0 L 301.00000000000006 393.24744047450025 A 3 3 0 0 0 298.00000000000006 390.24744047450025 L 272.11111111111114 390.24744047450025 A 3 3 0 0 0 269.11111111111114 393.24744047450025 Z" fill="#42a5f5"/>
  <text x="285.0555555555556" y="385.24744047450025" class="bar-label-value" text-anchor="middle">58ns</text>
  <text x="203.33333333333337" y="430" class="test-label" text-anchor="middle">adrww-64</text>
  <path d="M 351.3333333333333 410.0 L 383.22222222222223 410.0 L 383.22222222222223 248.67591804787028 A 3 3 0 0 0 380.22222222222223 245.67591804787028 L 354.3333333333333 245.67591804787028 A 3 3 0 0 0 351.3333333333333 248.67591804787028 Z" fill="#78909c"/>
  <text x="367.27777777777777" y="240.67591804787028" class="bar-label-value" text-anchor="middle">544ns</text>
  <path d="M 384.22222222222223 410.0 L 416.11111111111114 410.0 L 416.11111111111114 294.7849131682466 A 3 3 0 0 0 413.11111111111114 291.7849131682466 L 387.22222222222223 291.7849131682466 A 3 3 0 0 0 384.22222222222223 294.7849131682466 Z" fill="#66bb6a"/>
  <text x="400.1666666666667" y="286.7849131682466" class="bar-label-value" text-anchor="middle">236ns</text>
  <text x="400.1666666666667" y="305.7849131682466" class="bar-label-pct" text-anchor="middle">-57%</text>
  <path d="M 417.1111111111111 410.0 L 449.0 410.0 L 449.0 295.79935179097686 A 3 3 0 0 0 446.0 292.79935179097686 L 420.1111111111111 292.79935179097686 A 3 3 0 0 0 417.1111111111111 295.79935179097686 Z" fill="#ab47bc"/>
  <text x="433.05555555555554" y="287.79935179097686" class="bar-label-value" text-anchor="middle">232ns</text>
  <text x="433.05555555555554" y="306.79935179097686" class="bar-label-pct" text-anchor="middle">-57%</text>
  <path d="M 450.0 410.0 L 481.8888888888889 410.0 L 481.8888888888889 305.5923494000899 A 3 3 0 0 0 478.8888888888889 302.5923494000899 L 453.0 302.5923494000899 A 3 3 0 0 0 450.0 305.5923494000899 Z" fill="#ffca28"/>
  <text x="465.94444444444446" y="297.5923494000899" class="bar-label-value" text-anchor="middle">194ns</text>
  <text x="465.94444444444446" y="316.5923494000899" class="bar-label-pct" text-anchor="middle">-64%</text>
  <path d="M 482.8888888888889 410.0 L 514.7777777777778 410.0 L 514.7777777777778 365.224656196161 A 3 3 0 0 0 511.7777777777778 362.224656196161 L 485.8888888888889 362.224656196161 A 3 3 0 0 0 482.8888888888889 365.224656196161 Z" fill="#ff7043"/>
  <text x="498.83333333333337" y="357.224656196161" class="bar-label-value" text-anchor="middle">66ns</text>
  <text x="498.83333333333337" y="376.224656196161" class="bar-label-pct" text-anchor="middle">-88%</text>
  <path d="M 515.7777777777778 410.0 L 547.6666666666667 410.0 L 547.6666666666667 372.23962242162384 A 3 3 0 0 0 544.6666666666667 369.23962242162384 L 518.7777777777778 369.23962242162384 A 3 3 0 0 0 515.7777777777778 372.23962242162384 Z" fill="#42a5f5"/>
  <text x="531.7222222222223" y="364.23962242162384" class="bar-label-value" text-anchor="middle">58ns</text>
  <text x="531.7222222222223" y="383.23962242162384" class="bar-label-pct" text-anchor="middle">-89%</text>
  <text x="450.0" y="430" class="test-label" text-anchor="middle">adww-64</text>
  <path d="M 597.9999999999999 410.0 L 629.8888888888888 410.0 L 629.8888888888888 248.67591804787028 A 3 3 0 0 0 626.8888888888888 245.67591804787028 L 600.9999999999999 245.67591804787028 A 3 3 0 0 0 597.9999999999999 248.67591804787028 Z" fill="#78909c"/>
  <text x="613.9444444444443" y="240.67591804787028" class="bar-label-value" text-anchor="middle">825ns</text>
  <path d="M 630.8888888888888 410.0 L 662.7777777777777 410.0 L 662.7777777777777 97.52966023917924 A 3 3 0 0 0 659.7777777777777 94.52966023917924 L 633.8888888888888 94.52966023917924 A 3 3 0 0 0 630.8888888888888 97.52966023917924 Z" fill="#66bb6a"/>
  <text x="646.8333333333333" y="89.52966023917924" class="bar-label-value" text-anchor="middle">12μs</text>
  <text x="646.8333333333333" y="108.52966023917924" class="bar-label-pct" text-anchor="middle">+1432%</text>
  <path d="M 663.7777777777777 410.0 L 695.6666666666666 410.0 L 695.6666666666666 225.90711329779367 A 3 3 0 0 0 692.6666666666666 222.90711329779367 L 666.7777777777777 222.90711329779367 A 3 3 0 0 0 663.7777777777777 225.90711329779367 Z" fill="#ab47bc"/>
  <text x="679.7222222222222" y="217.90711329779367" class="bar-label-value" text-anchor="middle">1μs</text>
  <text x="679.7222222222222" y="236.90711329779367" class="bar-label-pct" text-anchor="middle">+51%</text>
  <path d="M 696.6666666666665 410.0 L 728.5555555555554 410.0 L 728.5555555555554 206.63132159693953 A 3 3 0 0 0 725.5555555555554 203.63132159693953 L 699.6666666666665 203.63132159693953 A 3 3 0 0 0 696.6666666666665 206.63132159693953 Z" fill="#ffca28"/>
  <text x="712.611111111111" y="198.63132159693953" class="bar-label-value" text-anchor="middle">1μs</text>
  <text x="712.611111111111" y="217.63132159693953" class="bar-label-pct" text-anchor="middle">+114%</text>
  <path d="M 729.5555555555554 410.0 L 761.4444444444443 410.0 L 761.4444444444443 258.94610487110293 A 3 3 0 0 0 758.4444444444443 255.94610487110293 L 732.5555555555554 255.94610487110293 A 3 3 0 0 0 729.5555555555554 258.94610487110293 Z" fill="#ff7043"/>
  <text x="745.4999999999999" y="250.94610487110293" class="bar-label-value" text-anchor="middle">686ns</text>
  <text x="745.4999999999999" y="269.94610487110293" class="bar-label-pct" text-anchor="middle">-17%</text>
  <path d="M 762.4444444444443 410.0 L 794.3333333333333 410.0 L 794.3333333333333 295.29589273706864 A 3 3 0 0 0 791.3333333333333 292.29589273706864 L 765.4444444444443 292.29589273706864 A 3 3 0 0 0 762.4444444444443 295.29589273706864 Z" fill="#42a5f5"/>
  <text x="778.3888888888888" y="287.29589273706864" class="bar-label-value" text-anchor="middle">355ns</text>
  <text x="778.3888888888888" y="306.29589273706864" class="bar-label-pct" text-anchor="middle">-57%</text>
  <text x="696.6666666666665" y="430" class="test-label" text-anchor="middle">aww-64</text>
  <rect x="840" y="90" width="12" height="12" fill="#78909c" rx="2"/>
  <text x="858" y="100" class="legend-text">default</text>
  <rect x="840" y="110" width="12" height="12" fill="#66bb6a" rx="2"/>
  <text x="858" y="120" class="legend-text">jemalloc</text>
  <rect x="840" y="130" width="12" height="12" fill="#ab47bc" rx="2"/>
  <text x="858" y="140" class="legend-text">snmalloc</text>
  <rect x="840" y="150" width="12" height="12" fill="#ffca28" rx="2"/>
  <text x="858" y="160" class="legend-text">mimalloc</text>
  <rect x="840" y="170" width="12" height="12" fill="#ff7043" rx="2"/>
  <text x="858" y="180" class="legend-text">rpmalloc</text>
  <rect x="840" y="190" width="12" height="12" fill="#42a5f5" rx="2"/>
  <text x="858" y="200" class="legend-text">smalloc</text>
  <text x="500.0" y="475" class="key-text" text-anchor="middle">Tests: adrww=alloc/dealloc/realloc and write, adww=alloc/dealloc and write, aww=alloc and write</text>
  <text x="500.0" y="500" class="metadata" text-anchor="middle">Commit: 307a50c929a3 · Git status: &quot;&quot;Uncommitted changes&quot;&quot;</text>
  <text x="500.0" y="515" class="metadata" text-anchor="middle">CPU: Apple M4 Max · OS: darwin25 · CPU Count: 16</text>
</svg>
