<?xml version="1.0" encoding="UTF-8"?><svg xmlns="http://www.w3.org/2000/svg" viewBox="0 0 1000 550" width="1000" height="550">
  <rect width="1000" height="550" fill="white"/>
  <style>
    .title { font-family: sans-serif; font-size: 16px; font-weight: bold; fill: #333333; }
    .subtitle { font-family: sans-serif; font-size: 12px; fill: #666666; }
    .axis-label { font-family: sans-serif; font-size: 11px; fill: #666666; }
    .tick-label { font-family: sans-serif; font-size: 10px; fill: #333333; }
    .tick-label-minor { font-family: sans-serif; font-size: 9px; fill: #999999; }
    .test-label { font-family: sans-serif; font-size: 11px; fill: #333333; }
    .bar-label-value { font-family: sans-serif; font-size: 8px; fill: #333333; }
    .bar-label-pct { font-family: sans-serif; font-size: 8px; fill: white; }
    .legend-text { font-family: sans-serif; font-size: 10px; fill: #333333; }
    .metadata { font-family: sans-serif; font-size: 9px; fill: #666666; }
    .key-text { font-family: sans-serif; font-size: 9px; font-style: italic; fill: #666666; }
    .grid-line-major { stroke: #cccccc; stroke-width: 1; }
    .grid-line-minor { stroke: #e0e0e0; stroke-width: 0.5; stroke-dasharray: 4,3; }
  </style>
  <text x="500.0" y="30" class="title" text-anchor="middle">Single-Threaded Performance by Test</text>
  <text x="500.0" y="48" class="subtitle" text-anchor="middle">(Time vs baseline, lower is better, linear scale)</text>
  <text x="20" y="245.0" class="axis-label" text-anchor="middle" transform="rotate(-90 20 245.0)">Time vs Baseline (%, linear scale)</text>
  <line x1="80" y1="410.0" x2="820" y2="410.0" class="grid-line-major"/>
  <text x="72" y="413.0" class="tick-label" text-anchor="end">0%</text>
  <line x1="80" y1="327.5" x2="820" y2="327.5" class="grid-line-major"/>
  <text x="72" y="330.5" class="tick-label" text-anchor="end">100%</text>
  <line x1="80" y1="245.0" x2="820" y2="245.0" class="grid-line-major"/>
  <text x="72" y="248.0" class="tick-label" text-anchor="end">200%</text>
  <line x1="80" y1="162.5" x2="820" y2="162.5" class="grid-line-major"/>
  <text x="72" y="165.5" class="tick-label" text-anchor="end">300%</text>
  <line x1="80" y1="80.0" x2="820" y2="80.0" class="grid-line-major"/>
  <text x="72" y="83.0" class="tick-label" text-anchor="end">400%</text>
  <line x1="80" y1="327.5" x2="820" y2="327.5" class="grid-line-line"/>
  <line x1="80" y1="410" x2="820" y2="410" stroke="#333333" stroke-width="1"/>
  <path d="M 104.66666666666667 410.0 L 136.55555555555557 410.0 L 136.55555555555557 330.5 A 3 3 0 0 0 133.55555555555557 327.5 L 107.66666666666667 327.5 A 3 3 0 0 0 104.66666666666667 330.5 Z" fill="#78909c"/>
  <text x="120.61111111111111" y="322.5" class="bar-label-value" text-anchor="middle">21ns</text>
  <path d="M 137.55555555555557 410.0 L 169.44444444444446 410.0 L 169.44444444444446 353.45990566037733 A 3 3 0 0 0 166.44444444444446 350.45990566037733 L 140.55555555555557 350.45990566037733 A 3 3 0 0 0 137.55555555555557 353.45990566037733 Z" fill="#66bb6a"/>
  <text x="153.50000000000003" y="345.45990566037733" class="bar-label-value" text-anchor="middle">15ns</text>
  <text x="153.50000000000003" y="364.45990566037733" class="bar-label-pct" text-anchor="middle">-28%</text>
  <path d="M 170.44444444444446 410.0 L 202.33333333333334 410.0 L 202.33333333333334 370.58254716981133 A 3 3 0 0 0 199.33333333333334 367.58254716981133 L 173.44444444444446 367.58254716981133 A 3 3 0 0 0 170.44444444444446 370.58254716981133 Z" fill="#ab47bc"/>
  <text x="186.3888888888889" y="362.58254716981133" class="bar-label-value" text-anchor="middle">10ns</text>
  <text x="186.3888888888889" y="381.58254716981133" class="bar-label-pct" text-anchor="middle">-49%</text>
  <path d="M 203.33333333333337 410.0 L 235.22222222222226 410.0 L 235.22222222222226 357.35141509433964 A 3 3 0 0 0 232.22222222222226 354.35141509433964 L 206.33333333333337 354.35141509433964 A 3 3 0 0 0 203.33333333333337 357.35141509433964 Z" fill="#ffca28"/>
  <text x="219.27777777777783" y="349.35141509433964" class="bar-label-value" text-anchor="middle">14ns</text>
  <text x="219.27777777777783" y="368.35141509433964" class="bar-label-pct" text-anchor="middle">-33%</text>
  <path d="M 236.22222222222223 410.0 L 268.11111111111114 410.0 L 268.11111111111114 371.3608490566038 A 3 3 0 0 0 265.11111111111114 368.3608490566038 L 239.22222222222223 368.3608490566038 A 3 3 0 0 0 236.22222222222223 371.3608490566038 Z" fill="#ff7043"/>
  <text x="252.16666666666669" y="363.3608490566038" class="bar-label-value" text-anchor="middle">10ns</text>
  <text x="252.16666666666669" y="382.3608490566038" class="bar-label-pct" text-anchor="middle">-50%</text>
  <path d="M 269.11111111111114 410.0 L 301.00000000000006 410.0 L 301.00000000000006 377.97641509433964 A 3 3 0 0 0 298.00000000000006 374.97641509433964 L 272.11111111111114 374.97641509433964 A 3 3 0 0 0 269.11111111111114 377.97641509433964 Z" fill="#42a5f5"/>
  <text x="285.0555555555556" y="369.97641509433964" class="bar-label-value" text-anchor="middle">9ns</text>
  <text x="285.0555555555556" y="388.97641509433964" class="bar-label-pct" text-anchor="middle">-58%</text>
  <text x="203.33333333333337" y="430" class="test-label" text-anchor="middle">adrww-1</text>
  <path d="M 351.3333333333333 410.0 L 383.22222222222223 410.0 L 383.22222222222223 330.5 A 3 3 0 0 0 380.22222222222223 327.5 L 354.3333333333333 327.5 A 3 3 0 0 0 351.3333333333333 330.5 Z" fill="#78909c"/>
  <text x="367.27777777777777" y="322.5" class="bar-label-value" text-anchor="middle">19ns</text>
  <path d="M 384.22222222222223 410.0 L 416.11111111111114 410.0 L 416.11111111111114 351.7763157894737 A 3 3 0 0 0 413.11111111111114 348.7763157894737 L 387.22222222222223 348.7763157894737 A 3 3 0 0 0 384.22222222222223 351.7763157894737 Z" fill="#66bb6a"/>
  <text x="400.1666666666667" y="343.7763157894737" class="bar-label-value" text-anchor="middle">14ns</text>
  <text x="400.1666666666667" y="362.7763157894737" class="bar-label-pct" text-anchor="middle">-26%</text>
  <path d="M 417.1111111111111 410.0 L 449.0 410.0 L 449.0 345.2631578947369 A 3 3 0 0 0 446.0 342.2631578947369 L 420.1111111111111 342.2631578947369 A 3 3 0 0 0 417.1111111111111 345.2631578947369 Z" fill="#ab47bc"/>
  <text x="433.05555555555554" y="337.2631578947369" class="bar-label-value" text-anchor="middle">15ns</text>
  <text x="433.05555555555554" y="356.2631578947369" class="bar-label-pct" text-anchor="middle">-18%</text>
  <path d="M 450.0 410.0 L 481.8888888888889 410.0 L 481.8888888888889 342.22368421052636 A 3 3 0 0 0 478.8888888888889 339.22368421052636 L 453.0 339.22368421052636 A 3 3 0 0 0 450.0 342.22368421052636 Z" fill="#ffca28"/>
  <text x="465.94444444444446" y="334.22368421052636" class="bar-label-value" text-anchor="middle">16ns</text>
  <text x="465.94444444444446" y="353.22368421052636" class="bar-label-pct" text-anchor="middle">-14%</text>
  <path d="M 482.8888888888889 410.0 L 514.7777777777778 410.0 L 514.7777777777778 363.9342105263158 A 3 3 0 0 0 511.7777777777778 360.9342105263158 L 485.8888888888889 360.9342105263158 A 3 3 0 0 0 482.8888888888889 363.9342105263158 Z" fill="#ff7043"/>
  <text x="498.83333333333337" y="355.9342105263158" class="bar-label-value" text-anchor="middle">11ns</text>
  <text x="498.83333333333337" y="374.9342105263158" class="bar-label-pct" text-anchor="middle">-41%</text>
  <path d="M 515.7777777777778 410.0 L 547.6666666666667 410.0 L 547.6666666666667 368.7105263157895 A 3 3 0 0 0 544.6666666666667 365.7105263157895 L 518.7777777777778 365.7105263157895 A 3 3 0 0 0 515.7777777777778 368.7105263157895 Z" fill="#42a5f5"/>
  <text x="531.7222222222223" y="360.7105263157895" class="bar-label-value" text-anchor="middle">10ns</text>
  <text x="531.7222222222223" y="379.7105263157895" class="bar-label-pct" text-anchor="middle">-46%</text>
  <text x="450.0" y="430" class="test-label" text-anchor="middle">adww-1</text>
  <path d="M 597.9999999999999 410.0 L 629.8888888888888 410.0 L 629.8888888888888 330.5 A 3 3 0 0 0 626.8888888888888 327.5 L 600.9999999999999 327.5 A 3 3 0 0 0 597.9999999999999 330.5 Z" fill="#78909c"/>
  <text x="613.9444444444443" y="322.5" class="bar-label-value" text-anchor="middle">10ns</text>
  <path d="M 630.8888888888888 410.0 L 662.7777777777777 410.0 L 662.7777777777777 338.98130841121497 A 3 3 0 0 0 659.7777777777777 335.98130841121497 L 633.8888888888888 335.98130841121497 A 3 3 0 0 0 630.8888888888888 338.98130841121497 Z" fill="#66bb6a"/>
  <text x="646.8333333333333" y="330.98130841121497" class="bar-label-value" text-anchor="middle">9ns</text>
  <text x="646.8333333333333" y="349.98130841121497" class="bar-label-pct" text-anchor="middle">-10%</text>
  <path d="M 663.7777777777777 410.0 L 695.6666666666666 410.0 L 695.6666666666666 152.39252336448595 A 3 3 0 0 0 692.6666666666666 149.39252336448595 L 666.7777777777777 149.39252336448595 A 3 3 0 0 0 663.7777777777777 152.39252336448595 Z" fill="#ab47bc"/>
  <text x="679.7222222222222" y="144.39252336448595" class="bar-label-value" text-anchor="middle">33ns</text>
  <text x="679.7222222222222" y="163.39252336448595" class="bar-label-pct" text-anchor="middle">+216%</text>
  <path d="M 696.6666666666665 410.0 L 728.5555555555554 410.0 L 728.5555555555554 328.1869158878505 A 3 3 0 0 0 725.5555555555554 325.1869158878505 L 699.6666666666665 325.1869158878505 A 3 3 0 0 0 696.6666666666665 328.1869158878505 Z" fill="#ffca28"/>
  <text x="712.611111111111" y="320.1869158878505" class="bar-label-value" text-anchor="middle">11ns</text>
  <text x="712.611111111111" y="339.1869158878505" class="bar-label-pct" text-anchor="middle">+3%</text>
  <path d="M 729.5555555555554 410.0 L 761.4444444444443 410.0 L 761.4444444444443 375.2196261682243 A 3 3 0 0 0 758.4444444444443 372.2196261682243 L 732.5555555555554 372.2196261682243 A 3 3 0 0 0 729.5555555555554 375.2196261682243 Z" fill="#ff7043"/>
  <text x="745.4999999999999" y="367.2196261682243" class="bar-label-value" text-anchor="middle">4ns</text>
  <text x="745.4999999999999" y="386.2196261682243" class="bar-label-pct" text-anchor="middle">-54%</text>
  <path d="M 762.4444444444443 410.0 L 794.3333333333333 410.0 L 794.3333333333333 371.3644859813084 A 3 3 0 0 0 791.3333333333333 368.3644859813084 L 765.4444444444443 368.3644859813084 A 3 3 0 0 0 762.4444444444443 371.3644859813084 Z" fill="#42a5f5"/>
  <text x="778.3888888888888" y="363.3644859813084" class="bar-label-value" text-anchor="middle">5ns</text>
  <text x="778.3888888888888" y="382.3644859813084" class="bar-label-pct" text-anchor="middle">-50%</text>
  <text x="696.6666666666665" y="430" class="test-label" text-anchor="middle">aww-1</text>
  <rect x="840" y="90" width="12" height="12" fill="#78909c" rx="2"/>
  <text x="858" y="100" class="legend-text">default</text>
  <rect x="840" y="110" width="12" height="12" fill="#66bb6a" rx="2"/>
  <text x="858" y="120" class="legend-text">jemalloc</text>
  <rect x="840" y="130" width="12" height="12" fill="#ab47bc" rx="2"/>
  <text x="858" y="140" class="legend-text">snmalloc</text>
  <rect x="840" y="150" width="12" height="12" fill="#ffca28" rx="2"/>
  <text x="858" y="160" class="legend-text">mimalloc</text>
  <rect x="840" y="170" width="12" height="12" fill="#ff7043" rx="2"/>
  <text x="858" y="180" class="legend-text">rpmalloc</text>
  <rect x="840" y="190" width="12" height="12" fill="#42a5f5" rx="2"/>
  <text x="858" y="200" class="legend-text">smalloc</text>
  <text x="500.0" y="475" class="key-text" text-anchor="middle">Tests: adrww=alloc/dealloc/realloc and write, adww=alloc/dealloc and write, aww=alloc and write</text>
  <text x="500.0" y="500" class="metadata" text-anchor="middle">Timestamp: 2026-02-15 08:06:13 UTC</text>
  <text x="500.0" y="515" class="metadata" text-anchor="middle">Source: https://github.com/zooko/smalloc 路 Commit: 71af7c81e2ef 路 Git status: Clean</text>
  <text x="500.0" y="530" class="metadata" text-anchor="middle">CPU: Apple M4 Max 路 OS: darwin25 路 CPU Count: 16</text>
</svg>
