<?xml version="1.0" encoding="UTF-8"?><svg xmlns="http://www.w3.org/2000/svg" viewBox="0 0 1000 550" width="1000" height="550">
  <rect width="1000" height="550" fill="white"/>
  <style>
    .title { font-family: sans-serif; font-size: 16px; font-weight: bold; fill: #333333; }
    .subtitle { font-family: sans-serif; font-size: 12px; fill: #666666; }
    .axis-label { font-family: sans-serif; font-size: 11px; fill: #666666; }
    .tick-label { font-family: sans-serif; font-size: 10px; fill: #333333; }
    .tick-label-minor { font-family: sans-serif; font-size: 9px; fill: #999999; }
    .test-label { font-family: sans-serif; font-size: 11px; fill: #333333; }
    .bar-label-value { font-family: sans-serif; font-size: 8px; fill: #333333; }
    .bar-label-pct { font-family: sans-serif; font-size: 8px; fill: white; }
    .legend-text { font-family: sans-serif; font-size: 10px; fill: #333333; }
    .metadata { font-family: sans-serif; font-size: 9px; fill: #666666; }
    .key-text { font-family: sans-serif; font-size: 9px; font-style: italic; fill: #666666; }
    .grid-line-major { stroke: #cccccc; stroke-width: 1; }
    .grid-line-minor { stroke: #e0e0e0; stroke-width: 0.5; stroke-dasharray: 4,3; }
  </style>
  <text x="500.0" y="30" class="title" text-anchor="middle">Multi-Threaded Performance by Test</text>
  <text x="500.0" y="48" class="subtitle" text-anchor="middle">(Time vs baseline, lower is better, log scale)</text>
  <text x="20" y="245.0" class="axis-label" text-anchor="middle" transform="rotate(-90 20 245.0)">Time vs Baseline (%, log scale)</text>
  <line x1="80" y1="408.2040402087306" x2="820" y2="408.2040402087306" class="grid-line-minor"/>
  <text x="72" y="411.2040402087306" class="tick-label-minor" text-anchor="end">5%</text>
  <line x1="80" y1="338.52940644377514" x2="820" y2="338.52940644377514" class="grid-line-minor"/>
  <text x="72" y="341.52940644377514" class="tick-label-minor" text-anchor="end">20%</text>
  <line x1="80" y1="292.47697850633404" x2="820" y2="292.47697850633404" class="grid-line-minor"/>
  <text x="72" y="295.47697850633404" class="tick-label-minor" text-anchor="end">50%</text>
  <line x1="80" y1="222.80234474137856" x2="820" y2="222.80234474137856" class="grid-line-minor"/>
  <text x="72" y="225.80234474137856" class="tick-label-minor" text-anchor="end">200%</text>
  <line x1="80" y1="176.74991680393748" x2="820" y2="176.74991680393748" class="grid-line-minor"/>
  <text x="72" y="179.74991680393748" class="tick-label-minor" text-anchor="end">500%</text>
  <line x1="80" y1="107.07528303898198" x2="820" y2="107.07528303898198" class="grid-line-minor"/>
  <text x="72" y="110.07528303898198" class="tick-label-minor" text-anchor="end">2k%</text>
  <line x1="80" y1="373.3667233262529" x2="820" y2="373.3667233262529" class="grid-line-major"/>
  <text x="72" y="376.3667233262529" class="tick-label" text-anchor="end">10%</text>
  <line x1="80" y1="257.63966162385634" x2="820" y2="257.63966162385634" class="grid-line-major"/>
  <text x="72" y="260.63966162385634" class="tick-label" text-anchor="end">100%</text>
  <line x1="80" y1="141.91259992145973" x2="820" y2="141.91259992145973" class="grid-line-major"/>
  <text x="72" y="144.91259992145973" class="tick-label" text-anchor="end">1k%</text>
  <line x1="80" y1="257.63966162385634" x2="820" y2="257.63966162385634" class="grid-line-line"/>
  <line x1="80" y1="410" x2="820" y2="410" stroke="#333333" stroke-width="1"/>
  <path d="M 104.66666666666667 410.0 L 136.55555555555557 410.0 L 136.55555555555557 260.63966162385634 A 3 3 0 0 0 133.55555555555557 257.63966162385634 L 107.66666666666667 257.63966162385634 A 3 3 0 0 0 104.66666666666667 260.63966162385634 Z" fill="#78909c"/>
  <text x="120.61111111111111" y="252.63966162385634" class="bar-label-value" text-anchor="middle">700ns</text>
  <path d="M 137.55555555555557 410.0 L 169.44444444444446 410.0 L 169.44444444444446 362.79788874348793 A 3 3 0 0 0 166.44444444444446 359.79788874348793 L 140.55555555555557 359.79788874348793 A 3 3 0 0 0 137.55555555555557 362.79788874348793 Z" fill="#66bb6a"/>
  <text x="153.50000000000003" y="354.79788874348793" class="bar-label-value" text-anchor="middle">91ns</text>
  <text x="153.50000000000003" y="373.79788874348793" class="bar-label-pct" text-anchor="middle">-87%</text>
  <path d="M 170.44444444444446 410.0 L 202.33333333333334 410.0 L 202.33333333333334 296.38884119503564 A 3 3 0 0 0 199.33333333333334 293.38884119503564 L 173.44444444444446 293.38884119503564 A 3 3 0 0 0 170.44444444444446 296.38884119503564 Z" fill="#ab47bc"/>
  <text x="186.3888888888889" y="288.38884119503564" class="bar-label-value" text-anchor="middle">344ns</text>
  <text x="186.3888888888889" y="307.38884119503564" class="bar-label-pct" text-anchor="middle">-51%</text>
  <path d="M 203.33333333333337 410.0 L 235.22222222222226 410.0 L 235.22222222222226 331.5926437636779 A 3 3 0 0 0 232.22222222222226 328.5926437636779 L 206.33333333333337 328.5926437636779 A 3 3 0 0 0 203.33333333333337 331.5926437636779 Z" fill="#ffca28"/>
  <text x="219.27777777777783" y="323.5926437636779" class="bar-label-value" text-anchor="middle">170ns</text>
  <text x="219.27777777777783" y="342.5926437636779" class="bar-label-pct" text-anchor="middle">-76%</text>
  <path d="M 236.22222222222223 410.0 L 268.11111111111114 410.0 L 268.11111111111114 386.48583640418775 A 3 3 0 0 0 265.11111111111114 383.48583640418775 L 239.22222222222223 383.48583640418775 A 3 3 0 0 0 236.22222222222223 386.48583640418775 Z" fill="#ff7043"/>
  <text x="252.16666666666669" y="378.48583640418775" class="bar-label-value" text-anchor="middle">57ns</text>
  <text x="252.16666666666669" y="397.48583640418775" class="bar-label-pct" text-anchor="middle">-92%</text>
  <path d="M 269.11111111111114 410.0 L 301.00000000000006 410.0 L 301.00000000000006 395.0736513189077 A 3 3 0 0 0 298.00000000000006 392.0736513189077 L 272.11111111111114 392.0736513189077 A 3 3 0 0 0 269.11111111111114 395.0736513189077 Z" fill="#42a5f5"/>
  <text x="285.0555555555556" y="387.0736513189077" class="bar-label-value" text-anchor="middle">48ns</text>
  <text x="203.33333333333337" y="430" class="test-label" text-anchor="middle">adrww-64</text>
  <path d="M 351.3333333333333 410.0 L 383.22222222222223 410.0 L 383.22222222222223 260.63966162385634 A 3 3 0 0 0 380.22222222222223 257.63966162385634 L 354.3333333333333 257.63966162385634 A 3 3 0 0 0 351.3333333333333 260.63966162385634 Z" fill="#78909c"/>
  <text x="367.27777777777777" y="252.63966162385634" class="bar-label-value" text-anchor="middle">444ns</text>
  <path d="M 384.22222222222223 410.0 L 416.11111111111114 410.0 L 416.11111111111114 331.11262705944006 A 3 3 0 0 0 413.11111111111114 328.11262705944006 L 387.22222222222223 328.11262705944006 A 3 3 0 0 0 384.22222222222223 331.11262705944006 Z" fill="#66bb6a"/>
  <text x="400.1666666666667" y="323.11262705944006" class="bar-label-value" text-anchor="middle">109ns</text>
  <text x="400.1666666666667" y="342.11262705944006" class="bar-label-pct" text-anchor="middle">-75%</text>
  <path d="M 417.1111111111111 410.0 L 449.0 410.0 L 449.0 273.109252040235 A 3 3 0 0 0 446.0 270.109252040235 L 420.1111111111111 270.109252040235 A 3 3 0 0 0 417.1111111111111 273.109252040235 Z" fill="#ab47bc"/>
  <text x="433.05555555555554" y="265.109252040235" class="bar-label-value" text-anchor="middle">346ns</text>
  <text x="433.05555555555554" y="284.109252040235" class="bar-label-pct" text-anchor="middle">-22%</text>
  <path d="M 450.0 410.0 L 481.8888888888889 410.0 L 481.8888888888889 309.1202270245948 A 3 3 0 0 0 478.8888888888889 306.1202270245948 L 453.0 306.1202270245948 A 3 3 0 0 0 450.0 309.1202270245948 Z" fill="#ffca28"/>
  <text x="465.94444444444446" y="301.1202270245948" class="bar-label-value" text-anchor="middle">169ns</text>
  <text x="465.94444444444446" y="320.1202270245948" class="bar-label-pct" text-anchor="middle">-62%</text>
  <path d="M 482.8888888888889 410.0 L 514.7777777777778 410.0 L 514.7777777777778 358.96356169994954 A 3 3 0 0 0 511.7777777777778 355.96356169994954 L 485.8888888888889 355.96356169994954 A 3 3 0 0 0 482.8888888888889 358.96356169994954 Z" fill="#ff7043"/>
  <text x="498.83333333333337" y="350.96356169994954" class="bar-label-value" text-anchor="middle">62ns</text>
  <text x="498.83333333333337" y="369.96356169994954" class="bar-label-pct" text-anchor="middle">-86%</text>
  <path d="M 515.7777777777778 410.0 L 547.6666666666667 410.0 L 547.6666666666667 362.6143797794603 A 3 3 0 0 0 544.6666666666667 359.6143797794603 L 518.7777777777778 359.6143797794603 A 3 3 0 0 0 515.7777777777778 362.6143797794603 Z" fill="#42a5f5"/>
  <text x="531.7222222222223" y="354.6143797794603" class="bar-label-value" text-anchor="middle">58ns</text>
  <text x="531.7222222222223" y="373.6143797794603" class="bar-label-pct" text-anchor="middle">-87%</text>
  <text x="450.0" y="430" class="test-label" text-anchor="middle">adww-64</text>
  <path d="M 597.9999999999999 410.0 L 629.8888888888888 410.0 L 629.8888888888888 260.63966162385634 A 3 3 0 0 0 626.8888888888888 257.63966162385634 L 600.9999999999999 257.63966162385634 A 3 3 0 0 0 597.9999999999999 260.63966162385634 Z" fill="#78909c"/>
  <text x="613.9444444444443" y="252.63966162385634" class="bar-label-value" text-anchor="middle">622ns</text>
  <path d="M 630.8888888888888 410.0 L 662.7777777777777 410.0 L 662.7777777777777 96.18632936299117 A 3 3 0 0 0 659.7777777777777 93.18632936299117 L 633.8888888888888 93.18632936299117 A 3 3 0 0 0 630.8888888888888 96.18632936299117 Z" fill="#66bb6a"/>
  <text x="646.8333333333333" y="88.18632936299117" class="bar-label-value" text-anchor="middle">16μs</text>
  <text x="646.8333333333333" y="107.18632936299117" class="bar-label-pct" text-anchor="middle">+2537%</text>
  <path d="M 663.7777777777777 410.0 L 695.6666666666666 410.0 L 695.6666666666666 222.33425103361603 A 3 3 0 0 0 692.6666666666666 219.33425103361603 L 666.7777777777777 219.33425103361603 A 3 3 0 0 0 663.7777777777777 222.33425103361603 Z" fill="#ab47bc"/>
  <text x="679.7222222222222" y="214.33425103361603" class="bar-label-value" text-anchor="middle">1μs</text>
  <text x="679.7222222222222" y="233.33425103361603" class="bar-label-pct" text-anchor="middle">+114%</text>
  <path d="M 696.6666666666665 410.0 L 728.5555555555554 410.0 L 728.5555555555554 235.5925497025043 A 3 3 0 0 0 725.5555555555554 232.5925497025043 L 699.6666666666665 232.5925497025043 A 3 3 0 0 0 696.6666666666665 235.5925497025043 Z" fill="#ffca28"/>
  <text x="712.611111111111" y="227.5925497025043" class="bar-label-value" text-anchor="middle">1μs</text>
  <text x="712.611111111111" y="246.5925497025043" class="bar-label-pct" text-anchor="middle">+65%</text>
  <path d="M 729.5555555555554 410.0 L 761.4444444444443 410.0 L 761.4444444444443 169.10509379137835 A 3 3 0 0 0 758.4444444444443 166.10509379137835 L 732.5555555555554 166.10509379137835 A 3 3 0 0 0 729.5555555555554 169.10509379137835 Z" fill="#ff7043"/>
  <text x="745.4999999999999" y="161.10509379137835" class="bar-label-value" text-anchor="middle">3μs</text>
  <text x="745.4999999999999" y="180.10509379137835" class="bar-label-pct" text-anchor="middle">+518%</text>
  <path d="M 762.4444444444443 410.0 L 794.3333333333333 410.0 L 794.3333333333333 363.1041100367798 A 3 3 0 0 0 791.3333333333333 360.1041100367798 L 765.4444444444443 360.1041100367798 A 3 3 0 0 0 762.4444444444443 363.1041100367798 Z" fill="#42a5f5"/>
  <text x="778.3888888888888" y="355.1041100367798" class="bar-label-value" text-anchor="middle">81ns</text>
  <text x="778.3888888888888" y="374.1041100367798" class="bar-label-pct" text-anchor="middle">-87%</text>
  <text x="696.6666666666665" y="430" class="test-label" text-anchor="middle">aww-64</text>
  <rect x="840" y="90" width="12" height="12" fill="#78909c" rx="2"/>
  <text x="858" y="100" class="legend-text">default</text>
  <rect x="840" y="110" width="12" height="12" fill="#66bb6a" rx="2"/>
  <text x="858" y="120" class="legend-text">jemalloc</text>
  <rect x="840" y="130" width="12" height="12" fill="#ab47bc" rx="2"/>
  <text x="858" y="140" class="legend-text">snmalloc</text>
  <rect x="840" y="150" width="12" height="12" fill="#ffca28" rx="2"/>
  <text x="858" y="160" class="legend-text">mimalloc</text>
  <rect x="840" y="170" width="12" height="12" fill="#ff7043" rx="2"/>
  <text x="858" y="180" class="legend-text">rpmalloc</text>
  <rect x="840" y="190" width="12" height="12" fill="#42a5f5" rx="2"/>
  <text x="858" y="200" class="legend-text">smalloc</text>
  <text x="500.0" y="475" class="key-text" text-anchor="middle">Tests: adrww=alloc/dealloc/realloc and write, adww=alloc/dealloc and write, aww=alloc and write</text>
  <text x="500.0" y="500" class="metadata" text-anchor="middle">Timestamp: 2026-02-15 08:06:13 UTC</text>
  <text x="500.0" y="515" class="metadata" text-anchor="middle">Source: https://github.com/zooko/smalloc · Commit: 71af7c81e2ef · Git status: Clean</text>
  <text x="500.0" y="530" class="metadata" text-anchor="middle">CPU: Apple M4 Max · OS: darwin25 · CPU Count: 16</text>
</svg>
