<?xml version="1.0" encoding="UTF-8"?><svg xmlns="http://www.w3.org/2000/svg" viewBox="0 0 1000 550" width="1000" height="550">
  <rect width="1000" height="550" fill="white"/>
  <style>
    .title { font-family: sans-serif; font-size: 16px; font-weight: bold; fill: #333333; }
    .subtitle { font-family: sans-serif; font-size: 12px; fill: #666666; }
    .axis-label { font-family: sans-serif; font-size: 11px; fill: #666666; }
    .tick-label { font-family: sans-serif; font-size: 10px; fill: #333333; }
    .tick-label-minor { font-family: sans-serif; font-size: 9px; fill: #999999; }
    .test-label { font-family: sans-serif; font-size: 11px; fill: #333333; }
    .bar-label-value { font-family: sans-serif; font-size: 8px; fill: #333333; }
    .bar-label-pct { font-family: sans-serif; font-size: 8px; fill: white; }
    .legend-text { font-family: sans-serif; font-size: 10px; fill: #333333; }
    .metadata { font-family: sans-serif; font-size: 9px; fill: #666666; }
    .key-text { font-family: sans-serif; font-size: 9px; font-style: italic; fill: #666666; }
    .grid-line-major { stroke: #cccccc; stroke-width: 1; }
    .grid-line-minor { stroke: #e0e0e0; stroke-width: 0.5; stroke-dasharray: 4,3; }
  </style>
  <text x="500.0" y="30" class="title" text-anchor="middle">Single-Threaded Performance by Test</text>
  <text x="500.0" y="48" class="subtitle" text-anchor="middle">(Time vs baseline, lower is better, linear scale)</text>
  <text x="20" y="245.0" class="axis-label" text-anchor="middle" transform="rotate(-90 20 245.0)">Time vs Baseline (%, linear scale)</text>
  <line x1="80" y1="410.0" x2="820" y2="410.0" class="grid-line-major"/>
  <text x="72" y="413.0" class="tick-label" text-anchor="end">0%</text>
  <line x1="80" y1="355.0" x2="820" y2="355.0" class="grid-line-major"/>
  <text x="72" y="358.0" class="tick-label" text-anchor="end">20%</text>
  <line x1="80" y1="300.0" x2="820" y2="300.0" class="grid-line-major"/>
  <text x="72" y="303.0" class="tick-label" text-anchor="end">40%</text>
  <line x1="80" y1="245.0" x2="820" y2="245.0" class="grid-line-major"/>
  <text x="72" y="248.0" class="tick-label" text-anchor="end">60%</text>
  <line x1="80" y1="190.0" x2="820" y2="190.0" class="grid-line-major"/>
  <text x="72" y="193.0" class="tick-label" text-anchor="end">80%</text>
  <line x1="80" y1="135.0" x2="820" y2="135.0" class="grid-line-major"/>
  <text x="72" y="138.0" class="tick-label" text-anchor="end">100%</text>
  <line x1="80" y1="80.0" x2="820" y2="80.0" class="grid-line-major"/>
  <text x="72" y="83.0" class="tick-label" text-anchor="end">120%</text>
  <line x1="80" y1="135.0" x2="820" y2="135.0" class="grid-line-line"/>
  <line x1="80" y1="410" x2="820" y2="410" stroke="#333333" stroke-width="1"/>
  <path d="M 104.66666666666667 410.0 L 136.55555555555557 410.0 L 136.55555555555557 138.0 A 3 3 0 0 0 133.55555555555557 135.0 L 107.66666666666667 135.0 A 3 3 0 0 0 104.66666666666667 138.0 Z" fill="#78909c"/>
  <text x="120.61111111111111" y="130.0" class="bar-label-value" text-anchor="middle">21ns</text>
  <path d="M 137.55555555555557 410.0 L 169.44444444444446 410.0 L 169.44444444444446 212.6428571428571 A 3 3 0 0 0 166.44444444444446 209.6428571428571 L 140.55555555555557 209.6428571428571 A 3 3 0 0 0 137.55555555555557 212.6428571428571 Z" fill="#66bb6a"/>
  <text x="153.50000000000003" y="204.6428571428571" class="bar-label-value" text-anchor="middle">15ns</text>
  <text x="153.50000000000003" y="223.6428571428571" class="bar-label-pct" text-anchor="middle">-27%</text>
  <path d="M 170.44444444444446 410.0 L 202.33333333333334 410.0 L 202.33333333333334 270.26190476190476 A 3 3 0 0 0 199.33333333333334 267.26190476190476 L 173.44444444444446 267.26190476190476 A 3 3 0 0 0 170.44444444444446 270.26190476190476 Z" fill="#ab47bc"/>
  <text x="186.3888888888889" y="262.26190476190476" class="bar-label-value" text-anchor="middle">10ns</text>
  <text x="186.3888888888889" y="281.26190476190476" class="bar-label-pct" text-anchor="middle">-48%</text>
  <path d="M 203.33333333333337 410.0 L 235.22222222222226 410.0 L 235.22222222222226 240.14285714285714 A 3 3 0 0 0 232.22222222222226 237.14285714285714 L 206.33333333333337 237.14285714285714 A 3 3 0 0 0 203.33333333333337 240.14285714285714 Z" fill="#ffca28"/>
  <text x="219.27777777777783" y="232.14285714285714" class="bar-label-value" text-anchor="middle">13ns</text>
  <text x="219.27777777777783" y="251.14285714285714" class="bar-label-pct" text-anchor="middle">-37%</text>
  <path d="M 236.22222222222223 410.0 L 268.11111111111114 410.0 L 268.11111111111114 271.57142857142856 A 3 3 0 0 0 265.11111111111114 268.57142857142856 L 239.22222222222223 268.57142857142856 A 3 3 0 0 0 236.22222222222223 271.57142857142856 Z" fill="#ff7043"/>
  <text x="252.16666666666669" y="263.57142857142856" class="bar-label-value" text-anchor="middle">10ns</text>
  <text x="252.16666666666669" y="282.57142857142856" class="bar-label-pct" text-anchor="middle">-49%</text>
  <path d="M 269.11111111111114 410.0 L 301.00000000000006 410.0 L 301.00000000000006 296.45238095238096 A 3 3 0 0 0 298.00000000000006 293.45238095238096 L 272.11111111111114 293.45238095238096 A 3 3 0 0 0 269.11111111111114 296.45238095238096 Z" fill="#42a5f5"/>
  <text x="285.0555555555556" y="288.45238095238096" class="bar-label-value" text-anchor="middle">8ns</text>
  <text x="285.0555555555556" y="307.45238095238096" class="bar-label-pct" text-anchor="middle">-58%</text>
  <text x="203.33333333333337" y="430" class="test-label" text-anchor="middle">adrww-1</text>
  <path d="M 351.3333333333333 410.0 L 383.22222222222223 410.0 L 383.22222222222223 138.0 A 3 3 0 0 0 380.22222222222223 135.0 L 354.3333333333333 135.0 A 3 3 0 0 0 351.3333333333333 138.0 Z" fill="#78909c"/>
  <text x="367.27777777777777" y="130.0" class="bar-label-value" text-anchor="middle">17ns</text>
  <path d="M 384.22222222222223 410.0 L 416.11111111111114 410.0 L 416.11111111111114 199.63793103448273 A 3 3 0 0 0 413.11111111111114 196.63793103448273 L 387.22222222222223 196.63793103448273 A 3 3 0 0 0 384.22222222222223 199.63793103448273 Z" fill="#66bb6a"/>
  <text x="400.1666666666667" y="191.63793103448273" class="bar-label-value" text-anchor="middle">13ns</text>
  <text x="400.1666666666667" y="210.63793103448273" class="bar-label-pct" text-anchor="middle">-22%</text>
  <path d="M 417.1111111111111 410.0 L 449.0 410.0 L 449.0 223.34482758620686 A 3 3 0 0 0 446.0 220.34482758620686 L 420.1111111111111 220.34482758620686 A 3 3 0 0 0 417.1111111111111 223.34482758620686 Z" fill="#ab47bc"/>
  <text x="433.05555555555554" y="215.34482758620686" class="bar-label-value" text-anchor="middle">12ns</text>
  <text x="433.05555555555554" y="234.34482758620686" class="bar-label-pct" text-anchor="middle">-31%</text>
  <path d="M 450.0 410.0 L 481.8888888888889 410.0 L 481.8888888888889 220.183908045977 A 3 3 0 0 0 478.8888888888889 217.183908045977 L 453.0 217.183908045977 A 3 3 0 0 0 450.0 220.183908045977 Z" fill="#ffca28"/>
  <text x="465.94444444444446" y="212.183908045977" class="bar-label-value" text-anchor="middle">12ns</text>
  <text x="465.94444444444446" y="231.183908045977" class="bar-label-pct" text-anchor="middle">-30%</text>
  <path d="M 482.8888888888889 410.0 L 514.7777777777778 410.0 L 514.7777777777778 254.95402298850573 A 3 3 0 0 0 511.7777777777778 251.95402298850573 L 485.8888888888889 251.95402298850573 A 3 3 0 0 0 482.8888888888889 254.95402298850573 Z" fill="#ff7043"/>
  <text x="498.83333333333337" y="246.95402298850573" class="bar-label-value" text-anchor="middle">10ns</text>
  <text x="498.83333333333337" y="265.9540229885057" class="bar-label-pct" text-anchor="middle">-43%</text>
  <path d="M 515.7777777777778 410.0 L 547.6666666666667 410.0 L 547.6666666666667 267.59770114942535 A 3 3 0 0 0 544.6666666666667 264.59770114942535 L 518.7777777777778 264.59770114942535 A 3 3 0 0 0 515.7777777777778 267.59770114942535 Z" fill="#42a5f5"/>
  <text x="531.7222222222223" y="259.59770114942535" class="bar-label-value" text-anchor="middle">9ns</text>
  <text x="531.7222222222223" y="278.59770114942535" class="bar-label-pct" text-anchor="middle">-47%</text>
  <text x="450.0" y="430" class="test-label" text-anchor="middle">adww-1</text>
  <path d="M 597.9999999999999 410.0 L 629.8888888888888 410.0 L 629.8888888888888 138.0 A 3 3 0 0 0 626.8888888888888 135.0 L 600.9999999999999 135.0 A 3 3 0 0 0 597.9999999999999 138.0 Z" fill="#78909c"/>
  <text x="613.9444444444443" y="130.0" class="bar-label-value" text-anchor="middle">12ns</text>
  <path d="M 630.8888888888888 410.0 L 662.7777777777777 410.0 L 662.7777777777777 242.76190476190473 A 3 3 0 0 0 659.7777777777777 239.76190476190473 L 633.8888888888888 239.76190476190473 A 3 3 0 0 0 630.8888888888888 242.76190476190473 Z" fill="#66bb6a"/>
  <text x="646.8333333333333" y="234.76190476190473" class="bar-label-value" text-anchor="middle">7ns</text>
  <text x="646.8333333333333" y="253.76190476190473" class="bar-label-pct" text-anchor="middle">-38%</text>
  <path d="M 663.7777777777777 410.0 L 695.6666666666666 410.0 L 695.6666666666666 144.54761904761904 A 3 3 0 0 0 692.6666666666666 141.54761904761904 L 666.7777777777777 141.54761904761904 A 3 3 0 0 0 663.7777777777777 144.54761904761904 Z" fill="#ab47bc"/>
  <text x="679.7222222222222" y="136.54761904761904" class="bar-label-value" text-anchor="middle">12ns</text>
  <text x="679.7222222222222" y="155.54761904761904" class="bar-label-pct" text-anchor="middle">-2%</text>
  <path d="M 696.6666666666665 410.0 L 728.5555555555554 410.0 L 728.5555555555554 188.19841269841265 A 3 3 0 0 0 725.5555555555554 185.19841269841265 L 699.6666666666665 185.19841269841265 A 3 3 0 0 0 696.6666666666665 188.19841269841265 Z" fill="#ffca28"/>
  <text x="712.611111111111" y="180.19841269841265" class="bar-label-value" text-anchor="middle">10ns</text>
  <text x="712.611111111111" y="199.19841269841265" class="bar-label-pct" text-anchor="middle">-18%</text>
  <path d="M 729.5555555555554 410.0 L 761.4444444444443 410.0 L 761.4444444444443 310.4206349206349 A 3 3 0 0 0 758.4444444444443 307.4206349206349 L 732.5555555555554 307.4206349206349 A 3 3 0 0 0 729.5555555555554 310.4206349206349 Z" fill="#ff7043"/>
  <text x="745.4999999999999" y="302.4206349206349" class="bar-label-value" text-anchor="middle">4ns</text>
  <text x="745.4999999999999" y="321.4206349206349" class="bar-label-pct" text-anchor="middle">-63%</text>
  <path d="M 762.4444444444443 410.0 L 794.3333333333333 410.0 L 794.3333333333333 290.77777777777777 A 3 3 0 0 0 791.3333333333333 287.77777777777777 L 765.4444444444443 287.77777777777777 A 3 3 0 0 0 762.4444444444443 290.77777777777777 Z" fill="#42a5f5"/>
  <text x="778.3888888888888" y="282.77777777777777" class="bar-label-value" text-anchor="middle">5ns</text>
  <text x="778.3888888888888" y="301.77777777777777" class="bar-label-pct" text-anchor="middle">-56%</text>
  <text x="696.6666666666665" y="430" class="test-label" text-anchor="middle">aww-1</text>
  <rect x="840" y="90" width="12" height="12" fill="#78909c" rx="2"/>
  <text x="858" y="100" class="legend-text">default</text>
  <rect x="840" y="110" width="12" height="12" fill="#66bb6a" rx="2"/>
  <text x="858" y="120" class="legend-text">jemalloc</text>
  <rect x="840" y="130" width="12" height="12" fill="#ab47bc" rx="2"/>
  <text x="858" y="140" class="legend-text">snmalloc</text>
  <rect x="840" y="150" width="12" height="12" fill="#ffca28" rx="2"/>
  <text x="858" y="160" class="legend-text">mimalloc</text>
  <rect x="840" y="170" width="12" height="12" fill="#ff7043" rx="2"/>
  <text x="858" y="180" class="legend-text">rpmalloc</text>
  <rect x="840" y="190" width="12" height="12" fill="#42a5f5" rx="2"/>
  <text x="858" y="200" class="legend-text">smalloc</text>
  <text x="500.0" y="475" class="key-text" text-anchor="middle">Tests: adrww=alloc/dealloc/realloc and write, adww=alloc/dealloc and write, aww=alloc and write</text>
  <text x="500.0" y="500" class="metadata" text-anchor="middle">Commit: 307a50c929a3 · Git status: &quot;&quot;Uncommitted changes&quot;&quot;</text>
  <text x="500.0" y="515" class="metadata" text-anchor="middle">CPU: Apple M4 Max · OS: darwin25 · CPU Count: 16</text>
</svg>
