<?xml version="1.0" encoding="UTF-8"?><svg xmlns="http://www.w3.org/2000/svg" viewBox="0 0 1000 550" width="1000" height="550">
  <rect width="1000" height="550" fill="white"/>
  <style>
    .title { font-family: sans-serif; font-size: 16px; font-weight: bold; fill: #333333; }
    .subtitle { font-family: sans-serif; font-size: 12px; fill: #666666; }
    .axis-label { font-family: sans-serif; font-size: 11px; fill: #666666; }
    .tick-label { font-family: sans-serif; font-size: 10px; fill: #333333; }
    .tick-label-minor { font-family: sans-serif; font-size: 9px; fill: #999999; }
    .test-label { font-family: sans-serif; font-size: 11px; fill: #333333; }
    .bar-label-value { font-family: sans-serif; font-size: 8px; fill: #333333; }
    .bar-label-pct { font-family: sans-serif; font-size: 8px; fill: white; }
    .legend-text { font-family: sans-serif; font-size: 10px; fill: #333333; }
    .metadata { font-family: sans-serif; font-size: 9px; fill: #666666; }
    .key-text { font-family: sans-serif; font-size: 9px; font-style: italic; fill: #666666; }
    .grid-line-major { stroke: #cccccc; stroke-width: 1; }
    .grid-line-minor { stroke: #e0e0e0; stroke-width: 0.5; stroke-dasharray: 4,3; }
  </style>
  <text x="500.0" y="30" class="title" text-anchor="middle">Single-Threaded Performance by Test</text>
  <text x="500.0" y="48" class="subtitle" text-anchor="middle">(Time vs baseline, lower is better, linear scale)</text>
  <text x="20" y="245.0" class="axis-label" text-anchor="middle" transform="rotate(-90 20 245.0)">Time vs Baseline (%, linear scale)</text>
  <line x1="80" y1="410.0" x2="820" y2="410.0" class="grid-line-major"/>
  <text x="72" y="413.0" class="tick-label" text-anchor="end">0%</text>
  <line x1="80" y1="344.0" x2="820" y2="344.0" class="grid-line-major"/>
  <text x="72" y="347.0" class="tick-label" text-anchor="end">50%</text>
  <line x1="80" y1="278.0" x2="820" y2="278.0" class="grid-line-major"/>
  <text x="72" y="281.0" class="tick-label" text-anchor="end">100%</text>
  <line x1="80" y1="212.0" x2="820" y2="212.0" class="grid-line-major"/>
  <text x="72" y="215.0" class="tick-label" text-anchor="end">150%</text>
  <line x1="80" y1="146.0" x2="820" y2="146.0" class="grid-line-major"/>
  <text x="72" y="149.0" class="tick-label" text-anchor="end">200%</text>
  <line x1="80" y1="80.0" x2="820" y2="80.0" class="grid-line-major"/>
  <text x="72" y="83.0" class="tick-label" text-anchor="end">250%</text>
  <line x1="80" y1="278.0" x2="820" y2="278.0" class="grid-line-major"/>
  <line x1="80" y1="410" x2="820" y2="410" stroke="#333333" stroke-width="1"/>
  <path d="M 104.66666666666667 410.0 L 136.55555555555557 410.0 L 136.55555555555557 347.0 A 3 3 0 0 0 133.55555555555557 344.0 L 107.66666666666667 344.0 A 3 3 0 0 0 104.66666666666667 347.0 Z" fill="#42a5f5"/>
  <text x="120.61111111111111" y="339.0" class="bar-label-value" text-anchor="middle">9ns</text>
  <text x="120.61111111111111" y="358.0" class="bar-label-pct" text-anchor="middle">-50%</text>
  <path d="M 137.55555555555557 410.0 L 169.44444444444446 410.0 L 169.44444444444446 336.35483870967744 A 3 3 0 0 0 166.44444444444446 333.35483870967744 L 140.55555555555557 333.35483870967744 A 3 3 0 0 0 137.55555555555557 336.35483870967744 Z" fill="#d98567"/>
  <text x="153.50000000000003" y="328.35483870967744" class="bar-label-value" text-anchor="middle">10ns</text>
  <text x="153.50000000000003" y="347.35483870967744" class="bar-label-pct" text-anchor="middle">-42%</text>
  <path d="M 170.44444444444446 410.0 L 202.33333333333334 410.0 L 202.33333333333334 300.1612903225807 A 3 3 0 0 0 199.33333333333334 297.1612903225807 L 173.44444444444446 297.1612903225807 A 3 3 0 0 0 170.44444444444446 300.1612903225807 Z" fill="#e0bd5e"/>
  <text x="186.3888888888889" y="292.1612903225807" class="bar-label-value" text-anchor="middle">15ns</text>
  <text x="186.3888888888889" y="311.1612903225807" class="bar-label-pct" text-anchor="middle">-15%</text>
  <path d="M 203.33333333333337 410.0 L 235.22222222222226 410.0 L 235.22222222222226 332.8064516129032 A 3 3 0 0 0 232.22222222222226 329.8064516129032 L 206.33333333333337 329.8064516129032 A 3 3 0 0 0 203.33333333333337 332.8064516129032 Z" fill="#a06bab"/>
  <text x="219.27777777777783" y="324.8064516129032" class="bar-label-value" text-anchor="middle">11ns</text>
  <text x="219.27777777777783" y="343.8064516129032" class="bar-label-pct" text-anchor="middle">-39%</text>
  <path d="M 236.22222222222223 410.0 L 268.11111111111114 410.0 L 268.11111111111114 302.2903225806452 A 3 3 0 0 0 265.11111111111114 299.2903225806452 L 239.22222222222223 299.2903225806452 A 3 3 0 0 0 236.22222222222223 302.2903225806452 Z" fill="#7faa82"/>
  <text x="252.16666666666669" y="294.2903225806452" class="bar-label-value" text-anchor="middle">15ns</text>
  <text x="252.16666666666669" y="313.2903225806452" class="bar-label-pct" text-anchor="middle">-16%</text>
  <path d="M 269.11111111111114 410.0 L 301.00000000000006 410.0 L 301.00000000000006 281.0 A 3 3 0 0 0 298.00000000000006 278.0 L 272.11111111111114 278.0 A 3 3 0 0 0 269.11111111111114 281.0 Z" fill="#8a969e"/>
  <text x="285.0555555555556" y="273.0" class="bar-label-value" text-anchor="middle">18ns</text>
  <text x="203.33333333333337" y="430" class="test-label" text-anchor="middle">adrww-1</text>
  <path d="M 351.3333333333333 410.0 L 383.22222222222223 410.0 L 383.22222222222223 333.48192771084337 A 3 3 0 0 0 380.22222222222223 330.48192771084337 L 354.3333333333333 330.48192771084337 A 3 3 0 0 0 351.3333333333333 333.48192771084337 Z" fill="#42a5f5"/>
  <text x="367.27777777777777" y="325.48192771084337" class="bar-label-value" text-anchor="middle">10ns</text>
  <text x="367.27777777777777" y="344.48192771084337" class="bar-label-pct" text-anchor="middle">-40%</text>
  <path d="M 384.22222222222223 410.0 L 416.11111111111114 410.0 L 416.11111111111114 326.3253012048193 A 3 3 0 0 0 413.11111111111114 323.3253012048193 L 387.22222222222223 323.3253012048193 A 3 3 0 0 0 384.22222222222223 326.3253012048193 Z" fill="#d98567"/>
  <text x="400.1666666666667" y="318.3253012048193" class="bar-label-value" text-anchor="middle">10ns</text>
  <text x="400.1666666666667" y="337.3253012048193" class="bar-label-pct" text-anchor="middle">-34%</text>
  <path d="M 417.1111111111111 410.0 L 449.0 410.0 L 449.0 296.10843373493975 A 3 3 0 0 0 446.0 293.10843373493975 L 420.1111111111111 293.10843373493975 A 3 3 0 0 0 417.1111111111111 296.10843373493975 Z" fill="#e0bd5e"/>
  <text x="433.05555555555554" y="288.10843373493975" class="bar-label-value" text-anchor="middle">14ns</text>
  <text x="433.05555555555554" y="307.10843373493975" class="bar-label-pct" text-anchor="middle">-11%</text>
  <path d="M 450.0 410.0 L 481.8888888888889 410.0 L 481.8888888888889 313.60240963855426 A 3 3 0 0 0 478.8888888888889 310.60240963855426 L 453.0 310.60240963855426 A 3 3 0 0 0 450.0 313.60240963855426 Z" fill="#a06bab"/>
  <text x="465.94444444444446" y="305.60240963855426" class="bar-label-value" text-anchor="middle">12ns</text>
  <text x="465.94444444444446" y="324.60240963855426" class="bar-label-pct" text-anchor="middle">-25%</text>
  <path d="M 482.8888888888889 410.0 L 514.7777777777778 410.0 L 514.7777777777778 302.46987951807233 A 3 3 0 0 0 511.7777777777778 299.46987951807233 L 485.8888888888889 299.46987951807233 A 3 3 0 0 0 482.8888888888889 302.46987951807233 Z" fill="#7faa82"/>
  <text x="498.83333333333337" y="294.46987951807233" class="bar-label-value" text-anchor="middle">13ns</text>
  <text x="498.83333333333337" y="313.46987951807233" class="bar-label-pct" text-anchor="middle">-16%</text>
  <path d="M 515.7777777777778 410.0 L 547.6666666666667 410.0 L 547.6666666666667 281.0 A 3 3 0 0 0 544.6666666666667 278.0 L 518.7777777777778 278.0 A 3 3 0 0 0 515.7777777777778 281.0 Z" fill="#8a969e"/>
  <text x="531.7222222222223" y="273.0" class="bar-label-value" text-anchor="middle">16ns</text>
  <text x="450.0" y="430" class="test-label" text-anchor="middle">adww-1</text>
  <path d="M 597.9999999999999 410.0 L 629.8888888888888 410.0 L 629.8888888888888 319.16867469879514 A 3 3 0 0 0 626.8888888888888 316.16867469879514 L 600.9999999999999 316.16867469879514 A 3 3 0 0 0 597.9999999999999 319.16867469879514 Z" fill="#42a5f5"/>
  <text x="613.9444444444443" y="311.16867469879514" class="bar-label-value" text-anchor="middle">5ns</text>
  <text x="613.9444444444443" y="330.16867469879514" class="bar-label-pct" text-anchor="middle">-29%</text>
  <path d="M 630.8888888888888 410.0 L 662.7777777777777 410.0 L 662.7777777777777 333.48192771084337 A 3 3 0 0 0 659.7777777777777 330.48192771084337 L 633.8888888888888 330.48192771084337 A 3 3 0 0 0 630.8888888888888 333.48192771084337 Z" fill="#d98567"/>
  <text x="646.8333333333333" y="325.48192771084337" class="bar-label-value" text-anchor="middle">5ns</text>
  <text x="646.8333333333333" y="344.48192771084337" class="bar-label-pct" text-anchor="middle">-40%</text>
  <path d="M 663.7777777777777 410.0 L 695.6666666666666 410.0 L 695.6666666666666 201.48192771084337 A 3 3 0 0 0 692.6666666666666 198.48192771084337 L 666.7777777777777 198.48192771084337 A 3 3 0 0 0 663.7777777777777 201.48192771084337 Z" fill="#e0bd5e"/>
  <text x="679.7222222222222" y="193.48192771084337" class="bar-label-value" text-anchor="middle">13ns</text>
  <text x="679.7222222222222" y="212.48192771084337" class="bar-label-pct" text-anchor="middle">+60%</text>
  <path d="M 696.6666666666665 410.0 L 728.5555555555554 410.0 L 728.5555555555554 193.53012048192772 A 3 3 0 0 0 725.5555555555554 190.53012048192772 L 699.6666666666665 190.53012048192772 A 3 3 0 0 0 696.6666666666665 193.53012048192772 Z" fill="#a06bab"/>
  <text x="712.611111111111" y="185.53012048192772" class="bar-label-value" text-anchor="middle">13ns</text>
  <text x="712.611111111111" y="204.53012048192772" class="bar-label-pct" text-anchor="middle">+66%</text>
  <path d="M 729.5555555555554 410.0 L 761.4444444444443 410.0 L 761.4444444444443 163.31325301204822 A 3 3 0 0 0 758.4444444444443 160.31325301204822 L 732.5555555555554 160.31325301204822 A 3 3 0 0 0 729.5555555555554 163.31325301204822 Z" fill="#7faa82"/>
  <text x="745.4999999999999" y="155.31325301204822" class="bar-label-value" text-anchor="middle">15ns</text>
  <text x="745.4999999999999" y="174.31325301204822" class="bar-label-pct" text-anchor="middle">+89%</text>
  <path d="M 762.4444444444443 410.0 L 794.3333333333333 410.0 L 794.3333333333333 281.0 A 3 3 0 0 0 791.3333333333333 278.0 L 765.4444444444443 278.0 A 3 3 0 0 0 762.4444444444443 281.0 Z" fill="#8a969e"/>
  <text x="778.3888888888888" y="273.0" class="bar-label-value" text-anchor="middle">8ns</text>
  <text x="696.6666666666665" y="430" class="test-label" text-anchor="middle">aww-1</text>
  <rect x="840" y="90" width="12" height="12" fill="#42a5f5" rx="2"/>
  <text x="858" y="100" class="legend-text">smalloc</text>
  <rect x="840" y="110" width="12" height="12" fill="#d98567" rx="2"/>
  <text x="858" y="120" class="legend-text">rpmalloc</text>
  <rect x="840" y="130" width="12" height="12" fill="#e0bd5e" rx="2"/>
  <text x="858" y="140" class="legend-text">mimalloc</text>
  <rect x="840" y="150" width="12" height="12" fill="#a06bab" rx="2"/>
  <text x="858" y="160" class="legend-text">snmalloc</text>
  <rect x="840" y="170" width="12" height="12" fill="#7faa82" rx="2"/>
  <text x="858" y="180" class="legend-text">jemalloc</text>
  <rect x="840" y="190" width="12" height="12" fill="#8a969e" rx="2"/>
  <text x="858" y="200" class="legend-text">default</text>
  <text x="500.0" y="460" class="key-text" text-anchor="middle">Tests: adrww=alloc/dealloc/realloc and write, adww=alloc/dealloc and write, aww=alloc and write</text>
  <text x="500.0" y="486" class="metadata" text-anchor="middle">Timestamp: 2026-06-01 00:50:21 UTC</text>
  <text x="500.0" y="500" class="metadata" text-anchor="middle">Source: https://github.com/zooko/smalloc · Commit: 9b4e999708317576d255d5b37b7a10b521e15731 · Tag: v7.6.9+b140dc6f0bfa37c175e5e7b315e8c59e1712808b</text>
  <text x="500.0" y="514" class="metadata" text-anchor="middle">Git Clean Status: clean</text>
  <text x="500.0" y="528" class="metadata" text-anchor="middle">CPU: AppleM4Max · OS: darwin25 · CPU count: 16</text>
</svg>
