<?xml version="1.0" encoding="UTF-8"?><svg xmlns="http://www.w3.org/2000/svg" viewBox="0 0 1000 550" width="1000" height="550">
  <rect width="1000" height="550" fill="white"/>
  <style>
    .title { font-family: sans-serif; font-size: 16px; font-weight: bold; fill: #333333; }
    .subtitle { font-family: sans-serif; font-size: 12px; fill: #666666; }
    .axis-label { font-family: sans-serif; font-size: 11px; fill: #666666; }
    .tick-label { font-family: sans-serif; font-size: 10px; fill: #333333; }
    .tick-label-minor { font-family: sans-serif; font-size: 9px; fill: #999999; }
    .test-label { font-family: sans-serif; font-size: 11px; fill: #333333; }
    .bar-label-value { font-family: sans-serif; font-size: 8px; fill: #333333; }
    .bar-label-pct { font-family: sans-serif; font-size: 8px; fill: white; }
    .legend-text { font-family: sans-serif; font-size: 10px; fill: #333333; }
    .metadata { font-family: sans-serif; font-size: 9px; fill: #666666; }
    .key-text { font-family: sans-serif; font-size: 9px; font-style: italic; fill: #666666; }
    .grid-line-major { stroke: #cccccc; stroke-width: 1; }
    .grid-line-minor { stroke: #e0e0e0; stroke-width: 0.5; stroke-dasharray: 4,3; }
  </style>
  <text x="500.0" y="30" class="title" text-anchor="middle">Single-Threaded Performance by Test</text>
  <text x="500.0" y="48" class="subtitle" text-anchor="middle">(Time vs baseline, lower is better, linear scale)</text>
  <text x="20" y="245.0" class="axis-label" text-anchor="middle" transform="rotate(-90 20 245.0)">Time vs Baseline (%, linear scale)</text>
  <line x1="80" y1="410.0" x2="820" y2="410.0" class="grid-line-major"/>
  <text x="72" y="413.0" class="tick-label" text-anchor="end">0%</text>
  <line x1="80" y1="355.0" x2="820" y2="355.0" class="grid-line-major"/>
  <text x="72" y="358.0" class="tick-label" text-anchor="end">20%</text>
  <line x1="80" y1="300.0" x2="820" y2="300.0" class="grid-line-major"/>
  <text x="72" y="303.0" class="tick-label" text-anchor="end">40%</text>
  <line x1="80" y1="245.0" x2="820" y2="245.0" class="grid-line-major"/>
  <text x="72" y="248.0" class="tick-label" text-anchor="end">60%</text>
  <line x1="80" y1="190.0" x2="820" y2="190.0" class="grid-line-major"/>
  <text x="72" y="193.0" class="tick-label" text-anchor="end">80%</text>
  <line x1="80" y1="135.0" x2="820" y2="135.0" class="grid-line-major"/>
  <text x="72" y="138.0" class="tick-label" text-anchor="end">100%</text>
  <line x1="80" y1="80.0" x2="820" y2="80.0" class="grid-line-major"/>
  <text x="72" y="83.0" class="tick-label" text-anchor="end">120%</text>
  <line x1="80" y1="135.0" x2="820" y2="135.0" class="grid-line-line"/>
  <line x1="80" y1="410" x2="820" y2="410" stroke="#333333" stroke-width="1"/>
  <path d="M 104.66666666666667 410.0 L 153.0 410.0 L 153.0 138.0 A 3 3 0 0 0 150.0 135.0 L 107.66666666666667 135.0 A 3 3 0 0 0 104.66666666666667 138.0 Z" fill="#78909c"/>
  <text x="128.83333333333334" y="130.0" class="bar-label-value" text-anchor="middle">67ns</text>
  <path d="M 154.0 410.0 L 202.33333333333334 410.0 L 202.33333333333334 283.44444444444446 A 3 3 0 0 0 199.33333333333334 280.44444444444446 L 157.0 280.44444444444446 A 3 3 0 0 0 154.0 283.44444444444446 Z" fill="#ffca28"/>
  <text x="178.16666666666666" y="275.44444444444446" class="bar-label-value" text-anchor="middle">31ns</text>
  <text x="178.16666666666666" y="294.44444444444446" class="bar-label-pct" text-anchor="middle">-53%</text>
  <path d="M 203.33333333333334 410.0 L 251.66666666666669 410.0 L 251.66666666666669 295.25925925925924 A 3 3 0 0 0 248.66666666666669 292.25925925925924 L 206.33333333333334 292.25925925925924 A 3 3 0 0 0 203.33333333333334 295.25925925925924 Z" fill="#ff7043"/>
  <text x="227.5" y="287.25925925925924" class="bar-label-value" text-anchor="middle">28ns</text>
  <text x="227.5" y="306.25925925925924" class="bar-label-pct" text-anchor="middle">-57%</text>
  <path d="M 252.66666666666669 410.0 L 301.0 410.0 L 301.0 316.03703703703707 A 3 3 0 0 0 298.0 313.03703703703707 L 255.66666666666669 313.03703703703707 A 3 3 0 0 0 252.66666666666669 316.03703703703707 Z" fill="#42a5f5"/>
  <text x="276.83333333333337" y="308.03703703703707" class="bar-label-value" text-anchor="middle">23ns</text>
  <text x="276.83333333333337" y="327.03703703703707" class="bar-label-pct" text-anchor="middle">-65%</text>
  <text x="203.33333333333334" y="430" class="test-label" text-anchor="middle">adrww-1</text>
  <path d="M 351.3333333333333 410.0 L 399.66666666666663 410.0 L 399.66666666666663 138.0 A 3 3 0 0 0 396.66666666666663 135.0 L 354.3333333333333 135.0 A 3 3 0 0 0 351.3333333333333 138.0 Z" fill="#78909c"/>
  <text x="375.5" y="130.0" class="bar-label-value" text-anchor="middle">50ns</text>
  <path d="M 400.66666666666663 410.0 L 448.99999999999994 410.0 L 448.99999999999994 289.0334645669292 A 3 3 0 0 0 445.99999999999994 286.0334645669292 L 403.66666666666663 286.0334645669292 A 3 3 0 0 0 400.66666666666663 289.0334645669292 Z" fill="#ffca28"/>
  <text x="424.8333333333333" y="281.0334645669292" class="bar-label-value" text-anchor="middle">22ns</text>
  <text x="424.8333333333333" y="300.0334645669292" class="bar-label-pct" text-anchor="middle">-55%</text>
  <path d="M 450.0 410.0 L 498.3333333333333 410.0 L 498.3333333333333 291.1988188976378 A 3 3 0 0 0 495.3333333333333 288.1988188976378 L 453.0 288.1988188976378 A 3 3 0 0 0 450.0 291.1988188976378 Z" fill="#ff7043"/>
  <text x="474.1666666666667" y="283.1988188976378" class="bar-label-value" text-anchor="middle">22ns</text>
  <text x="474.1666666666667" y="302.1988188976378" class="bar-label-pct" text-anchor="middle">-56%</text>
  <path d="M 499.3333333333333 410.0 L 547.6666666666666 410.0 L 547.6666666666666 293.90551181102364 A 3 3 0 0 0 544.6666666666666 290.90551181102364 L 502.3333333333333 290.90551181102364 A 3 3 0 0 0 499.3333333333333 293.90551181102364 Z" fill="#42a5f5"/>
  <text x="523.5" y="285.90551181102364" class="bar-label-value" text-anchor="middle">22ns</text>
  <text x="523.5" y="304.90551181102364" class="bar-label-pct" text-anchor="middle">-57%</text>
  <text x="450.0" y="430" class="test-label" text-anchor="middle">adww-1</text>
  <path d="M 597.9999999999999 410.0 L 646.3333333333333 410.0 L 646.3333333333333 138.0 A 3 3 0 0 0 643.3333333333333 135.0 L 600.9999999999999 135.0 A 3 3 0 0 0 597.9999999999999 138.0 Z" fill="#78909c"/>
  <text x="622.1666666666665" y="130.0" class="bar-label-value" text-anchor="middle">57ns</text>
  <path d="M 647.3333333333333 410.0 L 695.6666666666666 410.0 L 695.6666666666666 342.07894736842104 A 3 3 0 0 0 692.6666666666666 339.07894736842104 L 650.3333333333333 339.07894736842104 A 3 3 0 0 0 647.3333333333333 342.07894736842104 Z" fill="#ffca28"/>
  <text x="671.4999999999999" y="334.07894736842104" class="bar-label-value" text-anchor="middle">14ns</text>
  <text x="671.4999999999999" y="353.07894736842104" class="bar-label-pct" text-anchor="middle">-74%</text>
  <path d="M 696.6666666666665 410.0 L 744.9999999999999 410.0 L 744.9999999999999 348.35087719298247 A 3 3 0 0 0 741.9999999999999 345.35087719298247 L 699.6666666666665 345.35087719298247 A 3 3 0 0 0 696.6666666666665 348.35087719298247 Z" fill="#ff7043"/>
  <text x="720.8333333333331" y="340.35087719298247" class="bar-label-value" text-anchor="middle">13ns</text>
  <text x="720.8333333333331" y="359.35087719298247" class="bar-label-pct" text-anchor="middle">-76%</text>
  <path d="M 745.9999999999999 410.0 L 794.3333333333333 410.0 L 794.3333333333333 330.9824561403509 A 3 3 0 0 0 791.3333333333333 327.9824561403509 L 748.9999999999999 327.9824561403509 A 3 3 0 0 0 745.9999999999999 330.9824561403509 Z" fill="#42a5f5"/>
  <text x="770.1666666666665" y="322.9824561403509" class="bar-label-value" text-anchor="middle">17ns</text>
  <text x="770.1666666666665" y="341.9824561403509" class="bar-label-pct" text-anchor="middle">-70%</text>
  <text x="696.6666666666665" y="430" class="test-label" text-anchor="middle">aww-1</text>
  <rect x="840" y="90" width="12" height="12" fill="#78909c" rx="2"/>
  <text x="858" y="100" class="legend-text">default</text>
  <rect x="840" y="110" width="12" height="12" fill="#ffca28" rx="2"/>
  <text x="858" y="120" class="legend-text">mimalloc</text>
  <rect x="840" y="130" width="12" height="12" fill="#ff7043" rx="2"/>
  <text x="858" y="140" class="legend-text">rpmalloc</text>
  <rect x="840" y="150" width="12" height="12" fill="#42a5f5" rx="2"/>
  <text x="858" y="160" class="legend-text">smalloc</text>
  <text x="500.0" y="475" class="key-text" text-anchor="middle">Tests: adrww=alloc/dealloc/realloc and write, adww=alloc/dealloc and write, aww=alloc and write</text>
  <text x="500.0" y="500" class="metadata" text-anchor="middle">Commit: 307a50c929a3 · Git status: &quot;&quot;Clean&quot;&quot;</text>
  <text x="500.0" y="515" class="metadata" text-anchor="middle">CPU: AMD Ryzen 9 3900X 12-Core Processor             · OS: msys · CPU Count: 24</text>
</svg>
