<?xml version="1.0" encoding="UTF-8"?><svg xmlns="http://www.w3.org/2000/svg" viewBox="0 0 1000 550" width="1000" height="550">
  <rect width="1000" height="550" fill="white"/>
  <style>
    .title { font-family: sans-serif; font-size: 16px; font-weight: bold; fill: #333333; }
    .subtitle { font-family: sans-serif; font-size: 12px; fill: #666666; }
    .axis-label { font-family: sans-serif; font-size: 11px; fill: #666666; }
    .tick-label { font-family: sans-serif; font-size: 10px; fill: #333333; }
    .tick-label-minor { font-family: sans-serif; font-size: 9px; fill: #999999; }
    .test-label { font-family: sans-serif; font-size: 11px; fill: #333333; }
    .bar-label-value { font-family: sans-serif; font-size: 8px; fill: #333333; }
    .bar-label-pct { font-family: sans-serif; font-size: 8px; fill: white; }
    .legend-text { font-family: sans-serif; font-size: 10px; fill: #333333; }
    .metadata { font-family: sans-serif; font-size: 9px; fill: #666666; }
    .key-text { font-family: sans-serif; font-size: 9px; font-style: italic; fill: #666666; }
    .grid-line-major { stroke: #cccccc; stroke-width: 1; }
    .grid-line-minor { stroke: #e0e0e0; stroke-width: 0.5; stroke-dasharray: 4,3; }
  </style>
  <text x="500.0" y="30" class="title" text-anchor="middle">Multi-Threaded Performance by Test</text>
  <text x="500.0" y="48" class="subtitle" text-anchor="middle">(Time vs baseline, lower is better, log scale)</text>
  <text x="20" y="245.0" class="axis-label" text-anchor="middle" transform="rotate(-90 20 245.0)">Time vs Baseline (%, log scale)</text>
  <line x1="80" y1="270.15174339893105" x2="820" y2="270.15174339893105" class="grid-line-minor"/>
  <text x="72" y="273.15174339893105" class="tick-label-minor" text-anchor="end">20%</text>
  <line x1="80" y1="177.06803921467565" x2="820" y2="177.06803921467565" class="grid-line-minor"/>
  <text x="72" y="180.06803921467565" class="tick-label-minor" text-anchor="end">50%</text>
  <line x1="80" y1="80.0" x2="820" y2="80.0" class="grid-line-minor"/>
  <text x="72" y="83.0" class="tick-label-minor" text-anchor="end">130%</text>
  <line x1="80" y1="340.5668473249784" x2="820" y2="340.5668473249784" class="grid-line-major"/>
  <text x="72" y="343.5668473249784" class="tick-label" text-anchor="end">10%</text>
  <line x1="80" y1="106.6529352886283" x2="820" y2="106.6529352886283" class="grid-line-major"/>
  <text x="72" y="109.6529352886283" class="tick-label" text-anchor="end">100%</text>
  <line x1="80" y1="106.6529352886283" x2="820" y2="106.6529352886283" class="grid-line-line"/>
  <line x1="80" y1="410" x2="820" y2="410" stroke="#333333" stroke-width="1"/>
  <path d="M 104.66666666666667 410.0 L 153.0 410.0 L 153.0 109.6529352886283 A 3 3 0 0 0 150.0 106.6529352886283 L 107.66666666666667 106.6529352886283 A 3 3 0 0 0 104.66666666666667 109.6529352886283 Z" fill="#78909c"/>
  <text x="128.83333333333334" y="101.6529352886283" class="bar-label-value" text-anchor="middle">3μs</text>
  <path d="M 154.0 410.0 L 202.33333333333334 410.0 L 202.33333333333334 354.4370122603836 A 3 3 0 0 0 199.33333333333334 351.4370122603836 L 157.0 351.4370122603836 A 3 3 0 0 0 154.0 354.4370122603836 Z" fill="#ffca28"/>
  <text x="178.16666666666666" y="346.4370122603836" class="bar-label-value" text-anchor="middle">291ns</text>
  <text x="178.16666666666666" y="365.4370122603836" class="bar-label-pct" text-anchor="middle">-91%</text>
  <path d="M 203.33333333333334 410.0 L 251.66666666666669 410.0 L 251.66666666666669 370.20725370522734 A 3 3 0 0 0 248.66666666666669 367.20725370522734 L 206.33333333333334 367.20725370522734 A 3 3 0 0 0 203.33333333333334 370.20725370522734 Z" fill="#ff7043"/>
  <text x="227.5" y="362.20725370522734" class="bar-label-value" text-anchor="middle">249ns</text>
  <text x="227.5" y="381.20725370522734" class="bar-label-pct" text-anchor="middle">-92%</text>
  <path d="M 252.66666666666669 410.0 L 301.0 410.0 L 301.0 376.7662765576367 A 3 3 0 0 0 298.0 373.7662765576367 L 255.66666666666669 373.7662765576367 A 3 3 0 0 0 252.66666666666669 376.7662765576367 Z" fill="#42a5f5"/>
  <text x="276.83333333333337" y="368.7662765576367" class="bar-label-value" text-anchor="middle">233ns</text>
  <text x="276.83333333333337" y="387.7662765576367" class="bar-label-pct" text-anchor="middle">-93%</text>
  <text x="203.33333333333334" y="430" class="test-label" text-anchor="middle">adrww-64</text>
  <path d="M 351.3333333333333 410.0 L 399.66666666666663 410.0 L 399.66666666666663 109.6529352886283 A 3 3 0 0 0 396.66666666666663 106.6529352886283 L 354.3333333333333 106.6529352886283 A 3 3 0 0 0 351.3333333333333 109.6529352886283 Z" fill="#78909c"/>
  <text x="375.5" y="101.6529352886283" class="bar-label-value" text-anchor="middle">2μs</text>
  <path d="M 400.66666666666663 410.0 L 448.99999999999994 410.0 L 448.99999999999994 328.2624300326394 A 3 3 0 0 0 445.99999999999994 325.2624300326394 L 403.66666666666663 325.2624300326394 A 3 3 0 0 0 400.66666666666663 328.2624300326394 Z" fill="#ffca28"/>
  <text x="424.8333333333333" y="320.2624300326394" class="bar-label-value" text-anchor="middle">273ns</text>
  <text x="424.8333333333333" y="339.2624300326394" class="bar-label-pct" text-anchor="middle">-88%</text>
  <path d="M 450.0 410.0 L 498.3333333333333 410.0 L 498.3333333333333 344.35728048915985 A 3 3 0 0 0 495.3333333333333 341.35728048915985 L 453.0 341.35728048915985 A 3 3 0 0 0 450.0 344.35728048915985 Z" fill="#ff7043"/>
  <text x="474.1666666666667" y="336.35728048915985" class="bar-label-value" text-anchor="middle">233ns</text>
  <text x="474.1666666666667" y="355.35728048915985" class="bar-label-pct" text-anchor="middle">-90%</text>
  <path d="M 499.3333333333333 410.0 L 547.6666666666666 410.0 L 547.6666666666666 347.7261108294333 A 3 3 0 0 0 544.6666666666666 344.7261108294333 L 502.3333333333333 344.7261108294333 A 3 3 0 0 0 499.3333333333333 347.7261108294333 Z" fill="#42a5f5"/>
  <text x="523.5" y="339.7261108294333" class="bar-label-value" text-anchor="middle">225ns</text>
  <text x="523.5" y="358.7261108294333" class="bar-label-pct" text-anchor="middle">-90%</text>
  <text x="450.0" y="430" class="test-label" text-anchor="middle">adww-64</text>
  <path d="M 597.9999999999999 410.0 L 646.3333333333333 410.0 L 646.3333333333333 109.6529352886283 A 3 3 0 0 0 643.3333333333333 106.6529352886283 L 600.9999999999999 106.6529352886283 A 3 3 0 0 0 597.9999999999999 109.6529352886283 Z" fill="#78909c"/>
  <text x="622.1666666666665" y="101.6529352886283" class="bar-label-value" text-anchor="middle">12μs</text>
  <path d="M 647.3333333333333 410.0 L 695.6666666666666 410.0 L 695.6666666666666 284.01978449803863 A 3 3 0 0 0 692.6666666666666 281.01978449803863 L 650.3333333333333 281.01978449803863 A 3 3 0 0 0 647.3333333333333 284.01978449803863 Z" fill="#ffca28"/>
  <text x="671.4999999999999" y="276.01978449803863" class="bar-label-value" text-anchor="middle">2μs</text>
  <text x="671.4999999999999" y="295.01978449803863" class="bar-label-pct" text-anchor="middle">-82%</text>
  <path d="M 696.6666666666665 410.0 L 744.9999999999999 410.0 L 744.9999999999999 284.1645025334467 A 3 3 0 0 0 741.9999999999999 281.1645025334467 L 699.6666666666665 281.1645025334467 A 3 3 0 0 0 696.6666666666665 284.1645025334467 Z" fill="#ff7043"/>
  <text x="720.8333333333331" y="276.1645025334467" class="bar-label-value" text-anchor="middle">2μs</text>
  <text x="720.8333333333331" y="295.1645025334467" class="bar-label-pct" text-anchor="middle">-82%</text>
  <path d="M 745.9999999999999 410.0 L 794.3333333333333 410.0 L 794.3333333333333 300.9567117337832 A 3 3 0 0 0 791.3333333333333 297.9567117337832 L 748.9999999999999 297.9567117337832 A 3 3 0 0 0 745.9999999999999 300.9567117337832 Z" fill="#42a5f5"/>
  <text x="770.1666666666665" y="292.9567117337832" class="bar-label-value" text-anchor="middle">1μs</text>
  <text x="770.1666666666665" y="311.9567117337832" class="bar-label-pct" text-anchor="middle">-85%</text>
  <text x="696.6666666666665" y="430" class="test-label" text-anchor="middle">aww-64</text>
  <rect x="840" y="90" width="12" height="12" fill="#78909c" rx="2"/>
  <text x="858" y="100" class="legend-text">default</text>
  <rect x="840" y="110" width="12" height="12" fill="#ffca28" rx="2"/>
  <text x="858" y="120" class="legend-text">mimalloc</text>
  <rect x="840" y="130" width="12" height="12" fill="#ff7043" rx="2"/>
  <text x="858" y="140" class="legend-text">rpmalloc</text>
  <rect x="840" y="150" width="12" height="12" fill="#42a5f5" rx="2"/>
  <text x="858" y="160" class="legend-text">smalloc</text>
  <text x="500.0" y="475" class="key-text" text-anchor="middle">Tests: adrww=alloc/dealloc/realloc and write, adww=alloc/dealloc and write, aww=alloc and write</text>
  <text x="500.0" y="500" class="metadata" text-anchor="middle">Commit: b0f45f8c5aaf · Git status: &quot;&quot;Uncommitted changes&quot;&quot;</text>
  <text x="500.0" y="515" class="metadata" text-anchor="middle">CPU: AMD Ryzen 9 3900X 12-Core Processor             · OS: msys · CPU Count: 24</text>
</svg>
