<?xml version="1.0" encoding="UTF-8"?><svg xmlns="http://www.w3.org/2000/svg" viewBox="0 0 1000 550" width="1000" height="550">
  <rect width="1000" height="550" fill="white"/>
  <style>
    .title { font-family: sans-serif; font-size: 16px; font-weight: bold; fill: #333333; }
    .subtitle { font-family: sans-serif; font-size: 12px; fill: #666666; }
    .axis-label { font-family: sans-serif; font-size: 11px; fill: #666666; }
    .tick-label { font-family: sans-serif; font-size: 10px; fill: #333333; }
    .tick-label-minor { font-family: sans-serif; font-size: 9px; fill: #999999; }
    .test-label { font-family: sans-serif; font-size: 11px; fill: #333333; }
    .bar-label-value { font-family: sans-serif; font-size: 8px; fill: #333333; }
    .bar-label-pct { font-family: sans-serif; font-size: 8px; fill: white; }
    .legend-text { font-family: sans-serif; font-size: 10px; fill: #333333; }
    .metadata { font-family: sans-serif; font-size: 9px; fill: #666666; }
    .key-text { font-family: sans-serif; font-size: 9px; font-style: italic; fill: #666666; }
    .grid-line-major { stroke: #cccccc; stroke-width: 1; }
    .grid-line-minor { stroke: #e0e0e0; stroke-width: 0.5; stroke-dasharray: 4,3; }
  </style>
  <text x="500.0" y="30" class="title" text-anchor="middle">Multi-Threaded Performance by Test</text>
  <text x="500.0" y="48" class="subtitle" text-anchor="middle">(Time vs baseline, lower is better, log scale)</text>
  <text x="20" y="245.0" class="axis-label" text-anchor="middle" transform="rotate(-90 20 245.0)">Time vs Baseline (%, log scale)</text>
  <line x1="80" y1="274.44364460506654" x2="820" y2="274.44364460506654" class="grid-line-minor"/>
  <text x="72" y="277.44364460506654" class="tick-label-minor" text-anchor="end">20%</text>
  <line x1="80" y1="179.258954886212" x2="820" y2="179.258954886212" class="grid-line-minor"/>
  <text x="72" y="182.258954886212" class="tick-label-minor" text-anchor="end">50%</text>
  <line x1="80" y1="80.0" x2="820" y2="80.0" class="grid-line-minor"/>
  <text x="72" y="83.0" class="tick-label-minor" text-anchor="end">130%</text>
  <line x1="80" y1="346.44808273372655" x2="820" y2="346.44808273372655" class="grid-line-major"/>
  <text x="72" y="349.44808273372655" class="tick-label" text-anchor="end">10%</text>
  <line x1="80" y1="107.25451675755193" x2="820" y2="107.25451675755193" class="grid-line-major"/>
  <text x="72" y="110.25451675755193" class="tick-label" text-anchor="end">100%</text>
  <line x1="80" y1="107.25451675755193" x2="820" y2="107.25451675755193" class="grid-line-line"/>
  <line x1="80" y1="410" x2="820" y2="410" stroke="#333333" stroke-width="1"/>
  <path d="M 104.66666666666667 410.0 L 153.0 410.0 L 153.0 110.25451675755193 A 3 3 0 0 0 150.0 107.25451675755193 L 107.66666666666667 107.25451675755193 A 3 3 0 0 0 104.66666666666667 110.25451675755193 Z" fill="#78909c"/>
  <text x="128.83333333333334" y="102.25451675755193" class="bar-label-value" text-anchor="middle">2μs</text>
  <path d="M 154.0 410.0 L 202.33333333333334 410.0 L 202.33333333333334 353.4669971231623 A 3 3 0 0 0 199.33333333333334 350.4669971231623 L 157.0 350.4669971231623 A 3 3 0 0 0 154.0 353.4669971231623 Z" fill="#ffca28"/>
  <text x="178.16666666666666" y="345.4669971231623" class="bar-label-value" text-anchor="middle">285ns</text>
  <text x="178.16666666666666" y="364.4669971231623" class="bar-label-pct" text-anchor="middle">-90%</text>
  <path d="M 203.33333333333334 410.0 L 251.66666666666669 410.0 L 251.66666666666669 368.7844525702443 A 3 3 0 0 0 248.66666666666669 365.7844525702443 L 206.33333333333334 365.7844525702443 A 3 3 0 0 0 203.33333333333334 368.7844525702443 Z" fill="#ff7043"/>
  <text x="227.5" y="360.7844525702443" class="bar-label-value" text-anchor="middle">246ns</text>
  <text x="227.5" y="379.7844525702443" class="bar-label-pct" text-anchor="middle">-92%</text>
  <path d="M 252.66666666666669 410.0 L 301.0 410.0 L 301.0 375.9484478143114 A 3 3 0 0 0 298.0 372.9484478143114 L 255.66666666666669 372.9484478143114 A 3 3 0 0 0 252.66666666666669 375.9484478143114 Z" fill="#42a5f5"/>
  <text x="276.83333333333337" y="367.9484478143114" class="bar-label-value" text-anchor="middle">229ns</text>
  <text x="276.83333333333337" y="386.9484478143114" class="bar-label-pct" text-anchor="middle">-92%</text>
  <text x="203.33333333333334" y="430" class="test-label" text-anchor="middle">adrww-64</text>
  <path d="M 351.3333333333333 410.0 L 399.66666666666663 410.0 L 399.66666666666663 110.25451675755193 A 3 3 0 0 0 396.66666666666663 107.25451675755193 L 354.3333333333333 107.25451675755193 A 3 3 0 0 0 351.3333333333333 110.25451675755193 Z" fill="#78909c"/>
  <text x="375.5" y="102.25451675755193" class="bar-label-value" text-anchor="middle">2μs</text>
  <path d="M 400.66666666666663 410.0 L 448.99999999999994 410.0 L 448.99999999999994 333.0915672842423 A 3 3 0 0 0 445.99999999999994 330.0915672842423 L 403.66666666666663 330.0915672842423 A 3 3 0 0 0 400.66666666666663 333.0915672842423 Z" fill="#ffca28"/>
  <text x="424.8333333333333" y="325.0915672842423" class="bar-label-value" text-anchor="middle">272ns</text>
  <text x="424.8333333333333" y="344.0915672842423" class="bar-label-pct" text-anchor="middle">-88%</text>
  <path d="M 450.0 410.0 L 498.3333333333333 410.0 L 498.3333333333333 349.64027602779174 A 3 3 0 0 0 495.3333333333333 346.64027602779174 L 453.0 346.64027602779174 A 3 3 0 0 0 450.0 349.64027602779174 Z" fill="#ff7043"/>
  <text x="474.1666666666667" y="341.64027602779174" class="bar-label-value" text-anchor="middle">232ns</text>
  <text x="474.1666666666667" y="360.64027602779174" class="bar-label-pct" text-anchor="middle">-90%</text>
  <path d="M 499.3333333333333 410.0 L 547.6666666666666 410.0 L 547.6666666666666 352.58968968494565 A 3 3 0 0 0 544.6666666666666 349.58968968494565 L 502.3333333333333 349.58968968494565 A 3 3 0 0 0 499.3333333333333 352.58968968494565 Z" fill="#42a5f5"/>
  <text x="523.5" y="344.58968968494565" class="bar-label-value" text-anchor="middle">225ns</text>
  <text x="523.5" y="363.58968968494565" class="bar-label-pct" text-anchor="middle">-90%</text>
  <text x="450.0" y="430" class="test-label" text-anchor="middle">adww-64</text>
  <path d="M 597.9999999999999 410.0 L 646.3333333333333 410.0 L 646.3333333333333 110.25451675755193 A 3 3 0 0 0 643.3333333333333 107.25451675755193 L 600.9999999999999 107.25451675755193 A 3 3 0 0 0 597.9999999999999 110.25451675755193 Z" fill="#78909c"/>
  <text x="622.1666666666665" y="102.25451675755193" class="bar-label-value" text-anchor="middle">11μs</text>
  <path d="M 647.3333333333333 410.0 L 695.6666666666666 410.0 L 695.6666666666666 283.29178999702503 A 3 3 0 0 0 692.6666666666666 280.29178999702503 L 650.3333333333333 280.29178999702503 A 3 3 0 0 0 647.3333333333333 283.29178999702503 Z" fill="#ffca28"/>
  <text x="671.4999999999999" y="275.29178999702503" class="bar-label-value" text-anchor="middle">2μs</text>
  <text x="671.4999999999999" y="294.29178999702503" class="bar-label-pct" text-anchor="middle">-81%</text>
  <path d="M 696.6666666666665 410.0 L 744.9999999999999 410.0 L 744.9999999999999 277.2251933976361 A 3 3 0 0 0 741.9999999999999 274.2251933976361 L 699.6666666666665 274.2251933976361 A 3 3 0 0 0 696.6666666666665 277.2251933976361 Z" fill="#ff7043"/>
  <text x="720.8333333333331" y="269.2251933976361" class="bar-label-value" text-anchor="middle">2μs</text>
  <text x="720.8333333333331" y="288.2251933976361" class="bar-label-pct" text-anchor="middle">-80%</text>
  <path d="M 745.9999999999999 410.0 L 794.3333333333333 410.0 L 794.3333333333333 299.4121908762779 A 3 3 0 0 0 791.3333333333333 296.4121908762779 L 748.9999999999999 296.4121908762779 A 3 3 0 0 0 745.9999999999999 299.4121908762779 Z" fill="#42a5f5"/>
  <text x="770.1666666666665" y="291.4121908762779" class="bar-label-value" text-anchor="middle">1μs</text>
  <text x="770.1666666666665" y="310.4121908762779" class="bar-label-pct" text-anchor="middle">-84%</text>
  <text x="696.6666666666665" y="430" class="test-label" text-anchor="middle">aww-64</text>
  <rect x="840" y="90" width="12" height="12" fill="#78909c" rx="2"/>
  <text x="858" y="100" class="legend-text">default</text>
  <rect x="840" y="110" width="12" height="12" fill="#ffca28" rx="2"/>
  <text x="858" y="120" class="legend-text">mimalloc</text>
  <rect x="840" y="130" width="12" height="12" fill="#ff7043" rx="2"/>
  <text x="858" y="140" class="legend-text">rpmalloc</text>
  <rect x="840" y="150" width="12" height="12" fill="#42a5f5" rx="2"/>
  <text x="858" y="160" class="legend-text">smalloc</text>
  <text x="500.0" y="475" class="key-text" text-anchor="middle">Tests: adrww=alloc/dealloc/realloc and write, adww=alloc/dealloc and write, aww=alloc and write</text>
  <text x="500.0" y="500" class="metadata" text-anchor="middle">Commit: 307a50c929a3 · Git status: &quot;&quot;Clean&quot;&quot;</text>
  <text x="500.0" y="515" class="metadata" text-anchor="middle">CPU: AMD Ryzen 9 3900X 12-Core Processor             · OS: msys · CPU Count: 24</text>
</svg>
