<?xml version="1.0" encoding="UTF-8"?>
<svg xmlns="http://www.w3.org/2000/svg" viewBox="0 0 800 450" width="800" height="450">
  <rect width="800" height="450" fill="white"/>
  <style>
    .title { font-family: Arial, Helvetica, sans-serif; font-size: 18px; font-weight: bold; fill: #333333; }
    .axis-label { font-family: Arial, Helvetica, sans-serif; font-size: 12px; fill: #666666; }
    .tick-label { font-family: Arial, Helvetica, sans-serif; font-size: 11px; fill: #666666; }
    .bar-label-name { font-family: Arial, Helvetica, sans-serif; font-size: 12px; fill: #333333; }
    .bar-label-value { font-family: monospace; font-size: 11px; fill: #555555; }
    .bar-label-pct { font-family: Arial, Helvetica, sans-serif; font-size: 12px; font-weight: bold; fill: white; }
    .metadata { font-family: monospace; font-size: 10px; fill: #666666; }
    .grid-line { stroke: #cccccc; stroke-width: 0.5; }
  </style>
  <text x="400.0" y="35" class="title" text-anchor="middle">Performance of simd-json with different allocators—time (lower is better)</text>
  <text x="20" y="205.0" class="axis-label" text-anchor="middle" transform="rotate(-90 20 205.0)">Time vs Baseline (%, baseline = 442.52ms)</text>
  <line x1="80" y1="350.0" x2="760" y2="350.0" class="grid-line"/>
  <text x="70" y="354.0" class="tick-label" text-anchor="end">0%</text>
  <line x1="80" y1="299.5652173913044" x2="760" y2="299.5652173913044" class="grid-line"/>
  <text x="70" y="303.5652173913044" class="tick-label" text-anchor="end">20%</text>
  <line x1="80" y1="249.1304347826087" x2="760" y2="249.1304347826087" class="grid-line"/>
  <text x="70" y="253.1304347826087" class="tick-label" text-anchor="end">40%</text>
  <line x1="80" y1="198.69565217391306" x2="760" y2="198.69565217391306" class="grid-line"/>
  <text x="70" y="202.69565217391306" class="tick-label" text-anchor="end">60%</text>
  <line x1="80" y1="148.2608695652174" x2="760" y2="148.2608695652174" class="grid-line"/>
  <text x="70" y="152.2608695652174" class="tick-label" text-anchor="end">80%</text>
  <line x1="80" y1="97.82608695652175" x2="760" y2="97.82608695652175" class="grid-line"/>
  <text x="70" y="101.82608695652175" class="tick-label" text-anchor="end">100%</text>
  <path d="M 97.0 350.0 L 176.33333333333331 350.0 L 176.33333333333331 105.82608695652175 A 8 8 0 0 0 168.33333333333331 97.82608695652175 L 105.0 97.82608695652175 A 8 8 0 0 0 97.0 105.82608695652175 Z" fill="#78909c"/>
  <text x="136.66666666666666" y="370" class="bar-label-name" text-anchor="middle">default</text>
  <text x="136.66666666666666" y="89.82608695652175" class="bar-label-value" text-anchor="middle">442.52ms</text>
  <text x="136.66666666666666" y="115.82608695652175" class="bar-label-pct" text-anchor="middle">baseline</text>
  <path d="M 210.33333333333331 350.0 L 289.66666666666663 350.0 L 289.66666666666663 152.5052280412746 A 8 8 0 0 0 281.66666666666663 144.5052280412746 L 218.33333333333331 144.5052280412746 A 8 8 0 0 0 210.33333333333331 152.5052280412746 Z" fill="#66bb6a"/>
  <text x="249.99999999999997" y="370" class="bar-label-name" text-anchor="middle">jemalloc</text>
  <text x="249.99999999999997" y="136.5052280412746" class="bar-label-value" text-anchor="middle">360.61ms</text>
  <text x="249.99999999999997" y="162.5052280412746" class="bar-label-pct" text-anchor="middle">-19%</text>
  <path d="M 323.66666666666663 350.0 L 402.99999999999994 350.0 L 402.99999999999994 163.19334113351263 A 8 8 0 0 0 394.99999999999994 155.19334113351263 L 331.66666666666663 155.19334113351263 A 8 8 0 0 0 323.66666666666663 163.19334113351263 Z" fill="#ab47bc"/>
  <text x="363.3333333333333" y="370" class="bar-label-name" text-anchor="middle">snmalloc</text>
  <text x="363.3333333333333" y="147.19334113351263" class="bar-label-value" text-anchor="middle">341.85ms</text>
  <text x="363.3333333333333" y="173.19334113351263" class="bar-label-pct" text-anchor="middle">-23%</text>
  <path d="M 437.0 350.0 L 516.3333333333334 350.0 L 516.3333333333334 174.0594764230335 A 8 8 0 0 0 508.33333333333337 166.0594764230335 L 445.0 166.0594764230335 A 8 8 0 0 0 437.0 174.0594764230335 Z" fill="#ffca28"/>
  <text x="476.6666666666667" y="370" class="bar-label-name" text-anchor="middle">mimalloc</text>
  <text x="476.6666666666667" y="158.0594764230335" class="bar-label-value" text-anchor="middle">322.79ms</text>
  <text x="476.6666666666667" y="184.0594764230335" class="bar-label-pct" text-anchor="middle">-27%</text>
  <path d="M 550.3333333333333 350.0 L 629.6666666666666 350.0 L 629.6666666666666 168.28441126963276 A 8 8 0 0 0 621.6666666666666 160.28441126963276 L 558.3333333333333 160.28441126963276 A 8 8 0 0 0 550.3333333333333 168.28441126963276 Z" fill="#ff7043"/>
  <text x="589.9999999999999" y="370" class="bar-label-name" text-anchor="middle">rpmalloc</text>
  <text x="589.9999999999999" y="152.28441126963276" class="bar-label-value" text-anchor="middle">332.92ms</text>
  <text x="589.9999999999999" y="178.28441126963276" class="bar-label-pct" text-anchor="middle">-25%</text>
  <path d="M 663.6666666666666 350.0 L 743.0 350.0 L 743.0 170.29559481915246 A 8 8 0 0 0 735.0 162.29559481915246 L 671.6666666666666 162.29559481915246 A 8 8 0 0 0 663.6666666666666 170.29559481915246 Z" fill="#42a5f5"/>
  <text x="703.3333333333333" y="370" class="bar-label-name" text-anchor="middle">smalloc</text>
  <text x="703.3333333333333" y="154.29559481915246" class="bar-label-value" text-anchor="middle">329.39ms</text>
  <text x="703.3333333333333" y="180.29559481915246" class="bar-label-pct" text-anchor="middle">-26%</text>
  <text x="400.0" y="415" class="metadata" text-anchor="middle">Source: https://github.com/zooko/simd-json · Commit: f49aea298b5d · Git status: &quot;Clean&quot;</text>
  <text x="400.0" y="430" class="metadata" text-anchor="middle">CPU:                           AMD EPYC 9754 128-Core Processor · OS: linux-gnu · CPU Count: 256</text>
</svg>