<?xml version="1.0" encoding="UTF-8"?><svg xmlns="http://www.w3.org/2000/svg" viewBox="0 0 1000 550" width="1000" height="550">
  <rect width="1000" height="550" fill="white"/>
  <style>
    .title { font-family: sans-serif; font-size: 16px; font-weight: bold; fill: #333333; }
    .subtitle { font-family: sans-serif; font-size: 12px; fill: #666666; }
    .axis-label { font-family: sans-serif; font-size: 11px; fill: #666666; }
    .tick-label { font-family: sans-serif; font-size: 10px; fill: #333333; }
    .tick-label-minor { font-family: sans-serif; font-size: 9px; fill: #999999; }
    .test-label { font-family: sans-serif; font-size: 11px; fill: #333333; }
    .bar-label-value { font-family: sans-serif; font-size: 8px; fill: #333333; }
    .bar-label-pct { font-family: sans-serif; font-size: 8px; fill: white; }
    .legend-text { font-family: sans-serif; font-size: 10px; fill: #333333; }
    .metadata { font-family: sans-serif; font-size: 9px; fill: #666666; }
    .key-text { font-family: sans-serif; font-size: 9px; font-style: italic; fill: #666666; }
    .grid-line-major { stroke: #cccccc; stroke-width: 1; }
    .grid-line-minor { stroke: #e0e0e0; stroke-width: 0.5; stroke-dasharray: 4,3; }
  </style>
  <text x="500.0" y="30" class="title" text-anchor="middle">Multi-Threaded Performance by Test</text>
  <text x="500.0" y="48" class="subtitle" text-anchor="middle">(Time vs baseline, lower is better, linear scale)</text>
  <text x="20" y="245.0" class="axis-label" text-anchor="middle" transform="rotate(-90 20 245.0)">Time vs Baseline (%, linear scale)</text>
  <line x1="80" y1="410.0" x2="820" y2="410.0" class="grid-line-major"/>
  <text x="72" y="413.0" class="tick-label" text-anchor="end">0%</text>
  <line x1="80" y1="315.7142857142857" x2="820" y2="315.7142857142857" class="grid-line-major"/>
  <text x="72" y="318.7142857142857" class="tick-label" text-anchor="end">100%</text>
  <line x1="80" y1="221.42857142857144" x2="820" y2="221.42857142857144" class="grid-line-major"/>
  <text x="72" y="224.42857142857144" class="tick-label" text-anchor="end">200%</text>
  <line x1="80" y1="127.14285714285717" x2="820" y2="127.14285714285717" class="grid-line-major"/>
  <text x="72" y="130.14285714285717" class="tick-label" text-anchor="end">300%</text>
  <line x1="80" y1="315.7142857142857" x2="820" y2="315.7142857142857" class="grid-line-line"/>
  <line x1="80" y1="410" x2="820" y2="410" stroke="#333333" stroke-width="1"/>
  <path d="M 104.66666666666667 410.0 L 136.55555555555557 410.0 L 136.55555555555557 318.7142857142857 A 3 3 0 0 0 133.55555555555557 315.7142857142857 L 107.66666666666667 315.7142857142857 A 3 3 0 0 0 104.66666666666667 318.7142857142857 Z" fill="#78909c"/>
  <text x="120.61111111111111" y="310.7142857142857" class="bar-label-value" text-anchor="middle">93ns</text>
  <path d="M 137.55555555555557 410.0 L 169.44444444444446 410.0 L 169.44444444444446 296.35164835164835 A 3 3 0 0 0 166.44444444444446 293.35164835164835 L 140.55555555555557 293.35164835164835 A 3 3 0 0 0 137.55555555555557 296.35164835164835 Z" fill="#66bb6a"/>
  <text x="153.50000000000003" y="288.35164835164835" class="bar-label-value" text-anchor="middle">115ns</text>
  <text x="153.50000000000003" y="307.35164835164835" class="bar-label-pct" text-anchor="middle">+24%</text>
  <path d="M 170.44444444444446 410.0 L 202.33333333333334 410.0 L 202.33333333333334 338.55860805860806 A 3 3 0 0 0 199.33333333333334 335.55860805860806 L 173.44444444444446 335.55860805860806 A 3 3 0 0 0 170.44444444444446 338.55860805860806 Z" fill="#ab47bc"/>
  <text x="186.3888888888889" y="330.55860805860806" class="bar-label-value" text-anchor="middle">73ns</text>
  <text x="186.3888888888889" y="349.55860805860806" class="bar-label-pct" text-anchor="middle">-21%</text>
  <path d="M 203.33333333333337 410.0 L 235.22222222222226 410.0 L 235.22222222222226 266.03113553113553 A 3 3 0 0 0 232.22222222222226 263.03113553113553 L 206.33333333333337 263.03113553113553 A 3 3 0 0 0 203.33333333333337 266.03113553113553 Z" fill="#ffca28"/>
  <text x="219.27777777777783" y="258.03113553113553" class="bar-label-value" text-anchor="middle">145ns</text>
  <text x="219.27777777777783" y="277.03113553113553" class="bar-label-pct" text-anchor="middle">+56%</text>
  <path d="M 236.22222222222223 410.0 L 268.11111111111114 410.0 L 268.11111111111114 345.00549450549454 A 3 3 0 0 0 265.11111111111114 342.00549450549454 L 239.22222222222223 342.00549450549454 A 3 3 0 0 0 236.22222222222223 345.00549450549454 Z" fill="#ff7043"/>
  <text x="252.16666666666669" y="337.00549450549454" class="bar-label-value" text-anchor="middle">67ns</text>
  <text x="252.16666666666669" y="356.00549450549454" class="bar-label-pct" text-anchor="middle">-28%</text>
  <path d="M 269.11111111111114 410.0 L 301.00000000000006 410.0 L 301.00000000000006 343.1923076923077 A 3 3 0 0 0 298.00000000000006 340.1923076923077 L 272.11111111111114 340.1923076923077 A 3 3 0 0 0 269.11111111111114 343.1923076923077 Z" fill="#42a5f5"/>
  <text x="285.0555555555556" y="335.1923076923077" class="bar-label-value" text-anchor="middle">69ns</text>
  <text x="285.0555555555556" y="354.1923076923077" class="bar-label-pct" text-anchor="middle">-26%</text>
  <text x="203.33333333333337" y="430" class="test-label" text-anchor="middle">adrww-64</text>
  <path d="M 351.3333333333333 410.0 L 383.22222222222223 410.0 L 383.22222222222223 318.7142857142857 A 3 3 0 0 0 380.22222222222223 315.7142857142857 L 354.3333333333333 315.7142857142857 A 3 3 0 0 0 351.3333333333333 318.7142857142857 Z" fill="#78909c"/>
  <text x="367.27777777777777" y="310.7142857142857" class="bar-label-value" text-anchor="middle">102ns</text>
  <path d="M 384.22222222222223 410.0 L 416.11111111111114 410.0 L 416.11111111111114 282.6638655462185 A 3 3 0 0 0 413.11111111111114 279.6638655462185 L 387.22222222222223 279.6638655462185 A 3 3 0 0 0 384.22222222222223 282.6638655462185 Z" fill="#66bb6a"/>
  <text x="400.1666666666667" y="274.6638655462185" class="bar-label-value" text-anchor="middle">141ns</text>
  <text x="400.1666666666667" y="293.6638655462185" class="bar-label-pct" text-anchor="middle">+38%</text>
  <path d="M 417.1111111111111 410.0 L 449.0 410.0 L 449.0 164.89915966386553 A 3 3 0 0 0 446.0 161.89915966386553 L 420.1111111111111 161.89915966386553 A 3 3 0 0 0 417.1111111111111 164.89915966386553 Z" fill="#ab47bc"/>
  <text x="433.05555555555554" y="156.89915966386553" class="bar-label-value" text-anchor="middle">268ns</text>
  <text x="433.05555555555554" y="175.89915966386553" class="bar-label-pct" text-anchor="middle">+163%</text>
  <path d="M 450.0 410.0 L 481.8888888888889 410.0 L 481.8888888888889 325.1848739495798 A 3 3 0 0 0 478.8888888888889 322.1848739495798 L 453.0 322.1848739495798 A 3 3 0 0 0 450.0 325.1848739495798 Z" fill="#ffca28"/>
  <text x="465.94444444444446" y="317.1848739495798" class="bar-label-value" text-anchor="middle">95ns</text>
  <text x="465.94444444444446" y="336.1848739495798" class="bar-label-pct" text-anchor="middle">-7%</text>
  <path d="M 482.8888888888889 410.0 L 514.7777777777778 410.0 L 514.7777777777778 353.0084033613445 A 3 3 0 0 0 511.7777777777778 350.0084033613445 L 485.8888888888889 350.0084033613445 A 3 3 0 0 0 482.8888888888889 353.0084033613445 Z" fill="#ff7043"/>
  <text x="498.83333333333337" y="345.0084033613445" class="bar-label-value" text-anchor="middle">64ns</text>
  <text x="498.83333333333337" y="364.0084033613445" class="bar-label-pct" text-anchor="middle">-36%</text>
  <path d="M 515.7777777777778 410.0 L 547.6666666666667 410.0 L 547.6666666666667 355.5042016806723 A 3 3 0 0 0 544.6666666666667 352.5042016806723 L 518.7777777777778 352.5042016806723 A 3 3 0 0 0 515.7777777777778 355.5042016806723 Z" fill="#42a5f5"/>
  <text x="531.7222222222223" y="347.5042016806723" class="bar-label-value" text-anchor="middle">62ns</text>
  <text x="531.7222222222223" y="366.5042016806723" class="bar-label-pct" text-anchor="middle">-39%</text>
  <text x="450.0" y="430" class="test-label" text-anchor="middle">adww-64</text>
  <path d="M 597.9999999999999 410.0 L 629.8888888888888 410.0 L 629.8888888888888 318.7142857142857 A 3 3 0 0 0 626.8888888888888 315.7142857142857 L 600.9999999999999 315.7142857142857 A 3 3 0 0 0 597.9999999999999 318.7142857142857 Z" fill="#78909c"/>
  <text x="613.9444444444443" y="310.7142857142857" class="bar-label-value" text-anchor="middle">3μs</text>
  <path d="M 630.8888888888888 410.0 L 662.7777777777777 410.0 L 662.7777777777777 358.13064874840296 A 3 3 0 0 0 659.7777777777777 355.13064874840296 L 633.8888888888888 355.13064874840296 A 3 3 0 0 0 630.8888888888888 358.13064874840296 Z" fill="#66bb6a"/>
  <text x="646.8333333333333" y="350.13064874840296" class="bar-label-value" text-anchor="middle">1μs</text>
  <text x="646.8333333333333" y="369.13064874840296" class="bar-label-pct" text-anchor="middle">-42%</text>
  <path d="M 663.7777777777777 410.0 L 695.6666666666666 410.0 L 695.6666666666666 360.92580324610793 A 3 3 0 0 0 692.6666666666666 357.92580324610793 L 666.7777777777777 357.92580324610793 A 3 3 0 0 0 663.7777777777777 360.92580324610793 Z" fill="#ab47bc"/>
  <text x="679.7222222222222" y="352.92580324610793" class="bar-label-value" text-anchor="middle">1μs</text>
  <text x="679.7222222222222" y="371.92580324610793" class="bar-label-pct" text-anchor="middle">-45%</text>
  <path d="M 696.6666666666665 410.0 L 728.5555555555554 410.0 L 728.5555555555554 393.26214924525624 A 3 3 0 0 0 725.5555555555554 390.26214924525624 L 699.6666666666665 390.26214924525624 A 3 3 0 0 0 696.6666666666665 393.26214924525624 Z" fill="#ffca28"/>
  <text x="712.611111111111" y="385.26214924525624" class="bar-label-value" text-anchor="middle">632ns</text>
  <path d="M 729.5555555555554 410.0 L 761.4444444444443 410.0 L 761.4444444444443 355.0200634079402 A 3 3 0 0 0 758.4444444444443 352.0200634079402 L 732.5555555555554 352.0200634079402 A 3 3 0 0 0 729.5555555555554 355.0200634079402 Z" fill="#ff7043"/>
  <text x="745.4999999999999" y="347.0200634079402" class="bar-label-value" text-anchor="middle">1μs</text>
  <text x="745.4999999999999" y="366.0200634079402" class="bar-label-pct" text-anchor="middle">-39%</text>
  <path d="M 762.4444444444443 410.0 L 794.3333333333333 410.0 L 794.3333333333333 401.1635357024559 A 3 3 0 0 0 791.3333333333333 398.1635357024559 L 765.4444444444443 398.1635357024559 A 3 3 0 0 0 762.4444444444443 401.1635357024559 Z" fill="#42a5f5"/>
  <text x="778.3888888888888" y="393.1635357024559" class="bar-label-value" text-anchor="middle">379ns</text>
  <text x="696.6666666666665" y="430" class="test-label" text-anchor="middle">aww-64</text>
  <rect x="840" y="90" width="12" height="12" fill="#78909c" rx="2"/>
  <text x="858" y="100" class="legend-text">default</text>
  <rect x="840" y="110" width="12" height="12" fill="#66bb6a" rx="2"/>
  <text x="858" y="120" class="legend-text">jemalloc</text>
  <rect x="840" y="130" width="12" height="12" fill="#ab47bc" rx="2"/>
  <text x="858" y="140" class="legend-text">snmalloc</text>
  <rect x="840" y="150" width="12" height="12" fill="#ffca28" rx="2"/>
  <text x="858" y="160" class="legend-text">mimalloc</text>
  <rect x="840" y="170" width="12" height="12" fill="#ff7043" rx="2"/>
  <text x="858" y="180" class="legend-text">rpmalloc</text>
  <rect x="840" y="190" width="12" height="12" fill="#42a5f5" rx="2"/>
  <text x="858" y="200" class="legend-text">smalloc</text>
  <text x="500.0" y="475" class="key-text" text-anchor="middle">Tests: adrww=alloc/dealloc/realloc and write, adww=alloc/dealloc and write, aww=alloc and write</text>
  <text x="500.0" y="500" class="metadata" text-anchor="middle">Timestamp: 2026-02-15 07:02:10 UTC</text>
  <text x="500.0" y="515" class="metadata" text-anchor="middle">Source: https://github.com/zooko/smalloc · Commit: 71af7c81e2ef · Git status: Clean</text>
  <text x="500.0" y="530" class="metadata" text-anchor="middle">CPU:                           AMD EPYC 9754 128-Core Processor · OS: linux-gnu · CPU Count: 256</text>
</svg>
