<?xml version="1.0" encoding="UTF-8"?><svg xmlns="http://www.w3.org/2000/svg" viewBox="0 0 1000 550" width="1000" height="550">
  <rect width="1000" height="550" fill="white"/>
  <style>
    .title { font-family: sans-serif; font-size: 16px; font-weight: bold; fill: #333333; }
    .subtitle { font-family: sans-serif; font-size: 12px; fill: #666666; }
    .axis-label { font-family: sans-serif; font-size: 11px; fill: #666666; }
    .tick-label { font-family: sans-serif; font-size: 10px; fill: #333333; }
    .tick-label-minor { font-family: sans-serif; font-size: 9px; fill: #999999; }
    .test-label { font-family: sans-serif; font-size: 11px; fill: #333333; }
    .bar-label-value { font-family: sans-serif; font-size: 8px; fill: #333333; }
    .bar-label-pct { font-family: sans-serif; font-size: 8px; fill: white; }
    .legend-text { font-family: sans-serif; font-size: 10px; fill: #333333; }
    .metadata { font-family: sans-serif; font-size: 9px; fill: #666666; }
    .key-text { font-family: sans-serif; font-size: 9px; font-style: italic; fill: #666666; }
    .grid-line-major { stroke: #cccccc; stroke-width: 1; }
    .grid-line-minor { stroke: #e0e0e0; stroke-width: 0.5; stroke-dasharray: 4,3; }
  </style>
  <text x="500.0" y="30" class="title" text-anchor="middle">Single-Threaded Performance by Test</text>
  <text x="500.0" y="48" class="subtitle" text-anchor="middle">(Time vs baseline, lower is better, log scale)</text>
  <text x="20" y="245.0" class="axis-label" text-anchor="middle" transform="rotate(-90 20 245.0)">Time vs Baseline (%, log scale)</text>
  <line x1="80" y1="401.68329596635436" x2="820" y2="401.68329596635436" class="grid-line-minor"/>
  <text x="72" y="404.68329596635436" class="tick-label-minor" text-anchor="end">5%</text>
  <line x1="80" y1="269.5231645412682" x2="820" y2="269.5231645412682" class="grid-line-minor"/>
  <text x="72" y="272.5231645412682" class="tick-label-minor" text-anchor="end">20%</text>
  <line x1="80" y1="182.17006916385452" x2="820" y2="182.17006916385452" class="grid-line-minor"/>
  <text x="72" y="185.17006916385452" class="tick-label-minor" text-anchor="end">50%</text>
  <line x1="80" y1="80.01237774386377" x2="820" y2="80.01237774386377" class="grid-line-minor"/>
  <text x="72" y="83.01237774386377" class="tick-label-minor" text-anchor="end">146%</text>
  <line x1="80" y1="335.60323025381126" x2="820" y2="335.60323025381126" class="grid-line-major"/>
  <text x="72" y="338.60323025381126" class="tick-label" text-anchor="end">10%</text>
  <line x1="80" y1="116.09000345131146" x2="820" y2="116.09000345131146" class="grid-line-major"/>
  <text x="72" y="119.09000345131146" class="tick-label" text-anchor="end">100%</text>
  <line x1="80" y1="116.09000345131146" x2="820" y2="116.09000345131146" class="grid-line-line"/>
  <line x1="80" y1="410" x2="820" y2="410" stroke="#333333" stroke-width="1"/>
  <path d="M 104.66666666666667 410.0 L 136.55555555555557 410.0 L 136.55555555555557 119.09000345131146 A 3 3 0 0 0 133.55555555555557 116.09000345131146 L 107.66666666666667 116.09000345131146 A 3 3 0 0 0 104.66666666666667 119.09000345131146 Z" fill="#78909c"/>
  <text x="120.61111111111111" y="111.09000345131146" class="bar-label-value" text-anchor="middle">21ns</text>
  <path d="M 137.55555555555557 410.0 L 169.44444444444446 410.0 L 169.44444444444446 115.10798401150042 A 3 3 0 0 0 166.44444444444446 112.10798401150042 L 140.55555555555557 112.10798401150042 A 3 3 0 0 0 137.55555555555557 115.10798401150042 Z" fill="#66bb6a"/>
  <text x="153.50000000000003" y="107.10798401150042" class="bar-label-value" text-anchor="middle">22ns</text>
  <text x="153.50000000000003" y="126.10798401150042" class="bar-label-pct" text-anchor="middle">+4%</text>
  <path d="M 170.44444444444446 410.0 L 202.33333333333334 410.0 L 202.33333333333334 135.84087974930947 A 3 3 0 0 0 199.33333333333334 132.84087974930947 L 173.44444444444446 132.84087974930947 A 3 3 0 0 0 170.44444444444446 135.84087974930947 Z" fill="#ab47bc"/>
  <text x="186.3888888888889" y="127.84087974930947" class="bar-label-value" text-anchor="middle">17ns</text>
  <text x="186.3888888888889" y="146.84087974930947" class="bar-label-pct" text-anchor="middle">-16%</text>
  <path d="M 203.33333333333337 410.0 L 235.22222222222226 410.0 L 235.22222222222226 129.5872688874358 A 3 3 0 0 0 232.22222222222226 126.58726888743581 L 206.33333333333337 126.58726888743581 A 3 3 0 0 0 203.33333333333337 129.5872688874358 Z" fill="#ffca28"/>
  <text x="219.27777777777783" y="121.58726888743581" class="bar-label-value" text-anchor="middle">18ns</text>
  <text x="219.27777777777783" y="140.5872688874358" class="bar-label-pct" text-anchor="middle">-10%</text>
  <path d="M 236.22222222222223 410.0 L 268.11111111111114 410.0 L 268.11111111111114 135.30378884643068 A 3 3 0 0 0 265.11111111111114 132.30378884643068 L 239.22222222222223 132.30378884643068 A 3 3 0 0 0 236.22222222222223 135.30378884643068 Z" fill="#ff7043"/>
  <text x="252.16666666666669" y="127.30378884643068" class="bar-label-value" text-anchor="middle">17ns</text>
  <text x="252.16666666666669" y="146.30378884643068" class="bar-label-pct" text-anchor="middle">-16%</text>
  <path d="M 269.11111111111114 410.0 L 301.00000000000006 410.0 L 301.00000000000006 108.01207293756774 A 3 3 0 0 0 298.00000000000006 105.01207293756774 L 272.11111111111114 105.01207293756774 A 3 3 0 0 0 269.11111111111114 108.01207293756774 Z" fill="#42a5f5"/>
  <text x="285.0555555555556" y="100.01207293756774" class="bar-label-value" text-anchor="middle">23ns</text>
  <text x="285.0555555555556" y="119.01207293756774" class="bar-label-pct" text-anchor="middle">+12%</text>
  <text x="203.33333333333337" y="430" class="test-label" text-anchor="middle">adrww-1</text>
  <path d="M 351.3333333333333 410.0 L 383.22222222222223 410.0 L 383.22222222222223 119.09000345131146 A 3 3 0 0 0 380.22222222222223 116.09000345131146 L 354.3333333333333 116.09000345131146 A 3 3 0 0 0 351.3333333333333 119.09000345131146 Z" fill="#78909c"/>
  <text x="367.27777777777777" y="111.09000345131146" class="bar-label-value" text-anchor="middle">25ns</text>
  <path d="M 384.22222222222223 410.0 L 416.11111111111114 410.0 L 416.11111111111114 149.44927500128412 A 3 3 0 0 0 413.11111111111114 146.44927500128412 L 387.22222222222223 146.44927500128412 A 3 3 0 0 0 384.22222222222223 149.44927500128412 Z" fill="#66bb6a"/>
  <text x="400.1666666666667" y="141.44927500128412" class="bar-label-value" text-anchor="middle">18ns</text>
  <text x="400.1666666666667" y="160.44927500128412" class="bar-label-pct" text-anchor="middle">-27%</text>
  <path d="M 417.1111111111111 410.0 L 449.0 410.0 L 449.0 150.4911802693121 A 3 3 0 0 0 446.0 147.4911802693121 L 420.1111111111111 147.4911802693121 A 3 3 0 0 0 417.1111111111111 150.4911802693121 Z" fill="#ab47bc"/>
  <text x="433.05555555555554" y="142.4911802693121" class="bar-label-value" text-anchor="middle">18ns</text>
  <text x="433.05555555555554" y="161.4911802693121" class="bar-label-pct" text-anchor="middle">-28%</text>
  <path d="M 450.0 410.0 L 481.8888888888889 410.0 L 481.8888888888889 150.4911802693121 A 3 3 0 0 0 478.8888888888889 147.4911802693121 L 453.0 147.4911802693121 A 3 3 0 0 0 450.0 150.4911802693121 Z" fill="#ffca28"/>
  <text x="465.94444444444446" y="142.4911802693121" class="bar-label-value" text-anchor="middle">18ns</text>
  <text x="465.94444444444446" y="161.4911802693121" class="bar-label-pct" text-anchor="middle">-28%</text>
  <path d="M 482.8888888888889 410.0 L 514.7777777777778 410.0 L 514.7777777777778 155.3260216193582 A 3 3 0 0 0 511.7777777777778 152.3260216193582 L 485.8888888888889 152.3260216193582 A 3 3 0 0 0 482.8888888888889 155.3260216193582 Z" fill="#ff7043"/>
  <text x="498.83333333333337" y="147.3260216193582" class="bar-label-value" text-anchor="middle">17ns</text>
  <text x="498.83333333333337" y="166.3260216193582" class="bar-label-pct" text-anchor="middle">-32%</text>
  <path d="M 515.7777777777778 410.0 L 547.6666666666667 410.0 L 547.6666666666667 168.9259293578932 A 3 3 0 0 0 544.6666666666667 165.9259293578932 L 518.7777777777778 165.9259293578932 A 3 3 0 0 0 515.7777777777778 168.9259293578932 Z" fill="#42a5f5"/>
  <text x="531.7222222222223" y="160.9259293578932" class="bar-label-value" text-anchor="middle">15ns</text>
  <text x="531.7222222222223" y="179.9259293578932" class="bar-label-pct" text-anchor="middle">-41%</text>
  <text x="450.0" y="430" class="test-label" text-anchor="middle">adww-1</text>
  <path d="M 597.9999999999999 410.0 L 629.8888888888888 410.0 L 629.8888888888888 119.09000345131146 A 3 3 0 0 0 626.8888888888888 116.09000345131146 L 600.9999999999999 116.09000345131146 A 3 3 0 0 0 597.9999999999999 119.09000345131146 Z" fill="#78909c"/>
  <text x="613.9444444444443" y="111.09000345131146" class="bar-label-value" text-anchor="middle">160ns</text>
  <path d="M 630.8888888888888 410.0 L 662.7777777777777 410.0 L 662.7777777777777 230.40599893564703 A 3 3 0 0 0 659.7777777777777 227.40599893564703 L 633.8888888888888 227.40599893564703 A 3 3 0 0 0 630.8888888888888 230.40599893564703 Z" fill="#66bb6a"/>
  <text x="646.8333333333333" y="222.40599893564703" class="bar-label-value" text-anchor="middle">49ns</text>
  <text x="646.8333333333333" y="241.40599893564703" class="bar-label-pct" text-anchor="middle">-69%</text>
  <path d="M 663.7777777777777 410.0 L 695.6666666666666 410.0 L 695.6666666666666 290.02343908828084 A 3 3 0 0 0 692.6666666666666 287.02343908828084 L 666.7777777777777 287.02343908828084 A 3 3 0 0 0 663.7777777777777 290.02343908828084 Z" fill="#ab47bc"/>
  <text x="679.7222222222222" y="282.02343908828084" class="bar-label-value" text-anchor="middle">26ns</text>
  <text x="679.7222222222222" y="301.02343908828084" class="bar-label-pct" text-anchor="middle">-83%</text>
  <path d="M 696.6666666666665 410.0 L 728.5555555555554 410.0 L 728.5555555555554 367.0647450676248 A 3 3 0 0 0 725.5555555555554 364.0647450676248 L 699.6666666666665 364.0647450676248 A 3 3 0 0 0 696.6666666666665 367.0647450676248 Z" fill="#ffca28"/>
  <text x="712.611111111111" y="359.0647450676248" class="bar-label-value" text-anchor="middle">11ns</text>
  <text x="712.611111111111" y="378.0647450676248" class="bar-label-pct" text-anchor="middle">-93%</text>
  <path d="M 729.5555555555554 410.0 L 761.4444444444443 410.0 L 761.4444444444443 377.19817448269544 A 3 3 0 0 0 758.4444444444443 374.19817448269544 L 732.5555555555554 374.19817448269544 A 3 3 0 0 0 729.5555555555554 377.19817448269544 Z" fill="#ff7043"/>
  <text x="745.4999999999999" y="369.19817448269544" class="bar-label-value" text-anchor="middle">10ns</text>
  <text x="745.4999999999999" y="388.19817448269544" class="bar-label-pct" text-anchor="middle">-93%</text>
  <path d="M 762.4444444444443 410.0 L 794.3333333333333 410.0 L 794.3333333333333 378.9969709254978 A 3 3 0 0 0 791.3333333333333 375.9969709254978 L 765.4444444444443 375.9969709254978 A 3 3 0 0 0 762.4444444444443 378.9969709254978 Z" fill="#42a5f5"/>
  <text x="778.3888888888888" y="370.9969709254978" class="bar-label-value" text-anchor="middle">10ns</text>
  <text x="778.3888888888888" y="389.9969709254978" class="bar-label-pct" text-anchor="middle">-93%</text>
  <text x="696.6666666666665" y="430" class="test-label" text-anchor="middle">aww-1</text>
  <rect x="840" y="90" width="12" height="12" fill="#78909c" rx="2"/>
  <text x="858" y="100" class="legend-text">default</text>
  <rect x="840" y="110" width="12" height="12" fill="#66bb6a" rx="2"/>
  <text x="858" y="120" class="legend-text">jemalloc</text>
  <rect x="840" y="130" width="12" height="12" fill="#ab47bc" rx="2"/>
  <text x="858" y="140" class="legend-text">snmalloc</text>
  <rect x="840" y="150" width="12" height="12" fill="#ffca28" rx="2"/>
  <text x="858" y="160" class="legend-text">mimalloc</text>
  <rect x="840" y="170" width="12" height="12" fill="#ff7043" rx="2"/>
  <text x="858" y="180" class="legend-text">rpmalloc</text>
  <rect x="840" y="190" width="12" height="12" fill="#42a5f5" rx="2"/>
  <text x="858" y="200" class="legend-text">smalloc</text>
  <text x="500.0" y="475" class="key-text" text-anchor="middle">Tests: adrww=alloc/dealloc/realloc and write, adww=alloc/dealloc and write, aww=alloc and write</text>
  <text x="500.0" y="500" class="metadata" text-anchor="middle">Timestamp: 2026-02-15 07:02:10 UTC</text>
  <text x="500.0" y="515" class="metadata" text-anchor="middle">Source: https://github.com/zooko/smalloc 路 Commit: 71af7c81e2ef 路 Git status: Clean</text>
  <text x="500.0" y="530" class="metadata" text-anchor="middle">CPU:                           AMD EPYC 9754 128-Core Processor 路 OS: linux-gnu 路 CPU Count: 256</text>
</svg>
