<?xml version="1.0" encoding="UTF-8"?>
<svg xmlns="http://www.w3.org/2000/svg" viewBox="0 0 800 450" width="800" height="450">
  <rect width="800" height="450" fill="white"/>
  <style>
    .title { font-family: Arial, Helvetica, sans-serif; font-size: 18px; font-weight: bold; fill: #333333; }
    .axis-label { font-family: Arial, Helvetica, sans-serif; font-size: 12px; fill: #666666; }
    .tick-label { font-family: Arial, Helvetica, sans-serif; font-size: 11px; fill: #666666; }
    .bar-label-name { font-family: Arial, Helvetica, sans-serif; font-size: 12px; fill: #333333; }
    .bar-label-value { font-family: monospace; font-size: 11px; fill: #555555; }
    .bar-label-pct { font-family: Arial, Helvetica, sans-serif; font-size: 12px; font-weight: bold; fill: white; }
    .metadata { font-family: monospace; font-size: 10px; fill: #666666; }
    .grid-line { stroke: #cccccc; stroke-width: 0.5; }
  </style>
  <text x="400.0" y="35" class="title" text-anchor="middle">Performance of simd-json with different allocators—time (lower is better)</text>
  <text x="20" y="205.0" class="axis-label" text-anchor="middle" transform="rotate(-90 20 205.0)">Time vs Baseline (%, baseline = 318.21ms)</text>
  <line x1="80" y1="350.0" x2="760" y2="350.0" class="grid-line"/>
  <text x="70" y="354.0" class="tick-label" text-anchor="end">0%</text>
  <line x1="80" y1="299.5652173913044" x2="760" y2="299.5652173913044" class="grid-line"/>
  <text x="70" y="303.5652173913044" class="tick-label" text-anchor="end">20%</text>
  <line x1="80" y1="249.1304347826087" x2="760" y2="249.1304347826087" class="grid-line"/>
  <text x="70" y="253.1304347826087" class="tick-label" text-anchor="end">40%</text>
  <line x1="80" y1="198.69565217391306" x2="760" y2="198.69565217391306" class="grid-line"/>
  <text x="70" y="202.69565217391306" class="tick-label" text-anchor="end">60%</text>
  <line x1="80" y1="148.2608695652174" x2="760" y2="148.2608695652174" class="grid-line"/>
  <text x="70" y="152.2608695652174" class="tick-label" text-anchor="end">80%</text>
  <line x1="80" y1="97.82608695652175" x2="760" y2="97.82608695652175" class="grid-line"/>
  <text x="70" y="101.82608695652175" class="tick-label" text-anchor="end">100%</text>
  <path d="M 97.0 350.0 L 176.33333333333331 350.0 L 176.33333333333331 105.82608695652175 A 8 8 0 0 0 168.33333333333331 97.82608695652175 L 105.0 97.82608695652175 A 8 8 0 0 0 97.0 105.82608695652175 Z" fill="#78909c"/>
  <text x="136.66666666666666" y="370" class="bar-label-name" text-anchor="middle">default</text>
  <text x="136.66666666666666" y="89.82608695652175" class="bar-label-value" text-anchor="middle">318.21ms</text>
  <text x="136.66666666666666" y="115.82608695652175" class="bar-label-pct" text-anchor="middle">baseline</text>
  <path d="M 210.33333333333331 350.0 L 289.66666666666663 350.0 L 289.66666666666663 167.7816399494012 A 8 8 0 0 0 281.66666666666663 159.7816399494012 L 218.33333333333331 159.7816399494012 A 8 8 0 0 0 210.33333333333331 167.7816399494012 Z" fill="#66bb6a"/>
  <text x="249.99999999999997" y="370" class="bar-label-name" text-anchor="middle">jemalloc</text>
  <text x="249.99999999999997" y="151.7816399494012" class="bar-label-value" text-anchor="middle">240.03ms</text>
  <text x="249.99999999999997" y="177.7816399494012" class="bar-label-pct" text-anchor="middle">-25%</text>
  <path d="M 323.66666666666663 350.0 L 402.99999999999994 350.0 L 402.99999999999994 176.53647445775493 A 8 8 0 0 0 394.99999999999994 168.53647445775493 L 331.66666666666663 168.53647445775493 A 8 8 0 0 0 323.66666666666663 176.53647445775493 Z" fill="#ab47bc"/>
  <text x="363.3333333333333" y="370" class="bar-label-name" text-anchor="middle">snmalloc</text>
  <text x="363.3333333333333" y="160.53647445775493" class="bar-label-value" text-anchor="middle">228.98ms</text>
  <text x="363.3333333333333" y="186.53647445775493" class="bar-label-pct" text-anchor="middle">-28%</text>
  <path d="M 437.0 350.0 L 516.3333333333334 350.0 L 516.3333333333334 187.71092830485262 A 8 8 0 0 0 508.33333333333337 179.71092830485262 L 445.0 179.71092830485262 A 8 8 0 0 0 437.0 187.71092830485262 Z" fill="#ffca28"/>
  <text x="476.6666666666667" y="370" class="bar-label-name" text-anchor="middle">mimalloc</text>
  <text x="476.6666666666667" y="171.71092830485262" class="bar-label-value" text-anchor="middle">214.88ms</text>
  <text x="476.6666666666667" y="197.71092830485262" class="bar-label-pct" text-anchor="middle">-32%</text>
  <path d="M 550.3333333333333 350.0 L 629.6666666666666 350.0 L 629.6666666666666 185.71370419326396 A 8 8 0 0 0 621.6666666666666 177.71370419326396 L 558.3333333333333 177.71370419326396 A 8 8 0 0 0 550.3333333333333 185.71370419326396 Z" fill="#ff7043"/>
  <text x="589.9999999999999" y="370" class="bar-label-name" text-anchor="middle">rpmalloc</text>
  <text x="589.9999999999999" y="169.71370419326396" class="bar-label-value" text-anchor="middle">217.40ms</text>
  <text x="589.9999999999999" y="195.71370419326396" class="bar-label-pct" text-anchor="middle">-32%</text>
  <path d="M 663.6666666666666 350.0 L 743.0 350.0 L 743.0 174.77897746851988 A 8 8 0 0 0 735.0 166.77897746851988 L 671.6666666666666 166.77897746851988 A 8 8 0 0 0 663.6666666666666 174.77897746851988 Z" fill="#42a5f5"/>
  <text x="703.3333333333333" y="370" class="bar-label-name" text-anchor="middle">smalloc</text>
  <text x="703.3333333333333" y="158.77897746851988" class="bar-label-value" text-anchor="middle">231.20ms</text>
  <text x="703.3333333333333" y="184.77897746851988" class="bar-label-pct" text-anchor="middle">-27%</text>
  <text x="400.0" y="400" class="metadata" text-anchor="middle">Timestamp: 2026-03-06 06:09:22 UTC</text>

  <text x="400.0" y="414" class="metadata" text-anchor="middle">Source: https://github.com/zooko/simd-json · Commit: 73485a3ecae17f059b08cf63368920276e1c4ffb</text>

  <text x="400.0" y="428" class="metadata" text-anchor="middle">Git Clean Status: Clean</text>

  <text x="400.0" y="442" class="metadata" text-anchor="middle">CPU: IntelRCoreTMUltra9185H · OS: linux-gnu · CPU count: 22</text>

</svg>