<?xml version="1.0" encoding="UTF-8"?><svg xmlns="http://www.w3.org/2000/svg" viewBox="0 0 1000 550" width="1000" height="550">
  <rect width="1000" height="550" fill="white"/>
  <style>
    .title { font-family: sans-serif; font-size: 16px; font-weight: bold; fill: #333333; }
    .subtitle { font-family: sans-serif; font-size: 12px; fill: #666666; }
    .axis-label { font-family: sans-serif; font-size: 11px; fill: #666666; }
    .tick-label { font-family: sans-serif; font-size: 10px; fill: #333333; }
    .tick-label-minor { font-family: sans-serif; font-size: 9px; fill: #999999; }
    .test-label { font-family: sans-serif; font-size: 11px; fill: #333333; }
    .bar-label-value { font-family: sans-serif; font-size: 8px; fill: #333333; }
    .bar-label-pct { font-family: sans-serif; font-size: 8px; fill: white; }
    .legend-text { font-family: sans-serif; font-size: 10px; fill: #333333; }
    .metadata { font-family: sans-serif; font-size: 9px; fill: #666666; }
    .key-text { font-family: sans-serif; font-size: 9px; font-style: italic; fill: #666666; }
    .grid-line-major { stroke: #cccccc; stroke-width: 1; }
    .grid-line-minor { stroke: #e0e0e0; stroke-width: 0.5; stroke-dasharray: 4,3; }
  </style>
  <text x="500.0" y="30" class="title" text-anchor="middle">Single-Threaded Performance by Test</text>
  <text x="500.0" y="48" class="subtitle" text-anchor="middle">(Time vs baseline, lower is better, linear scale)</text>
  <text x="20" y="245.0" class="axis-label" text-anchor="middle" transform="rotate(-90 20 245.0)">Time vs Baseline (%, linear scale)</text>
  <line x1="80" y1="410.0" x2="820" y2="410.0" class="grid-line-major"/>
  <text x="72" y="413.0" class="tick-label" text-anchor="end">0%</text>
  <line x1="80" y1="355.0" x2="820" y2="355.0" class="grid-line-major"/>
  <text x="72" y="358.0" class="tick-label" text-anchor="end">20%</text>
  <line x1="80" y1="300.0" x2="820" y2="300.0" class="grid-line-major"/>
  <text x="72" y="303.0" class="tick-label" text-anchor="end">40%</text>
  <line x1="80" y1="245.0" x2="820" y2="245.0" class="grid-line-major"/>
  <text x="72" y="248.0" class="tick-label" text-anchor="end">60%</text>
  <line x1="80" y1="190.0" x2="820" y2="190.0" class="grid-line-major"/>
  <text x="72" y="193.0" class="tick-label" text-anchor="end">80%</text>
  <line x1="80" y1="135.0" x2="820" y2="135.0" class="grid-line-major"/>
  <text x="72" y="138.0" class="tick-label" text-anchor="end">100%</text>
  <line x1="80" y1="80.0" x2="820" y2="80.0" class="grid-line-major"/>
  <text x="72" y="83.0" class="tick-label" text-anchor="end">120%</text>
  <line x1="80" y1="135.0" x2="820" y2="135.0" class="grid-line-line"/>
  <line x1="80" y1="410" x2="820" y2="410" stroke="#333333" stroke-width="1"/>
  <path d="M 104.66666666666667 410.0 L 136.55555555555557 410.0 L 136.55555555555557 138.0 A 3 3 0 0 0 133.55555555555557 135.0 L 107.66666666666667 135.0 A 3 3 0 0 0 104.66666666666667 138.0 Z" fill="#78909c"/>
  <text x="120.61111111111111" y="130.0" class="bar-label-value" text-anchor="middle">19ns</text>
  <path d="M 137.55555555555557 410.0 L 169.44444444444446 410.0 L 169.44444444444446 156.52331606217615 A 3 3 0 0 0 166.44444444444446 153.52331606217615 L 140.55555555555557 153.52331606217615 A 3 3 0 0 0 137.55555555555557 156.52331606217615 Z" fill="#66bb6a"/>
  <text x="153.50000000000003" y="148.52331606217615" class="bar-label-value" text-anchor="middle">18ns</text>
  <text x="153.50000000000003" y="167.52331606217615" class="bar-label-pct" text-anchor="middle">-7%</text>
  <path d="M 170.44444444444446 410.0 L 202.33333333333334 410.0 L 202.33333333333334 192.14507772020727 A 3 3 0 0 0 199.33333333333334 189.14507772020727 L 173.44444444444446 189.14507772020727 A 3 3 0 0 0 170.44444444444446 192.14507772020727 Z" fill="#ab47bc"/>
  <text x="186.3888888888889" y="184.14507772020727" class="bar-label-value" text-anchor="middle">15ns</text>
  <text x="186.3888888888889" y="203.14507772020727" class="bar-label-pct" text-anchor="middle">-20%</text>
  <path d="M 203.33333333333337 410.0 L 235.22222222222226 410.0 L 235.22222222222226 175.04663212435236 A 3 3 0 0 0 232.22222222222226 172.04663212435236 L 206.33333333333337 172.04663212435236 A 3 3 0 0 0 203.33333333333337 175.04663212435236 Z" fill="#ffca28"/>
  <text x="219.27777777777783" y="167.04663212435236" class="bar-label-value" text-anchor="middle">16ns</text>
  <text x="219.27777777777783" y="186.04663212435236" class="bar-label-pct" text-anchor="middle">-13%</text>
  <path d="M 236.22222222222223 410.0 L 268.11111111111114 410.0 L 268.11111111111114 207.81865284974094 A 3 3 0 0 0 265.11111111111114 204.81865284974094 L 239.22222222222223 204.81865284974094 A 3 3 0 0 0 236.22222222222223 207.81865284974094 Z" fill="#ff7043"/>
  <text x="252.16666666666669" y="199.81865284974094" class="bar-label-value" text-anchor="middle">14ns</text>
  <text x="252.16666666666669" y="218.81865284974094" class="bar-label-pct" text-anchor="middle">-25%</text>
  <path d="M 269.11111111111114 410.0 L 301.00000000000006 410.0 L 301.00000000000006 236.31606217616581 A 3 3 0 0 0 298.00000000000006 233.31606217616581 L 272.11111111111114 233.31606217616581 A 3 3 0 0 0 269.11111111111114 236.31606217616581 Z" fill="#42a5f5"/>
  <text x="285.0555555555556" y="228.31606217616581" class="bar-label-value" text-anchor="middle">12ns</text>
  <text x="285.0555555555556" y="247.31606217616581" class="bar-label-pct" text-anchor="middle">-36%</text>
  <text x="203.33333333333337" y="430" class="test-label" text-anchor="middle">adrww-1</text>
  <path d="M 351.3333333333333 410.0 L 383.22222222222223 410.0 L 383.22222222222223 138.0 A 3 3 0 0 0 380.22222222222223 135.0 L 354.3333333333333 135.0 A 3 3 0 0 0 351.3333333333333 138.0 Z" fill="#78909c"/>
  <text x="367.27777777777777" y="130.0" class="bar-label-value" text-anchor="middle">24ns</text>
  <path d="M 384.22222222222223 410.0 L 416.11111111111114 410.0 L 416.11111111111114 171.95061728395063 A 3 3 0 0 0 413.11111111111114 168.95061728395063 L 387.22222222222223 168.95061728395063 A 3 3 0 0 0 384.22222222222223 171.95061728395063 Z" fill="#66bb6a"/>
  <text x="400.1666666666667" y="163.95061728395063" class="bar-label-value" text-anchor="middle">21ns</text>
  <text x="400.1666666666667" y="182.95061728395063" class="bar-label-pct" text-anchor="middle">-12%</text>
  <path d="M 417.1111111111111 410.0 L 449.0 410.0 L 449.0 173.08230452674903 A 3 3 0 0 0 446.0 170.08230452674903 L 420.1111111111111 170.08230452674903 A 3 3 0 0 0 417.1111111111111 173.08230452674903 Z" fill="#ab47bc"/>
  <text x="433.05555555555554" y="165.08230452674903" class="bar-label-value" text-anchor="middle">21ns</text>
  <text x="433.05555555555554" y="184.08230452674903" class="bar-label-pct" text-anchor="middle">-13%</text>
  <path d="M 450.0 410.0 L 481.8888888888889 410.0 L 481.8888888888889 202.50617283950612 A 3 3 0 0 0 478.8888888888889 199.50617283950612 L 453.0 199.50617283950612 A 3 3 0 0 0 450.0 202.50617283950612 Z" fill="#ffca28"/>
  <text x="465.94444444444446" y="194.50617283950612" class="bar-label-value" text-anchor="middle">18ns</text>
  <text x="465.94444444444446" y="213.50617283950612" class="bar-label-pct" text-anchor="middle">-23%</text>
  <path d="M 482.8888888888889 410.0 L 514.7777777777778 410.0 L 514.7777777777778 170.81893004115227 A 3 3 0 0 0 511.7777777777778 167.81893004115227 L 485.8888888888889 167.81893004115227 A 3 3 0 0 0 482.8888888888889 170.81893004115227 Z" fill="#ff7043"/>
  <text x="498.83333333333337" y="162.81893004115227" class="bar-label-value" text-anchor="middle">21ns</text>
  <text x="498.83333333333337" y="181.81893004115227" class="bar-label-pct" text-anchor="middle">-12%</text>
  <path d="M 515.7777777777778 410.0 L 547.6666666666667 410.0 L 547.6666666666667 196.84773662551436 A 3 3 0 0 0 544.6666666666667 193.84773662551436 L 518.7777777777778 193.84773662551436 A 3 3 0 0 0 515.7777777777778 196.84773662551436 Z" fill="#42a5f5"/>
  <text x="531.7222222222223" y="188.84773662551436" class="bar-label-value" text-anchor="middle">19ns</text>
  <text x="531.7222222222223" y="207.84773662551436" class="bar-label-pct" text-anchor="middle">-21%</text>
  <text x="450.0" y="430" class="test-label" text-anchor="middle">adww-1</text>
  <path d="M 597.9999999999999 410.0 L 629.8888888888888 410.0 L 629.8888888888888 138.0 A 3 3 0 0 0 626.8888888888888 135.0 L 600.9999999999999 135.0 A 3 3 0 0 0 597.9999999999999 138.0 Z" fill="#78909c"/>
  <text x="613.9444444444443" y="130.0" class="bar-label-value" text-anchor="middle">43ns</text>
  <path d="M 630.8888888888888 410.0 L 662.7777777777777 410.0 L 662.7777777777777 293.046403712297 A 3 3 0 0 0 659.7777777777777 290.046403712297 L 633.8888888888888 290.046403712297 A 3 3 0 0 0 630.8888888888888 293.046403712297 Z" fill="#66bb6a"/>
  <text x="646.8333333333333" y="285.046403712297" class="bar-label-value" text-anchor="middle">18ns</text>
  <text x="646.8333333333333" y="304.046403712297" class="bar-label-pct" text-anchor="middle">-56%</text>
  <path d="M 663.7777777777777 410.0 L 695.6666666666666 410.0 L 695.6666666666666 346.6426914153132 A 3 3 0 0 0 692.6666666666666 343.6426914153132 L 666.7777777777777 343.6426914153132 A 3 3 0 0 0 663.7777777777777 346.6426914153132 Z" fill="#ab47bc"/>
  <text x="679.7222222222222" y="338.6426914153132" class="bar-label-value" text-anchor="middle">10ns</text>
  <text x="679.7222222222222" y="357.6426914153132" class="bar-label-pct" text-anchor="middle">-76%</text>
  <path d="M 696.6666666666665 410.0 L 728.5555555555554 410.0 L 728.5555555555554 354.9373549883991 A 3 3 0 0 0 725.5555555555554 351.9373549883991 L 699.6666666666665 351.9373549883991 A 3 3 0 0 0 696.6666666666665 354.9373549883991 Z" fill="#ffca28"/>
  <text x="712.611111111111" y="346.9373549883991" class="bar-label-value" text-anchor="middle">9ns</text>
  <text x="712.611111111111" y="365.9373549883991" class="bar-label-pct" text-anchor="middle">-79%</text>
  <path d="M 729.5555555555554 410.0 L 761.4444444444443 410.0 L 761.4444444444443 361.95591647331787 A 3 3 0 0 0 758.4444444444443 358.95591647331787 L 732.5555555555554 358.95591647331787 A 3 3 0 0 0 729.5555555555554 361.95591647331787 Z" fill="#ff7043"/>
  <text x="745.4999999999999" y="353.95591647331787" class="bar-label-value" text-anchor="middle">8ns</text>
  <text x="745.4999999999999" y="372.95591647331787" class="bar-label-pct" text-anchor="middle">-81%</text>
  <path d="M 762.4444444444443 410.0 L 794.3333333333333 410.0 L 794.3333333333333 348.5568445475638 A 3 3 0 0 0 791.3333333333333 345.5568445475638 L 765.4444444444443 345.5568445475638 A 3 3 0 0 0 762.4444444444443 348.5568445475638 Z" fill="#42a5f5"/>
  <text x="778.3888888888888" y="340.5568445475638" class="bar-label-value" text-anchor="middle">10ns</text>
  <text x="778.3888888888888" y="359.5568445475638" class="bar-label-pct" text-anchor="middle">-77%</text>
  <text x="696.6666666666665" y="430" class="test-label" text-anchor="middle">aww-1</text>
  <rect x="840" y="90" width="12" height="12" fill="#78909c" rx="2"/>
  <text x="858" y="100" class="legend-text">default</text>
  <rect x="840" y="110" width="12" height="12" fill="#66bb6a" rx="2"/>
  <text x="858" y="120" class="legend-text">jemalloc</text>
  <rect x="840" y="130" width="12" height="12" fill="#ab47bc" rx="2"/>
  <text x="858" y="140" class="legend-text">snmalloc</text>
  <rect x="840" y="150" width="12" height="12" fill="#ffca28" rx="2"/>
  <text x="858" y="160" class="legend-text">mimalloc</text>
  <rect x="840" y="170" width="12" height="12" fill="#ff7043" rx="2"/>
  <text x="858" y="180" class="legend-text">rpmalloc</text>
  <rect x="840" y="190" width="12" height="12" fill="#42a5f5" rx="2"/>
  <text x="858" y="200" class="legend-text">smalloc</text>
  <text x="500.0" y="475" class="key-text" text-anchor="middle">Tests: adrww=alloc/dealloc/realloc and write, adww=alloc/dealloc and write, aww=alloc and write</text>
  <text x="500.0" y="500" class="metadata" text-anchor="middle">Timestamp: 2026-03-06 07:18:19 UTC</text>
  <text x="500.0" y="514" class="metadata" text-anchor="middle">Source: https://github.com/zooko/smalloc · Commit: 48a4d035b402e23b5d62ecfde8ef257be64e414f · Tag: v7.6.5</text>
  <text x="500.0" y="528" class="metadata" text-anchor="middle">Git Clean Status: Clean</text>
  <text x="500.0" y="542" class="metadata" text-anchor="middle">CPU: IntelRCoreTMUltra9185H · OS: linux-gnu · CPU count: 22</text>
</svg>
