<svg xmlns="http://www.w3.org/2000/svg" viewBox="0 0 800 450" width="800" height="450">
  <rect width="800" height="450" fill="white"/>
  <style>
    .title { font-family: Arial, Helvetica, sans-serif; font-size: 18px; font-weight: bold; fill: #333333; }
    .axis-label { font-family: Arial, Helvetica, sans-serif; font-size: 12px; fill: #666666; }
    .tick-label { font-family: Arial, Helvetica, sans-serif; font-size: 11px; fill: #666666; }
    .bar-label-name { font-family: Arial, Helvetica, sans-serif; font-size: 12px; fill: #333333; }
    .bar-label-value { font-family: monospace; font-size: 11px; fill: #555555; }
    .bar-label-pct { font-family: Arial, Helvetica, sans-serif; font-size: 12px; font-weight: bold; fill: white; }
    .metadata { font-family: monospace; font-size: 10px; fill: #666666; }
    .grid-line { stroke: #cccccc; stroke-width: 0.5; }
  </style>
  <text x="400.0" y="35" class="title" text-anchor="middle">Performance of simd-json with different allocators—time (lower is better)</text>
  <text x="20" y="205.0" class="axis-label" text-anchor="middle" transform="rotate(-90 20 205.0)">Time vs Baseline (%, baseline = 2.84ms)</text>
  <line x1="80" y1="350.0" x2="760" y2="350.0" class="grid-line"/>
  <text x="70" y="354.0" class="tick-label" text-anchor="end">0</text>
  <line x1="80" y1="299.5652173913044" x2="760" y2="299.5652173913044" class="grid-line"/>
  <text x="70" y="303.5652173913044" class="tick-label" text-anchor="end">20</text>
  <line x1="80" y1="249.1304347826087" x2="760" y2="249.1304347826087" class="grid-line"/>
  <text x="70" y="253.1304347826087" class="tick-label" text-anchor="end">40</text>
  <line x1="80" y1="198.69565217391306" x2="760" y2="198.69565217391306" class="grid-line"/>
  <text x="70" y="202.69565217391306" class="tick-label" text-anchor="end">60</text>
  <line x1="80" y1="148.2608695652174" x2="760" y2="148.2608695652174" class="grid-line"/>
  <text x="70" y="152.2608695652174" class="tick-label" text-anchor="end">80</text>
  <line x1="80" y1="97.82608695652175" x2="760" y2="97.82608695652175" class="grid-line"/>
  <text x="70" y="101.82608695652175" class="tick-label" text-anchor="end">100</text>
  <line x1="80" y1="97.82608695652175" x2="760" y2="97.82608695652175" class="grid-line"/>
  <text x="70" y="101.82608695652175" class="tick-label" text-anchor="end">100</text>
  <path d="M 97.0 350.0 L 176.33333333333331 350.0 L 176.33333333333331 105.82608695652175 A 8 8 0 0 0 168.33333333333331 97.82608695652175 L 105.0 97.82608695652175 A 8 8 0 0 0 97.0 105.82608695652175 Z" fill="#78909c"/>
  <text x="136.66666666666666" y="370" class="bar-label-name" text-anchor="middle">default</text>
  <text x="136.66666666666666" y="89.82608695652175" class="bar-label-value" text-anchor="middle">2.84ms</text>
  <text x="136.66666666666666" y="115.82608695652175" class="bar-label-pct" text-anchor="middle">baseline</text>
  <path d="M 210.33333333333331 350.0 L 289.66666666666663 350.0 L 289.66666666666663 162.4511444081419 A 8 8 0 0 0 281.66666666666663 154.4511444081419 L 218.33333333333331 154.4511444081419 A 8 8 0 0 0 210.33333333333331 162.4511444081419 Z" fill="#66bb6a"/>
  <text x="249.99999999999997" y="370" class="bar-label-name" text-anchor="middle">jemalloc</text>
  <text x="249.99999999999997" y="146.4511444081419" class="bar-label-value" text-anchor="middle">2.09ms</text>
  <text x="249.99999999999997" y="172.4511444081419" class="bar-label-pct" text-anchor="middle">-22%</text>
  <path d="M 323.66666666666663 350.0 L 402.99999999999994 350.0 L 402.99999999999994 172.5734507795052 A 8 8 0 0 0 394.99999999999994 164.5734507795052 L 331.66666666666663 164.5734507795052 A 8 8 0 0 0 323.66666666666663 172.5734507795052 Z" fill="#ab47bc"/>
  <text x="363.3333333333333" y="370" class="bar-label-name" text-anchor="middle">snmalloc</text>
  <text x="363.3333333333333" y="156.5734507795052" class="bar-label-value" text-anchor="middle">1.76ms</text>
  <text x="363.3333333333333" y="182.5734507795052" class="bar-label-pct" text-anchor="middle">-26%</text>
  <path d="M 437.0 350.0 L 516.3333333333334 350.0 L 516.3333333333334 176.03540014584422 A 8 8 0 0 0 508.33333333333337 168.03540014584422 L 445.0 168.03540014584422 A 8 8 0 0 0 437.0 176.03540014584422 Z" fill="#ffca28"/>
  <text x="476.6666666666667" y="370" class="bar-label-name" text-anchor="middle">mimalloc</text>
  <text x="476.6666666666667" y="160.03540014584422" class="bar-label-value" text-anchor="middle">1.68ms</text>
  <text x="476.6666666666667" y="186.03540014584422" class="bar-label-pct" text-anchor="middle">-28%</text>
  <path d="M 550.3333333333333 350.0 L 629.6666666666666 350.0 L 629.6666666666666 171.89100933691645 A 8 8 0 0 0 621.6666666666666 163.89100933691645 L 558.3333333333333 163.89100933691645 A 8 8 0 0 0 550.3333333333333 171.89100933691645 Z" fill="#ff7043"/>
  <text x="589.9999999999999" y="370" class="bar-label-name" text-anchor="middle">rpmalloc</text>
  <text x="589.9999999999999" y="155.89100933691645" class="bar-label-value" text-anchor="middle">1.95ms</text>
  <text x="589.9999999999999" y="181.89100933691645" class="bar-label-pct" text-anchor="middle">-26%</text>
  <path d="M 663.6666666666666 350.0 L 743.0 350.0 L 743.0 167.31242253421138 A 8 8 0 0 0 735.0 159.31242253421138 L 671.6666666666666 159.31242253421138 A 8 8 0 0 0 663.6666666666666 167.31242253421138 Z" fill="#42a5f5"/>
  <text x="703.3333333333333" y="370" class="bar-label-name" text-anchor="middle">smalloc</text>
  <text x="703.3333333333333" y="151.31242253421138" class="bar-label-value" text-anchor="middle">1.82ms</text>
  <text x="703.3333333333333" y="177.31242253421138" class="bar-label-pct" text-anchor="middle">-24%</text>
  <text x="400.0" y="415" class="metadata" text-anchor="middle">Source: https://github.com/zooko/simd-json · Commit: 3318afbc6f22 · Git status: &quot;Uncommitted changes&quot;</text>
  <text x="400.0" y="430" class="metadata" text-anchor="middle">CPU: Intel(R) Xeon(R) Gold 6152 CPU @ 2.10GHz · OS: linux-gnu</text>
</svg>