<svg xmlns="http://www.w3.org/2000/svg" viewBox="0 0 1000 550" width="1000" height="550">
  <rect width="1000" height="550" fill="white"/>
  <style>
    .title { font-family: sans-serif; font-size: 16px; font-weight: bold; fill: #333333; }
    .subtitle { font-family: sans-serif; font-size: 12px; fill: #666666; }
    .axis-label { font-family: sans-serif; font-size: 11px; fill: #666666; }
    .tick-label { font-family: sans-serif; font-size: 10px; fill: #333333; }
    .tick-label-minor { font-family: sans-serif; font-size: 9px; fill: #999999; }
    .test-label { font-family: sans-serif; font-size: 11px; fill: #333333; }
    .bar-label-value { font-family: sans-serif; font-size: 8px; fill: #333333; }
    .bar-label-pct { font-family: sans-serif; font-size: 8px; fill: white; }
    .legend-text { font-family: sans-serif; font-size: 10px; fill: #333333; }
    .metadata { font-family: sans-serif; font-size: 9px; fill: #666666; }
    .key-text { font-family: sans-serif; font-size: 9px; font-style: italic; fill: #666666; }
    .grid-line-major { stroke: #cccccc; stroke-width: 1; }
    .grid-line-minor { stroke: #e0e0e0; stroke-width: 0.5; stroke-dasharray: 4,3; }
  </style>
  <text x="500.0" y="30" class="title" text-anchor="middle">Multi-Threaded Performance by Test</text>
  <text x="500.0" y="48" class="subtitle" text-anchor="middle">(Time vs baseline, lower is better, linear scale)</text>
  <text x="20" y="245.0" class="axis-label" text-anchor="middle" transform="rotate(-90 20 245.0)">Time vs Baseline (%, linear scale)</text>
  <line x1="80" y1="410.0" x2="820" y2="410.0" class="grid-line-major"/>
  <text x="72" y="413.0" class="tick-label" text-anchor="end">0%</text>
  <line x1="80" y1="327.5" x2="820" y2="327.5" class="grid-line-major"/>
  <text x="72" y="330.5" class="tick-label" text-anchor="end">100%</text>
  <line x1="80" y1="245.0" x2="820" y2="245.0" class="grid-line-major"/>
  <text x="72" y="248.0" class="tick-label" text-anchor="end">200%</text>
  <line x1="80" y1="162.5" x2="820" y2="162.5" class="grid-line-major"/>
  <text x="72" y="165.5" class="tick-label" text-anchor="end">300%</text>
  <line x1="80" y1="80.0" x2="820" y2="80.0" class="grid-line-major"/>
  <text x="72" y="83.0" class="tick-label" text-anchor="end">400%</text>
  <line x1="80" y1="327.5" x2="820" y2="327.5" class="grid-line-line"/>
  <line x1="80" y1="410" x2="820" y2="410" stroke="#333333" stroke-width="1"/>
  <path d="M 104.66666666666667 410.0 L 136.55555555555557 410.0 L 136.55555555555557 330.5 A 3 3 0 0 0 133.55555555555557 327.5 L 107.66666666666667 327.5 A 3 3 0 0 0 104.66666666666667 330.5 Z" fill="#78909c"/>
  <text x="120.61111111111111" y="322.5" class="bar-label-value" text-anchor="middle">183ns</text>
  <path d="M 137.55555555555557 410.0 L 169.44444444444446 410.0 L 169.44444444444446 282.8553493449781 A 3 3 0 0 0 166.44444444444446 279.8553493449781 L 140.55555555555557 279.8553493449781 A 3 3 0 0 0 137.55555555555557 282.8553493449781 Z" fill="#66bb6a"/>
  <text x="153.50000000000003" y="274.8553493449781" class="bar-label-value" text-anchor="middle">289ns</text>
  <text x="153.50000000000003" y="293.8553493449781" class="bar-label-pct" text-anchor="middle">+58%</text>
  <path d="M 170.44444444444446 410.0 L 202.33333333333334 410.0 L 202.33333333333334 346.39656113537114 A 3 3 0 0 0 199.33333333333334 343.39656113537114 L 173.44444444444446 343.39656113537114 A 3 3 0 0 0 170.44444444444446 346.39656113537114 Z" fill="#ab47bc"/>
  <text x="186.3888888888889" y="338.39656113537114" class="bar-label-value" text-anchor="middle">147ns</text>
  <text x="186.3888888888889" y="357.39656113537114" class="bar-label-pct" text-anchor="middle">-19%</text>
  <path d="M 203.33333333333337 410.0 L 235.22222222222226 410.0 L 235.22222222222226 295.32942139737986 A 3 3 0 0 0 232.22222222222226 292.32942139737986 L 206.33333333333337 292.32942139737986 A 3 3 0 0 0 203.33333333333337 295.32942139737986 Z" fill="#ffca28"/>
  <text x="219.27777777777783" y="287.32942139737986" class="bar-label-value" text-anchor="middle">261ns</text>
  <text x="219.27777777777783" y="306.32942139737986" class="bar-label-pct" text-anchor="middle">+43%</text>
  <path d="M 236.22222222222223 410.0 L 268.11111111111114 410.0 L 268.11111111111114 342.2085152838428 A 3 3 0 0 0 265.11111111111114 339.2085152838428 L 239.22222222222223 339.2085152838428 A 3 3 0 0 0 236.22222222222223 342.2085152838428 Z" fill="#ff7043"/>
  <text x="252.16666666666669" y="334.2085152838428" class="bar-label-value" text-anchor="middle">157ns</text>
  <text x="252.16666666666669" y="353.2085152838428" class="bar-label-pct" text-anchor="middle">-14%</text>
  <path d="M 269.11111111111114 410.0 L 301.00000000000006 410.0 L 301.00000000000006 344.23498908296943 A 3 3 0 0 0 298.00000000000006 341.23498908296943 L 272.11111111111114 341.23498908296943 A 3 3 0 0 0 269.11111111111114 344.23498908296943 Z" fill="#42a5f5"/>
  <text x="285.0555555555556" y="336.23498908296943" class="bar-label-value" text-anchor="middle">152ns</text>
  <text x="285.0555555555556" y="355.23498908296943" class="bar-label-pct" text-anchor="middle">-17%</text>
  <text x="203.33333333333337" y="430" class="test-label" text-anchor="middle">adrww-64</text>
  <path d="M 351.3333333333333 410.0 L 383.22222222222223 410.0 L 383.22222222222223 330.5 A 3 3 0 0 0 380.22222222222223 327.5 L 354.3333333333333 327.5 A 3 3 0 0 0 351.3333333333333 330.5 Z" fill="#78909c"/>
  <text x="367.27777777777777" y="322.5" class="bar-label-value" text-anchor="middle">171ns</text>
  <path d="M 384.22222222222223 410.0 L 416.11111111111114 410.0 L 416.11111111111114 277.4298245614035 A 3 3 0 0 0 413.11111111111114 274.4298245614035 L 387.22222222222223 274.4298245614035 A 3 3 0 0 0 384.22222222222223 277.4298245614035 Z" fill="#66bb6a"/>
  <text x="400.1666666666667" y="269.4298245614035" class="bar-label-value" text-anchor="middle">281ns</text>
  <text x="400.1666666666667" y="288.4298245614035" class="bar-label-pct" text-anchor="middle">+64%</text>
  <path d="M 417.1111111111111 410.0 L 449.0 410.0 L 449.0 161.5438596491228 A 3 3 0 0 0 446.0 158.5438596491228 L 420.1111111111111 158.5438596491228 A 3 3 0 0 0 417.1111111111111 161.5438596491228 Z" fill="#ab47bc"/>
  <text x="433.05555555555554" y="153.5438596491228" class="bar-label-value" text-anchor="middle">521ns</text>
  <text x="433.05555555555554" y="172.5438596491228" class="bar-label-pct" text-anchor="middle">+205%</text>
  <path d="M 450.0 410.0 L 481.8888888888889 410.0 L 481.8888888888889 324.03508771929825 A 3 3 0 0 0 478.8888888888889 321.03508771929825 L 453.0 321.03508771929825 A 3 3 0 0 0 450.0 324.03508771929825 Z" fill="#ffca28"/>
  <text x="465.94444444444446" y="316.03508771929825" class="bar-label-value" text-anchor="middle">184ns</text>
  <text x="465.94444444444446" y="335.03508771929825" class="bar-label-pct" text-anchor="middle">+8%</text>
  <path d="M 482.8888888888889 410.0 L 514.7777777777778 410.0 L 514.7777777777778 342.07894736842104 A 3 3 0 0 0 511.7777777777778 339.07894736842104 L 485.8888888888889 339.07894736842104 A 3 3 0 0 0 482.8888888888889 342.07894736842104 Z" fill="#ff7043"/>
  <text x="498.83333333333337" y="334.07894736842104" class="bar-label-value" text-anchor="middle">147ns</text>
  <text x="498.83333333333337" y="353.07894736842104" class="bar-label-pct" text-anchor="middle">-14%</text>
  <path d="M 515.7777777777778 410.0 L 547.6666666666667 410.0 L 547.6666666666667 347.2894736842105 A 3 3 0 0 0 544.6666666666667 344.2894736842105 L 518.7777777777778 344.2894736842105 A 3 3 0 0 0 515.7777777777778 347.2894736842105 Z" fill="#42a5f5"/>
  <text x="531.7222222222223" y="339.2894736842105" class="bar-label-value" text-anchor="middle">136ns</text>
  <text x="531.7222222222223" y="358.2894736842105" class="bar-label-pct" text-anchor="middle">-20%</text>
  <text x="450.0" y="430" class="test-label" text-anchor="middle">adww-64</text>
  <path d="M 597.9999999999999 410.0 L 629.8888888888888 410.0 L 629.8888888888888 330.5 A 3 3 0 0 0 626.8888888888888 327.5 L 600.9999999999999 327.5 A 3 3 0 0 0 597.9999999999999 330.5 Z" fill="#78909c"/>
  <text x="613.9444444444443" y="322.5" class="bar-label-value" text-anchor="middle">2μs</text>
  <path d="M 630.8888888888888 410.0 L 662.7777777777777 410.0 L 662.7777777777777 299.45257159699366 A 3 3 0 0 0 659.7777777777777 296.45257159699366 L 633.8888888888888 296.45257159699366 A 3 3 0 0 0 630.8888888888888 299.45257159699366 Z" fill="#66bb6a"/>
  <text x="646.8333333333333" y="291.45257159699366" class="bar-label-value" text-anchor="middle">2μs</text>
  <text x="646.8333333333333" y="310.45257159699366" class="bar-label-pct" text-anchor="middle">+38%</text>
  <path d="M 663.7777777777777 410.0 L 695.6666666666666 410.0 L 695.6666666666666 328.0967726089306 A 3 3 0 0 0 692.6666666666666 325.0967726089306 L 666.7777777777777 325.0967726089306 A 3 3 0 0 0 663.7777777777777 328.0967726089306 Z" fill="#ab47bc"/>
  <text x="679.7222222222222" y="320.0967726089306" class="bar-label-value" text-anchor="middle">2μs</text>
  <text x="679.7222222222222" y="339.0967726089306" class="bar-label-pct" text-anchor="middle">+3%</text>
  <path d="M 696.6666666666665 410.0 L 728.5555555555554 410.0 L 728.5555555555554 362.94154344942774 A 3 3 0 0 0 725.5555555555554 359.94154344942774 L 699.6666666666665 359.94154344942774 A 3 3 0 0 0 696.6666666666665 362.94154344942774 Z" fill="#ffca28"/>
  <text x="712.611111111111" y="354.94154344942774" class="bar-label-value" text-anchor="middle">1μs</text>
  <text x="712.611111111111" y="373.94154344942774" class="bar-label-pct" text-anchor="middle">-39%</text>
  <path d="M 729.5555555555554 410.0 L 761.4444444444443 410.0 L 761.4444444444443 364.1411308149531 A 3 3 0 0 0 758.4444444444443 361.1411308149531 L 732.5555555555554 361.1411308149531 A 3 3 0 0 0 729.5555555555554 364.1411308149531 Z" fill="#ff7043"/>
  <text x="745.4999999999999" y="356.1411308149531" class="bar-label-value" text-anchor="middle">1μs</text>
  <text x="745.4999999999999" y="375.1411308149531" class="bar-label-pct" text-anchor="middle">-41%</text>
  <path d="M 762.4444444444443 410.0 L 794.3333333333333 410.0 L 794.3333333333333 374.70641548361743 A 3 3 0 0 0 791.3333333333333 371.70641548361743 L 765.4444444444443 371.70641548361743 A 3 3 0 0 0 762.4444444444443 374.70641548361743 Z" fill="#42a5f5"/>
  <text x="778.3888888888888" y="366.70641548361743" class="bar-label-value" text-anchor="middle">944ns</text>
  <text x="778.3888888888888" y="385.70641548361743" class="bar-label-pct" text-anchor="middle">-54%</text>
  <text x="696.6666666666665" y="430" class="test-label" text-anchor="middle">aww-64</text>
  <rect x="840" y="90" width="12" height="12" fill="#78909c" rx="2"/>
  <text x="858" y="100" class="legend-text">default</text>
  <rect x="840" y="110" width="12" height="12" fill="#66bb6a" rx="2"/>
  <text x="858" y="120" class="legend-text">jemalloc</text>
  <rect x="840" y="130" width="12" height="12" fill="#ab47bc" rx="2"/>
  <text x="858" y="140" class="legend-text">snmalloc</text>
  <rect x="840" y="150" width="12" height="12" fill="#ffca28" rx="2"/>
  <text x="858" y="160" class="legend-text">mimalloc</text>
  <rect x="840" y="170" width="12" height="12" fill="#ff7043" rx="2"/>
  <text x="858" y="180" class="legend-text">rpmalloc</text>
  <rect x="840" y="190" width="12" height="12" fill="#42a5f5" rx="2"/>
  <text x="858" y="200" class="legend-text">smalloc</text>
  <text x="500.0" y="475" class="key-text" text-anchor="middle">Tests: adrww=alloc/dealloc/realloc and write, adww=alloc/dealloc and write, aww=alloc and write</text>
  <text x="500.0" y="500" class="metadata" text-anchor="middle">Commit: 03cd955640f0 · Git status: &quot;&quot;Clean&quot;&quot;</text>
  <text x="500.0" y="515" class="metadata" text-anchor="middle">CPU: Intel(R) Xeon(R) Gold 6152 CPU @ 2.10GHz · OS: linux-gnu</text>
</svg>
